<svg xmlns="http://www.w3.org/2000/svg" viewBox="0 0 218.85 160.22"><title>Asset 6</title><g id="Layer_2" data-name="Layer 2"><g id="cloud"><path id="_Path_" data-name="&lt;Path&gt;" d="M192.77,118.22H172.85v-4h19.92a21.8,21.8,0,0,0,22.06-20.75c0-.41,0-.83,0-1.25,0-15.86-19.71-16.49-20.54-16.5h0a2,2,0,0,1-1.92-2.41h0c.05-.23,4.65-23.63-8.38-43-8.53-12.7-22.67-21-42-24.61-20-3.75-36.56-1.2-49.11,7.59C75,25.74,71.36,46.83,71.32,47h0a2,2,0,0,1-3.08,1.34h0c-.2-.13-19.93-13-33.58-1.15S32,77.5,32.06,77.69h0a2,2,0,0,1-2.18,3h0c-.12,0-12.15-2.81-19.68,2.28C7,85.12,5,88.51,4.33,93c-1,6.9.33,12.4,4.08,16.36a16.07,16.07,0,0,0,11.69,4.85H41.85v4H20.1a20.1,20.1,0,0,1-14.6-6.1c-3.18-3.37-6.66-9.52-5.13-19.7.85-5.67,3.41-10,7.6-12.8,6.11-4.12,14.17-4,18.91-3.49C24.05,69.4,19.94,54.69,32,44.21c13-11.28,29.7-4,35.95-.62C69.64,37.08,75.13,20.82,90.53,10c13.48-9.45,31-12.24,52.19-8.27,20.47,3.84,35.49,12.7,44.64,26.34,11.66,17.4,10.23,37.16,9.32,43.77,8.76.89,22.17,5.9,22.17,20.36,0,.47,0,.94,0,1.4A25.77,25.77,0,0,1,192.77,118.22Z"/></g><g id="image1"><polygon points="91.85 143.22 40.85 143.22 40.85 123.22 44.85 123.22 44.85 139.22 87.85 139.22 87.85 96.72 44.85 96.72 44.85 118.22 40.85 118.22 40.85 92.72 91.85 92.72 91.85 143.22"/></g><g id="image2"><polygon points="144.35 160.22 81.35 160.22 81.35 148.22 85.35 148.22 85.35 156.22 140.35 156.22 140.35 106.22 96.85 106.22 96.85 102.22 144.35 102.22 144.35 160.22"/></g><g id="image3"><polygon points="173.35 118.22 169.35 118.22 169.35 67.22 118.85 67.22 118.85 97.22 114.85 97.22 114.85 63.22 173.35 63.22 173.35 118.22"/><polygon points="173.22 136.22 149.85 136.22 149.85 132.22 169.22 132.22 169.22 123.22 173.22 123.22 173.22 136.22"/></g></g></svg>