<?xml version="1.0" encoding="utf-8"?>
<!-- Generator: Adobe Illustrator 22.0.1, SVG Export Plug-In . SVG Version: 6.00 Build 0)  -->
<svg version="1.1" id="Layer_1" xmlns="http://www.w3.org/2000/svg" xmlns:xlink="http://www.w3.org/1999/xlink" x="0px" y="0px"
	 viewBox="0 0 218.9 160.2" style="enable-background:new 0 0 218.9 160.2;" xml:space="preserve">
<style type="text/css">
	.st0{fill:#0066B3;}
</style>
<title>Asset 6</title>
<g id="Layer_2_1_">
	<g id="cloud">
		<path id="_Path_" class="st0" d="M192.8,118.2h-19.9v-4h19.9c11.7,0.2,21.5-9,22.1-20.8c0-0.4,0-0.8,0-1.3
			c0-15.9-19.7-16.5-20.5-16.5l0,0c-1.1,0-2-0.9-2-2c0-0.1,0-0.3,0-0.4l0,0c0.1-0.2,4.6-23.6-8.4-43c-8.5-12.7-22.7-21-42-24.6
			c-20-3.8-36.6-1.2-49.1,7.6C75,25.7,71.4,46.8,71.3,47l0,0c-0.2,1.1-1.2,1.8-2.3,1.6c-0.3,0-0.5-0.2-0.8-0.3l0,0
			c-0.2-0.1-19.9-13-33.6-1.2S32,77.5,32.1,77.7l0,0c0.6,0.9,0.3,2.2-0.6,2.8c-0.5,0.3-1,0.4-1.5,0.2l0,0c-0.1,0-12.1-2.8-19.7,2.3
			C7,85.1,5,88.5,4.3,93c-1,6.9,0.3,12.4,4.1,16.4c3.1,3.1,7.3,4.9,11.7,4.8h21.8v4H20.1c-5.5,0-10.8-2.2-14.6-6.1
			c-3.2-3.4-6.7-9.5-5.1-19.7c0.9-5.7,3.4-10,7.6-12.8c6.1-4.1,14.2-4,18.9-3.5C24,69.4,19.9,54.7,32,44.2c13-11.3,29.7-4,35.9-0.6
			c1.7-6.5,7.2-22.8,22.6-33.6c13.5-9.4,31-12.2,52.2-8.3c20.5,3.8,35.5,12.7,44.6,26.3c11.7,17.4,10.2,37.2,9.3,43.8
			c8.8,0.9,22.2,5.9,22.2,20.4c0,0.5,0,0.9,0,1.4C218.2,107.5,206.7,118.4,192.8,118.2z"/>
	</g>
	<g id="image1">
		<polygon class="st0" points="91.8,143.2 40.8,143.2 40.8,123.2 44.8,123.2 44.8,139.2 87.8,139.2 87.8,96.7 44.8,96.7 44.8,118.2 
			40.8,118.2 40.8,92.7 91.8,92.7 		"/>
	</g>
	<g id="image2">
		<polygon class="st0" points="144.4,160.2 81.3,160.2 81.3,148.2 85.3,148.2 85.3,156.2 140.4,156.2 140.4,106.2 96.8,106.2 
			96.8,102.2 144.4,102.2 		"/>
	</g>
	<g id="image3">
		<polygon class="st0" points="173.4,118.2 169.4,118.2 169.4,67.2 118.8,67.2 118.8,97.2 114.8,97.2 114.8,63.2 173.4,63.2 		"/>
		<polygon class="st0" points="173.2,136.2 149.9,136.2 149.9,132.2 169.2,132.2 169.2,123.2 173.2,123.2 		"/>
	</g>
</g>
</svg>
