<?xml version="1.0" encoding="utf-8"?>
<!-- Generator: Adobe Illustrator 22.0.1, SVG Export Plug-In . SVG Version: 6.00 Build 0)  -->
<svg version="1.1" id="Layer_1" xmlns="http://www.w3.org/2000/svg" xmlns:xlink="http://www.w3.org/1999/xlink" x="0px" y="0px"
	 viewBox="0 0 1065 584" style="enable-background:new 0 0 1065 584;" xml:space="preserve">
<style type="text/css">
	.st0{fill:#767676;}
</style>
<path class="st0" d="M96.6,126.9c2.1,0,2.4,0.8,4.2,0c1.8-0.8,7.2-4.3,9-4.8c1.8-0.5,3,0.2,0.3,1.6c-2.7,1.5-8,4.7-7.1,4.5
	c0.9-0.2,3.7-1.4,7.5-3.2c3.8-1.8,3.5-1,4.5-2.9c1-1.9,1.5-2.9,1.5-2.9s6.1,6.2,6.6,6.5c0.6,0.2,0.8,0,1.1-0.8
	c0.3-0.8,0.9-1.9,1.8-1.5c0.9,0.4,0.1,1.9,0.6,2.1c0.5,0.2,1.4,0,3-0.6c1.6-0.5,0.8-1.7,0.8-1.7s-0.2,0,1.7-0.2
	c1.9-0.2,7.7,2,9.4,2.7c1.7,0.7,6.9,1.2,8.4,1.7c1.5,0.5,2-0.8,4.1,0.2c2,1.1,3.5,2.5,2,3.3c-1.5,0.8-5.3,1.3-3.4,1.8
	c1.9,0.5,4.9,1.1,7.7,1c2.8-0.1,7.8-1.1,9.4-1.1c1.6,0,2.5,1,4,3.4c1.5,2.5,2.6,3.4,3.2,3.6c0.6,0.2-0.6-1.2-0.3-2.4
	c0.3-1.2-0.3-3.6-0.6-4.4c-0.3-0.8,0-1.2-0.7-2.4c-0.7-1.2-1.8-1,0.3-2c2.1-1,3.5-2.5,6-2.2c2.5,0.3,3.2,3.5,5.3,3.7
	c2.2,0.2,2.5,1.1,6.3,1.4c3.7,0.3,2.2,0,6.3,0.3c4.1,0.3,2.6-0.4,3.5-2.6c0.9-2.1,1.8-2.5,2.8-2.5c1,0.1,4.5,0.6,4.5,1
	c0,0.4-1.5,2.7-0.7,3.9c0.7,1.1,3.7,3,3.7,3s-0.6-2.6-0.6-2.9c0-0.3-0.2-2.3,0.2-2.7c0.4-0.4,2.9,0.2,4.4-2.8c1.5-3-1-2.9-1-2.9
	s-0.9,0-0.5-1.2c0.5-1.2,3.2-2,3.2-2s0.2,0.6-0.2-0.4c-0.3-1-2.2-0.8-4.1-0.9c-1.9-0.1-3.3-0.4-3.6-2c-0.3-1.6-0.5-5.1-0.5-7.5
	c0-2.4,1.9-1.5,2.2-2.9c0.3-1.3-0.1-7.8-0.6-9.1c-0.5-1.3,0.7-4.2,1-6.1c0.3-1.9,2.2-1,2.2-1c-0.3-0.6,0.6-2.5,3.1-3.2
	c2.6-0.8,7.5,0,7.5,0s-0.4,0-1.6,1.6c-1.2,1.6-0.4,4.3-2.2,6.3c-1.8,2-6.4,1.3-6.4,1.3s1.4,3.3,0.8,4.3c-0.6,1-1,3.2-1,3.2
	s4,1.1,4.3,3.7c0.2,2.6,2.2,3,2.7,5.4c0.5,2.4-2,4.3-1.5,4.7c0.5,0.4,0.7,0.5,2.2,0.6c1.5,0.1,3.4,0.4,3.4,0.4s-0.8,1.2-0.1,2.5
	c0.7,1.3,0.2,2.1,0.3,3.5c0.1,1.4,0.9,2.5,1.2,2.3c0.3-0.2,1.9-3.7,2.3-5.3c0.3-1.6,0.6-2.4,1.3-2.4c0.7,0,3,2.1,3.3,2.9
	c0.3,0.8,0.4,1.8-0.9,3.9c-1.3,2.1-1.2,3.1,0,3.9c1.1,0.8,1.2,0.6,3.2,1.5c2,1,1.6,0.9,2.9,0.5c1.3-0.4-0.5-3.5-0.4-3.6
	c0.1-0.1,3-0.4,2.3-2c-0.6-1.6-1.3-2.4,0-3.2c1.3-0.8,2.3-1.4,2.3-1.4c-0.6-1-0.7-1.1-1.7-3.8c-1-2.7,0.8-2,4.5-1.7
	c3.7,0.3,3.9,1.6,5.9,2.6c2,1,0.7,1.4,1.4,3c0.6,1.6-1.6,1.8-1.6,1.8s-1.5,0.3-1.2,1.5c0.3,1.2,1,2.7,2.1,4.7c1.1,1.9-0.3,3.3-2,4.8
	c-1.7,1.6-3.7,2-5.6,2.1c-2,0-2.8,0.8-3,0.3c-0.1-0.6-1.1-1.1-2.2-0.8c-1.1,0.2-3.5,1.2-2.7,1.5c0.9,0.3,3.1,0.2,2.2,2
	c-1,1.8-1.8,1.8-3.7,1.6c-1.9-0.2-3.7-0.2-4.9-0.3c-1.2-0.1-7.2-0.4-7.2-0.4s4,2.5,7.2,3.5c3.2,1,6.6,0.4,6.6,0.4s-1.3,2.4-2.8,5
	c-1.6,2.6-3,1.4-4.3,1.6c-1.3,0.2-2.1,1.2-4.5,1.5c-2.4,0.3-7.5-0.7-6.7-0.3c0.8,0.4,1.1,1,2.5,1.2c1.4,0.2,2.2,0.4,3.4,1.4
	c1.2,1-0.8,1.2-2.4,1.5c-1.6,0.3-2,0.6-2.8,1.6c-0.7,1-3.5,4.9-4.3,6.1c-0.9,1.2-1.6,3.2-2,5.6c-0.3,2.4-2.4,5.2-1.5,5.8
	c0.9,0.6,4.3,0.7,5.7,1.6c1.4,0.9,3,5.2,4.1,6.9c1.1,1.6,1.9,2.9,3.1,1.6c1.2-1.3,3.6-1,5.8-0.2c2.2,0.8,6.8,4,8.2,5.4
	c1.4,1.4,3.9,1.2,6.7,1.6c2.8,0.4,3.1,1.5,3.1,1.5s2.9,0.1,1.7,1.4c-1.2,1.2-1.6,0-0.3,2.1c1.2,2.1,1.2,4.9,0.8,6.3
	c-0.3,1.4,3.9,0.7,5.6,1.7c1.8,1,1.9,5.3,2.8,4.8c0.9-0.5,2.4-1.4,2.6-2.6c0.2-1.1,0-2.6-0.2-4.5c-0.2-1.9-0.6-5.5-1.6-6.9
	c-0.9-1.4,1.7-2,1.3-2.6c-0.4-0.6-0.3-1.8,1.5-2.3c1.8-0.5,1.9,0,2.9-0.8c1-0.8,1.2-4.3,1.3-5.6c0.2-1.3-0.3-4.1-0.7-5.1
	c-0.4-1-2.2-4.4-2.8-5.1c-0.7-0.7-1.5-0.9,0.3-3.2c1.8-2.3,0.7-1.8,0.5-2.5c-0.3-0.7-0.6-2.4-1-3.9c-0.4-1.5,0.7-3.2,0.1-5.4
	c-0.6-2.2-1.3-1.7-1.2-2.2c0.1-0.5,4.2-0.4,7.2,0c3,0.3,4.2-0.3,5.1-0.3s2.4,0.8,4.1,1.9c1.7,1.1,2.3,0.8,3.2,2.1
	c0.9,1.3,1.3,2,3.1,2c1.8-0.1,3.7,0.8,3.7,0.8s-1.3,0.7-1,3.1c0.2,2.4-0.3,4.1-0.2,5.1c0,1,0.5,1,1.3,1.1c0.8,0.1,3,2.1,5.3,2.9
	c2.3,0.8,2.9,0.6,3.6-1.3c0.7-1.9,0.9-1.7,1.8-1.8c0.9-0.1,1.2,0.2,1.6-0.2c0.4-0.4-0.7-1.2-0.4-2.5c0.3-1.3,1.5-3,2.5-3.9
	c1-1,1.8,1,2.7,2.7c0.9,1.8,4.1,7.5,5,9.4c0.9,1.9,2.1,2,1,3.8s-1.6,2.5,0.1,3.3c1.7,0.8,3.2,2.2,3.1,3.5c-0.1,1.3-0.5,1.4,0.1,1.7
	c0.6,0.4,2.6-0.7,4-0.1c1.5,0.6,3.2,1.2,4.3,2.3c1,1,1,1.4-0.5,1.9c-1.5,0.5-2.9,1-3.7,1.5c-0.7,0.4-1.9,1.3-1.9,2
	c0,0.7-0.3,1.8,0.9,0.9c1.2-0.9,3.1-1.8,4.4-2.2c1.4-0.4,0.3,0,1.6-0.2c1.3-0.2,2.5,0.6,4.2,1.1c1.7,0.5,1.2,1.6,0.8,2.6
	c-0.4,1-0.8,2-0.1,3.1c0.7,1.1-0.3,2.1-1.8,3.5c-1.5,1.4-2.6,1.6-5.1,1.9c-2.5,0.3-3.6,1.8-5.4,3.4c-1.7,1.6-2.6,1.2-5.1,1.3
	c-2.5,0.1-1.5-1.2-2.3-1c-0.8,0.3-1.8,1.1-3.4,1.3c-1.6,0.2-7,0.2-9.1,0.8c-2.1,0.6-1.4,2-1.9,3.2c-0.5,1.2-1.3,0.7-2.9,1.2
	c-1.6,0.5-3.4,2.8-5.2,6c-1.8,3.1-4.3,5.1-4.3,5.1c0.5-0.1,3.1-1.7,4.3-3.2c1.3-1.5,6.5-5.1,8.1-6.3c1.6-1.1,5-2.8,5.9-2.5
	c0.8,0.2,2.9,1.8,2.9,2.6c0,0.8-0.6,1.4-2.1,2.8c-1.5,1.4-3.4,0-3.3,0.6c0.1,0.6,1.2,1.9,2.3,2.1c1.1,0.3,1.1,1.6,1.1,2.3
	c0,0.7-0.6,1.6,1.9,3.7c2.6,2.2,4.4,2.3,6.3,2.2c1.9-0.1,0.9,0.6,1.7,0.6c0.8-0.1,0.9-1.6,1.2-2.8c0.3-1.2,0.7-2.3,1.4-2.9
	c0.7-0.5,1.2-1.5,1.4,0.4c0.2,1.8-0.8,4.4-1.8,4.9c-1,0.6-0.8,1.3-0.8,1.8c0,0.6-1.1,0.6-3.8,2.1c-2.7,1.5-3.5,1.9-4,1.6
	s-1.5,0.2-2.8,1.4c-1.3,1.2-2.7,2.7-3.6,2.7c-1,0-1.8-0.4-0.5-1.8c1.3-1.3,1.7-3.2,3-3.8c1.3-0.6,1.9-0.6,3-0.6
	c1.1,0,0.6-0.6,1.4-1.3c0.9-0.6-0.6-0.4-2.1-0.7c-1.5-0.2-0.3-1.5-0.3-1.5l-1.5,0.8c0,0-2.3,1.2-2.9,1.3c-0.6,0.1-0.5,0.5-0.6,0.7
	c-0.2,0.2-2.3,0.4-2.3,0.4s-1.1,2.3-2.8,2.6c-1.7,0.3-0.5,0.2-1.7,0.7c-1.2,0.5-1-0.6-1.2-0.3c-0.3,0.3-0.5,0.6-1.8,1.6
	c-1.3,1-2.1,1.3-3.1,5c-1,3.7,0.2,5,0.1,5.5c0,0.6-1.7-0.4-2.2,0.1c-0.5,0.4-1.6,1.8-3,2.2c-1.4,0.4-4.2,1.1-4.9,1.8
	c-0.6,0.7-0.7,1.6-1,3.1c-0.3,1.4-2,4.7-2,4.7s0.4-1.3-0.8-2.3c-1.2-1-1-1.8-1-1.8s-0.3,1.3,0.2,2.7c0.4,1.4,1.3,2.7,0.9,4.2
	c-0.4,1.5-1.1,3.3-2,3.9c-0.9,0.5,0.2-1,0.2-2.2c0-1.2-0.6-1.3-1-1.9c-0.4-0.6-0.4-2.1,0.3-4.2c0.7-2.1-0.6-0.8-1.4,0.6
	c-0.8,1.4-1.3,3.9-0.1,5.5c1.2,1.6-0.8,1.5,0,3.9c0.8,2.4-1,3.5-0.7,3.9c0.3,0.4,1.3-0.2,1.7,1c0.4,1.2-0.9,0.6-1.3,1
	c-0.4,0.3-0.2,0.8,0,1.4c0.3,0.6,0.8,0.2,0.6,0.4c-0.2,0.2-0.8,1-1.9,1.4c-1.1,0.4-1.2-0.2-1.9,0.6c-0.7,0.8-1.2,1.5-1.9,2.4
	c-0.7,0.9-1.2,0.6-2,1.3c-0.8,0.6-1.1,1.2-2,2c-0.9,0.8-3.1,2-4.3,3.6c-1.2,1.6-0.9,2-1.4,4.5c-0.6,2.5,1.4,7,2.7,11.1
	c1.3,4.2,1.8,3,1.6,4.3c-0.2,1.3-0.7,2.9-1.6,3.9c-0.9,0.9-1.4-0.6-2.7-1.6c-1.3-0.9-0.3-1.6-1.5-3.5c-1.2-1.9-1.1-2.6-1.3-4
	c-0.1-1.4-0.3-3.4-1-4.9c-0.6-1.5-2-3.5-4.1-2.7c-2.1,0.8-1.6,0.4-2.7,0.1c-1.1-0.3-4.1-1.5-5.6-0.7c-1.5,0.8-6.3-0.2-7.3,0
	c-1,0.2-1.7,0.3-1.7,1c0,0.7-0.4,0.8,1.3,1.3c1.8,0.5,1.5,1,1.4,1.8c-0.1,0.8-1.4-0.4-2.1-0.7c-0.7-0.3-1.3,0.6-2.5,0.6
	c-1.2,0-1.4-1.2-2.5-1.3c-1.1-0.2-1.5,0-2.5-0.4c-1-0.4-2.4-1.1-3.6-1c-1.2,0.1-5.9,3.2-8.1,4.8c-2.2,1.7-3.9,3.3-4.4,4.6
	c-0.5,1.3-0.6,1.4,1.2,3.4c1.8,2,0.9,1.6,0.6,2.8c-0.3,1.1-1.4,2.5-2.6,5.4c-1.3,2.9-0.5,4.3,1,7.1c1.5,2.8,2.9,4.8,4.1,6
	c1.2,1.2,2.1,2.4,3.1,2.9c1,0.4,1.2,0.6,1.7,1.1c0.5,0.5,0.3,0.7,2,0.2c1.6-0.4,2.8-1.1,4-1.1c1.2,0,2.2,0,2.9,0.6
	c0.6,0.6,0.7,0.2,0.7-0.1c0-0.3,0.5-1.5,0.7-1.8c0.2-0.3,1.7-2.5,2-3.7c0.3-1.2,0.3-3.6,1.8-3.8c1.5-0.2,4.7-0.9,7.7-0.7
	c2.9,0.2,1.6,1.6,0.9,3.2c-0.8,1.5-1.1,1.7-1.1,2.9c0,1.2,0.3,1.2-0.6,1.9c-0.9,0.7-0.3-0.4-0.7,0.3c-0.4,0.7-1.8,1.7-1.6,1.5
	c0.2-0.2,0.6,1.2,0.6,1.8c0,0.6-0.1,1-0.1,2.5c0,1.6-3.1,3.2-3.1,3.2s1.1,0.6,2.8,0.6c1.6,0,3.6,0,5.3,0.8c1.7,0.8,5-0.6,7.4,0.6
	c2.4,1.2,1.6,1.9,1.7,3.1c0.2,1.1,0.4,5,0.3,5.9c-0.2,0.9-1.3,3.4-1.9,5.1c-0.6,1.8,1.7,3.1,3.9,4.5c2.2,1.4,4,2.1,5.2,2.4
	c1.1,0.3,3.2-1.7,7-1.4c3.8,0.2,5.1,3.5,5.1,3.5s0.4-2,2.2-4.7c1.7-2.7,1.8-3.5,4.1-4.4c2.3-0.9,3.1-1,6.9-2.3
	c3.8-1.2,3.1-0.3,5.1-0.2c2,0.2,6.6,0.6,11.1,1.9c4.6,1.4,11.6,1.8,14.2,2.9c2.7,1.1,3.9,4.3,6.6,6.8c2.8,2.6,6.2,4.9,7.7,6.1
	c1.5,1.2,9.7,2.3,11.5,3.1c1.8,0.7,4.3,3.7,4.5,5.5c0.2,1.8,2,2.7,4.5,3.7c2.5,1,3.3,2.3,4.9,5.5c1.6,3.2,1.1,4.1,3.4,4.9
	c2.3,0.8,17.8,5,21.6,6.5c3.9,1.5,8.8,5.6,10.1,6.1c1.3,0.5,3.6-0.4,4.7,0.2c1,0.6-0.6,3.6,0.7,5.8c1.3,2.2,1.4,2.3,0.6,3.9
	c-0.8,1.6-3.9,5.5-5.1,7.4c-1.2,1.9-3.8,3.1-5.3,3.9c-1.5,0.8-2.8,0-1.5,1.6c1.3,1.6,0.1,3-1,4.4c-1.1,1.4,0.1,1.3-0.3,6
	c-0.3,4.7,0,9.7-0.5,11.7c-0.5,2-3.5-1.8-7,2.6c-3.4,4.3-4.4,7.6-6.5,8.1c-2.1,0.5-6.9,2.9-8.5,4.4c-1.6,1.5-2,2.1-3,4.3
	c-1,2.2-2.1,6.8-3.2,9.6c-1.1,2.8-2.9,4.4-7.1,8.2c-4.1,3.8-6,7.6-8.6,10.6c-2.7,3-2,2.3-2.5,2.9c-1.4,1.4-7.3-2.3-5.8-0.2
	c1.1,1.5-0.6,0,0.3,1.4c0.9,1.4,1.6,2-0.4,4.6c-2.1,2.6-4.5,2.1-6.1,2.5c-1.6,0.4-4.1-1.7-4.3-0.6c-0.2,1-1.1,3.6-2.4,4.3
	c-1.3,0.6-4.7,1.6-4.7,2c1.6,7.6,5,8.4,1.4,8.1c-9.7-1-2.8-3.3-9.5,10.9c-1,2.2-2.1,1-1.9,3.6c0.2,2.6,0,4.5,1.4,6.1
	c1.4,1.6,0.4,1.5-1.9,3.7c-2.3,2.2-2.5,1.9-4.7,5.2c-2.2,3.3-4.2,3.1-3.5,5.6c0.8,2.5,1,6.2,2.2,9.9c1.3,3.7,4,3.1,8.2,5.6
	c4.2,2.6,4.7,1.2,6.8,1.8c2.1,0.6-1.5,0.8-5.2,1.4c-3.7,0.6-6.1,1.4-8.7,0.8c-2.6-0.6-8.7-4.1-10.8-5.6c-2.1-1.5-5.4-4.3-6.6-6.9
	c-1.2-2.7-2.1-5.3-3.6-8.9c-1.5-3.6-0.4-5.9,0.3-13.8c0.7-8,1.2-14.2,2.3-18.4c1.1-4.3,4.6-23.2,5.5-28.1c1-4.9,5.4-24.8,5.7-28
	c0.3-3.1,0.6-5.5,1.3-8.7c0.7-3.1,0.3-9.5,0.3-9.8c0-0.3-0.3-0.6-1.2-3.5c-0.9-3-2.5-4.2-4.7-5.5c-2.2-1.3-4.4-2.9-6.1-4.1
	c-1.7-1.2-3.8-2.9-5.5-5.1c-1.7-2.2-3.4-6.6-4.2-8.4c-0.9-1.8-4.1-8.1-7-12.5c-2.9-4.3-3.1-4.4-4.6-9c-1.5-4.6,1.3-4.7,1.8-7.2
	c0.5-2.6,2.2-5.2,4.1-8.8c1.9-3.6,4.4-4.7,5.9-7.9c1.5-3.2,0.3-3.2-0.2-6.3c-0.5-3.1,0.2-2.7-0.8-4.3c-0.9-1.7-1.5-3.8-2.3-4.3
	s-2.2-1-2.9-0.1c-0.8,0.9-2.2,3.5-3,3.6c-0.9,0.2-1.2-0.8-1.7-1.4c-0.5-0.6-3-0.6-3.5-1.1c-0.5-0.6-1.8-0.6-2.7-1
	c-0.9-0.4-4.2-2.2-5.2-3c-0.9-0.8-2.2-2.7-2.2-4.8c0-2.1-1.8-2.9-5.9-5.8c-4.1-2.9-5.8-3.3-10.7-4.5c-4.9-1.2-6.9-4.7-8.5-5.6
	c-1.6-1-1.5-2-5.1-1.6c-3.6,0.4-8-1.6-10.8-2.7c-2.8-1.1-7.7-1.9-9.7-3.3c-2.1-1.4-5.7-1.9-7.2-5.1c-1.6-3.3-1.3-2-0.7-4.9
	c0.6-2.9-3.5-5.3-6-8c-2.5-2.7-4.4-3.1-5.7-6.5c-1.3-3.4-3.2-3.2-5.7-5.6c-2.5-2.4-2.6-5.5-3.6-8.2c-1-2.7-7.9-6.7-7.9-6.7
	s1.8,4.6,2.6,6.4c0.8,1.8,2.6,6.3,4.7,9.6c2.1,3.3,3.9,4.1,5.8,7.4c1.9,3.3,0.1,5.3-0.6,4c-0.7-1.3-3.5-1.9-3.5-3.4
	c0-1.5-0.7-2.5-1.3-3.7c-0.6-1.2-3.3-2.6-5.9-4.7c-2.6-2.1-4.4-3.1-2.8-3.1c1.6,0,4,1.5,3.5,0.6c-0.4-1-3.4-3.9-4.7-6
	c-1.4-2.1-1.8-4.4-3.2-8c-1.4-3.5-6.5-6.9-9-7.2c-2.5-0.2-3.2-1.4-4-4c-0.9-2.6-1-5.3-2.2-7.3c-1.1-2-6-8.8-6-11.3
	c-0.1-2.6-1.5-10.1,0.3-14.2c1.7-4.2,1.3-13.5,1-15.4c-0.3-1.8-3.4-5.4-3.4-6.8c0-1.4,1.8-0.6,3.2-0.2c1.4,0.4,4.3,1.6,4.3,1.6
	s-2.2-4.2-3.6-5.6c-1.4-1.4-5.4-3.3-7.2-3.7c-1.8-0.4-4.1-1-5.1-2.6c-1-1.5-2-3.5-2.7-4.8c-0.7-1.3-3.6-2.8-4.3-4.2
	c-0.7-1.4-0.5-4-1.5-5.4c-0.9-1.4-2.3-2.2-3.9-1.6c-1.6,0.6-2.1-0.8-3.3-2.8c-1.2-2-3.9-3-4.7-3.2c-0.8-0.2-3.4-3.8-3.6-4.7
	c-0.2-0.9-4.4-5.6-5.8-6.5c-1.4-1-14.7-5.3-15.1-5.3c-0.3,0-4.2,0.6-5.3,0.2c-1-0.3-4.6-3.4-6.4-4c-1.8-0.6-3.1,0.7-4,2.7
	c-0.9,2-5.1,5.5-7.4,7c-2.3,1.5-4.2,1.7-4.1,0.9c0.2-0.8,0.1-2.1,0.9-4c0.8-1.9,1.2-2.5,3.6-3.7c2.4-1.2,2.3-1.3,1.4-1.2
	c-0.9,0.1-1.6-0.2,0.3-1.3c1.9-1.1,2.7-1.3,2.6-2.3c-0.1-1-4.1,1.3-6.7,3.4c-2.6,2.1-4.1,3.5-6.4,7.2c-2.2,3.7,0.3,2.3-1.6,4.7
	c-1.9,2.4-8.4,7.3-10.3,9.2c-1.9,1.9-9.7,6-12.9,6.9c-3.2,1-4.5,1.4-6,2.7c-1.6,1.3-5.4,1.7-4.1,0.8c1.3-0.9,3.7-2.9,5.4-3.9
	c1.6-1,6-2.7,7.3-3.2c1.3-0.5,4.9-2.7,6.7-4.7c1.8-2,3-4.3,4.2-6.3c1.2-1.9,1.5-2.8-1-2c-2.5,0.8-5.1,0.5-6.4,0
	c-1.3-0.5-4.7,1.5-5.9,0.6c-1.2-0.9,0.1-2.7-0.7-3.6c-0.8-0.9-3.4-0.3-5.2-0.6c-1.7-0.3-4.1-1.7-4.1-4.1c0-2.4-1.7-4.5-0.8-6.4
	c1-1.9,2.3-2.3,3.9-3.4c1.5-1,5.9-2.4,6.7-2.4c0.9,0,2.1-0.9,2.8-1.7c0.8-0.8-1.8-3.7-1.8-3.7s0.4-0.3,1.5-1c1-0.6,0.3-2-1.6-1.8
	c-1.8,0.2-5.7,2.1-8.1,2.7c-2.4,0.6-5.7,0.2-5.6-0.8c0.1-1,0.6-1.7-0.3-2.5c-0.9-0.8-1.6-1.7-0.7-2.1c0.9-0.4,6.2-3.4,6.2-3.4
	s1.9,2.1,4,2.3c2.1,0.2,6.5-3.6,6.5-3.6c-2.8-1.7-2.2-2.2-2.2-2.2s-4.5-0.1-5.5-0.7c-1-0.6-1.4-1.9-1.6-3.1c-0.3-1.1-4.7-2-3.4-3.9
	c1.2-1.8,3.4-2.5,4.9-4.3c1.5-1.9,2.8-5.3,7-7.2c4.2-1.9,9.3-3.7,11.6-5.3c2.2-1.6,3.3-0.1,4.1,0.2c0.9,0.2,6.2-0.2,8.3-0.2
	c2.1,0,2.4,2.3,3.1,2.9c0.7,0.6,18.9,1.1,18.9,1.1s15.4,0.2,18.5,1.1c3.1,0.9,8.7,3.2,8.7,3.2C94.8,131.1,94.5,126.9,96.6,126.9
	 M304,33.7c0,0-1.6,6.4-7.8,8.2c-6.2,1.8-17.6,6.8-18.1,7.1c-0.5,0.3,0.7,3.9,2.2,5.6c1.6,1.8,3,3,4.4,4.7c1.4,1.8,3.8,1.6,5.7,3.5
	c1.9,1.9,3.3,1.2,8.4,1.3c5.2,0.1,3.8,0.5,9.6,0.8c5.8,0.3,11.8,0.8,13.8,2.6c2,1.8,4.8,8.7,6.6,12.9c1.8,4.2,5,11.1,5,11.7
	c0,0.6-2,5.7-2,6.5c0,0.8,1,2.2,2,3.3c0.9,1.1,0.4,2,0.3,3.1c-0.2,1,1,3.7,1.2,4c0.2,0.3,2.8-2.6,4.4-3.1c1.6-0.5,5.7,2.9,5.7,5.2
	c0,5.3,1.4,3.5-7.2,9.7c-1.1,0.8-2.2,7.2-1.4,10.2c0.9,3.1,2.9,6.7,4.6,11c1.6,4.3,6.5,10.5,8,13.3c1.6,2.8,2,6.7,5.4,7.6
	c3.4,0.9,6.7,2.1,9.2,2.7c2.5,0.6,4.1,1.4,5.3-1c1.2-2.3,3.6-11.2,5.6-17.6c2-6.4-0.2-8.4,4.5-9.8c4.7-1.4,12.1-4.3,14.1-5.2
	c2-0.9,1.6-7.2,6-9.3c4.4-2.1,5-1.9,9.3-3.3c4.3-1.4,10.4-4.1,14.7-7.2c4.3-3.1,5.5-1.4,7.1-4.3c1.6-2.8-1.6-6.9-1.9-11.1
	c-0.3-4.2,1.4-4.4,2.2-8.2c0.9-3.8,1.3-6.3,4.7-8.8c3.4-2.6,5.2-4,4.6-6.4c-0.6-2.4-2.3-6-2.3-8.7c0-2.7,0.6-1.1-0.8-4.8
	c-1.4-3.7-1.4-4.2-0.1-7.6c1.3-3.5,4.7-2.6,4.5-4.1c-0.3-1.5-5.5-3.9-5.6-8.1c-0.1-4.3,0.9-5.5,1.8-6.6c0.9-1,9.7-8,10.3-8.7
	c0.6-0.6-0.2-2.4,4.1-4.5c4.3-2.1,5.8-3.5,7.4-4.1c1.6-0.6,4.2-0.6-0.8-2c-5-1.4-6.1-2.1-9.4-1.7c-3.3,0.4-4.4,2.3-10.3,2.8
	c-5.9,0.6-12.5,3.3-12.5,3.3s2-1.8,0.3-3.5c-1.7-1.7,4.5-7.2,5.5-7.9c1-0.6-8.1-2.9-12.9-3.8c-4.7-0.9-14.1-3.7-19.4-3.3
	c-5.4,0.4-13.2,0.3-15.9,1.2c-2.7,0.9-2.3,4.3-5.3,4.5c-3,0.2-8.6-1.8-12.9-1.1c-4.3,0.6-11.2,3.6-12,3.8c-0.8,0.2,2.7,2.3,4.9,2.7
	c2.2,0.5,5.2,5.1,5.2,5.1s-6-2-12.2-3.7c-6.1-1.7-13.3,0-15.8,0.7c-2.5,0.7-5.8,2.1-10.8,2.3c-5,0.2-10.7,4.3-13.5,6.3
	c-2.8,1.9-11.7,7.1-14,8.3c-2.2,1.2-1.4,1.8,1,2.4C301.4,33.2,304,33.7,304,33.7 M176.2,100.1c0.7,2.9,0.7,7.2-0.9,5.4
	c-1.6-1.8-2.9-5.5-5.5-4c-2.6,1.5-5.4,1.1-4.9,0.8c0.5-0.3-0.1-1.9-1.4-2.4c-1.3-0.5-2.1,0.3-3.5,1.1c-1.4,0.8-5.7,1.9-4,0.5
	s1.2-2.1,0.6-3.8c-0.6-1.6-5.2,1.1-7.6,2.8c-2.4,1.7-3.8,4.3-5.3,6.1c-1.4,1.8-0.4,2.9,1.8,3.5c2.2,0.6,5.7,1.1,2.8,2.1
	c-2.9,1.1-5.2,1.8-3.7,2.7c1.5,0.9,4.1,1.1,6.7,0.8c2.6-0.3,4.8-1,8.9,0.1c4.1,1.1,6.6,1.1,6.6,1.1s-1.6,1-4.3,1.4
	c-2.8,0.5-7.8,0-10.4,0.5c-2.6,0.5-6.7,1.2-5.6,2.1c1,1,1.8,2.5,5.4,3.6c3.6,1.1,4.2,0.1,6.3,0.6c2.1,0.5,1,3,1.6,3.3
	c0.6,0.4,4.6-0.3,8.6-1.1c4-0.8,2.5-1.4,5.7-2.2c3.2-0.8,3.3-3.2,5.1-3.8c1.8-0.5,0.5,1.2,2.7,1.8c2.2,0.5,1,0.7,3.3,1.1
	c2.4,0.4,1.9,1.3,4.2,1.1c2.3-0.2,5-1.7,4.7-2c-0.3-0.3-0.7-1-0.5-2c0.2-1.1-2.3,0.2-3.2,0.8c-0.9,0.5-0.9-1.4,1.1-2.4
	c2-1,3.7,0,4.8,0c1.1,0,0.1-3.3-2-3.9c-2.1-0.5-3-1.8-6.1-3.5c-3.1-1.7-1.5-2.5-2.4-4.7c-0.9-2.3-2.9-8.9-4.6-10.1
	c-1.7-1.2-3.6-0.9-5.3-2C175.9,95.5,175.5,97.2,176.2,100.1 M128.5,95.6c0.7,2.1,0.9,0.8-0.6,3.2c-1.5,2.4-0.6,3.2-1.7,5
	c-1,1.8-3.8,4.1-2.9,5.3c0.9,1.2,3.6,1.9,4.8,2.8c1.1,0.9,2.3,2.8,4.4,2.1c2.1-0.7,2.8-1.2,4.2-1.9s2.6-1.6,2.6-3.5
	c-0.1-1.9-0.1-2.8,0.5-2.6c0.6,0.2,1.5,1,1.9-0.2c0.5-1.2,1.3-2.8,2.2-3.8c1-1,3.8-1.9,5.1-3.1c1.3-1.1,3.6-2.4,4.2-3.3
	c0.6-1-1.1-1.7-2.2-2.1c-1.1-0.4-2.4-2.1-4.9-2.1c-2.5,0-3.9,1.9-3.8,1.1c0.1-0.9-1.7-1.3-2.8-1.7c-1-0.4-2-1-5.3-0.6
	c-3.3,0.4-4.6,0.6-7.2,1.3C124.7,92,127.7,93.4,128.5,95.6 M203.3,121.2c-0.3,0.5-1.8,1-2.8,2c-0.9,1.1,2,0.5,2.9,0.8
	c0.9,0.3,1.6,1.2,2.4,1.5c0.7,0.3,4.8,0.4,6.4-0.4c1.7-0.8,1.8-1.1,1.7-1.4c-0.2-0.4-3.4-3.6-5.9-4.9c-2.4-1.3-2.5-1.3-3-1
	C204.5,118.2,203.7,120.8,203.3,121.2 M192.5,96.2c-1.6,0.8-2.7,1.7-0.1,3.1c2.6,1.3,3.5,2.5,5.3,3.6c1.8,1.1,2.5,4.3,6.3,2.9
	c3.7-1.4,5.2-3.2,5.8-4.7c0.5-1.5-0.5-1.8-1.4-3.2c-0.9-1.4-1.1-2-3.1-1.8c-1.9,0.2-2.5,0.2-2.5,0.2s1.3-1.6,3.3-2.6
	c2.1-1,0.3-1.7,1.3-2.7c1-1-2.5-1.4-4-1.1c-1.5,0.4-1.6-0.1-4-0.2c-2.5-0.1-6.4,2.1-6.2,2.9c0.2,0.8,2,0.5,3.7,1.4
	c1.7,1,2.2,0.9,0.5,3.6c-1.7,2.7-2.6-0.6-3.2-1.1C193.6,96.2,194.1,95.3,192.5,96.2 M181.4,91.2c-2.6,0.2-3.5,2-2.5,2.3
	c1,0.3,1.6-0.3,3.2,1.4c1.6,1.7,2.9,2.6,3.6-0.2C186.3,92,185.4,90.8,181.4,91.2 M139.9,70.5c-2.9,2.3-3.4,4.1-5.7,5.6
	c-2.2,1.4-1.7,2.7-1,3.5c0.7,0.8,3-0.1,4-0.6c1-0.5,1.9-1.9,2.5-1.1c0.6,0.8,3.3-2.7,4.3-3.9c1-1.2,2.6-2.4,2.9-2.4
	c0.3,0.1-1,1.4-0.5,2.5c0.5,1.1,2.5,1.2,4.4-0.8c1.8-1.9,0.2-3.7,1.6-5.2c1.4-1.5,2.6-1.3-0.2-2.6c-2.8-1.3-4.6,0.2-5.2,0.9
	C146.6,67.1,145.6,66,139.9,70.5 M157.5,74.1c-1.6,0.1-2.4,0.3-5.1,1.5c-2.7,1.2-3.9,4.2-4.5,5.9c-0.6,1.7,0.3,1.7,2.8,2.6
	c2.5,1,5.9-0.3,6.7-2.6c0.8-2.3,1.8,0.5,1.3,1.7c-0.5,1.2,1.7,0.1,2.8-0.4c1-0.5,4.1-0.8,4.4-0.8c0.2,0-2.5,2.1-5.2,3
	c-2.7,0.9-4.9,1.4-5.6,1.5c-0.7,0.1,0.7,1.2,3.9,1.9c3.2,0.6,5.1-1.9,9.6-3.6c4.5-1.7,4.3-2,5.8-1.6c1.5,0.4,3.1-0.8,4.9-1.2
	c1.8-0.4,2.6,0.3,3.4-2.5c0.8-2.7,2.2-5.4-0.3-5.5c-2.6-0.2-2.8-0.2-3.1,2.8c-0.3,2.9-0.6,1.1-0.6,1.1s-1.7-2.6-2.8-3.9
	c-1-1.3-1.8-3.4-2.9-4.6c-1.1-1.1-1.7,0.5-3.5,2.5c-1.8,2-0.3,2.7,1.4,3.6c1.8,0.9,3,3.1,2.2,3.6c-0.9,0.6-1.8-0.1-5.1,0.3
	c-3.3,0.4-3.2-1-4.1-1.4c-0.9-0.4,1.6-1.3-2-2.8C158.4,73.8,158.6,74.1,157.5,74.1 M146.8,76.9c0.4-0.6-4.4,2.8-5.1,3.9
	c-0.7,1.1,0.7,0.9,2.2,0.9C145.3,81.6,145.6,79,146.8,76.9 M155.9,69.8c-1.2,0.5-1.2,0.9,0.7,1.2c1.9,0.2,3.1-0.6,2.6-1.4
	C158.9,68.7,156.9,69.4,155.9,69.8 M165.7,59.6c-1.3,0.2-5,1.5-5.2,2.2c-0.2,0.6,0,2,0.6,3.1c0.6,1.1,0.8,1.3,4,0.4
	c3.2-0.9,5.4-2.5,4.4-2.8c-1.1-0.3-1.7-0.8-2.7-0.9c-1-0.1,0.8-0.6,3-1.3C171.9,59.6,172.6,58.5,165.7,59.6 M154.8,61.3
	c-0.9,0.4-1.2,0.4,0.7,1.2c1.9,0.7,3.9,0.7,3.7,0.1C158.9,62,157.4,60.1,154.8,61.3 M162.2,56c-1.8,0.7-2.2,2-2.6,2.5
	c-0.4,0.5,2-0.4,3.2-0.6c1.1-0.3,1.4,0.4,2.5-0.6c1.1-1,3.2,0,5.2-0.4c2-0.4,2.3-1.7,1.8-2.8C171.9,53,167.4,54,162.2,56
	 M181.7,60.9c-0.5,0.3-0.3,1.1,0.1,2.1c0.5,1,0.6,0.8,1.6,1.1c1,0.4,1.9,1.2,2.2,1.4c0.2,0.2,0.4,0.3,0.8-0.6c0.4-1-0.2-0.8-1.3-2.1
	C184,61.5,183.1,60.2,181.7,60.9 M188.4,69.3c-1.5-0.4-2.3,0.5-2.9,0.7c-0.5,0.3,0.3,0.9,0.7,2c0.4,1.2,0.1,1.5,2.2,1.7
	c2.2,0.2,2.8-0.2,3-1.6C191.6,70.7,189.7,69.7,188.4,69.3 M196.8,71.8c-1.4-1-2-1.8-3.4-1.2c-1.4,0.6-0.2,1.3-0.2,1.6
	c0,0.4,1.7-0.1,1.7,0.9c0,0.9,0.5,1.3-1.5,1.4c-2,0.1-2.6,0-3.3,0.6c-0.8,0.6,1.5-0.1,2.2,0.8c0.7,0.9,1.9,1,3.8,0.7
	c1.9-0.3,4.5-0.7,4.5-0.7s-1.4,1.3-2,2.3c-0.6,0.9-0.8,2.3,0.2,2.9c1,0.7,1.1-0.7,3.9-0.8c2.8-0.1,3.6-1.5,3.6-1.5s-0.6-0.6-0.5-2
	c0.1-1.4,0-1.7,0-1.7s1.1,0.8,1.4,1.1c0,0-0.2-0.8-0.6-2.3c-0.4-1.5-0.1-1.6-0.5-3.6c-0.4-2-0.3-2.5-2.4-2.4
	c-2.1,0.1-3.5,0.8-5.3,0.8c-1.7,0-2.5,0.3-1.2,1c1.3,0.6,1.4,1.4,2,2.1c0.6,0.7,0.5,2.5,0.5,2.4C199.7,74.1,196.8,71.8,196.8,71.8
	 M186.3,79.5C186.3,79.5,186.3,79.5,186.3,79.5c-1,0.5-1.3,1.4-1.3,2.1c-0.1,0.7,1.2,0.3,3.1-0.4C190,80.5,189.1,78.6,186.3,79.5
	 M213.5,75.8c-1.6,0.9-2.9,2-3.8,3.1c-0.9,1-0.1,1.2,2.3,2.4c2.4,1.2,4.9,1.4,6.1,0.2C219.1,80.2,217.5,73.6,213.5,75.8 M224.6,66.5
	c-3.1,0.3-2.1,0.8-5.6-0.4c-3.5-1.2-8-1.3-9.2-1.3c-1.2,0-0.6,0.6,0.6,2.6c1.2,2,1.6,2.8,4.2,2.1c2.6-0.6,4.7-1.1,6.6,1.6
	c1.9,2.7,2.9,3.6,1.3,4.6c-1.6,1-0.8,2.6,0.1,4.7c0.9,2.1,3,2,5.9,2c2.9,0,21.2-0.3,24-0.8c2.8-0.5,5.4-2.9,6.9-4
	c1.5-1.1,2.3-2.8,0.3-4c-2.1-1.2-5-2.4-7.3-2.4c-2.3,0-4.3,1.2-7.9,1.6c-3.5,0.4-2.8,2.1-5.9,2.1c-3.2,0.1-1.6,1.5-5.6-0.1
	c-3.9-1.6-6.8-3.6-5-3.9c1.9-0.3,3.4-0.5,2.3-1.4C229.2,68.6,227.4,66.2,224.6,66.5 M188,51.5c1.9,0.6,2.4,1.1,0.3,1.7
	c-2.1,0.6-3.8,2.1-1.6,1.8c2.1-0.3,3.9,0.2,6.6,0.6c2.7,0.4,2.5,0.2,3.7,1.7c1.2,1.5,2.5,1.5,4.4,1.1c1.8-0.4,2.1-0.6,0.9-1.9
	c-1.2-1.3-2.5-3.8-4.1-4.7c-1.6-1-3-2.3-4.7-2.2c-1.6,0.2-2,0.2-3.5-1.7c-1.4-1.9-2.5-1-4.6-0.5c-2.1,0.5-2.7,2-3.5,2.7
	C180.3,51.3,186.1,50.9,188,51.5 M212.9,31.8c-2.2,2.8-4.1,5.2-1.5,5.5c2.5,0.3,3.7-0.2,3.8,0.6c0.2,0.8-0.4,1.4-4.2,1.4
	c-3.8,0-2.6,0.8-0.5,3.3c2.1,2.5,2.3,1.6,5.6,1.6c3.2-0.1,4.3-1.2,7-0.6c2.7,0.7,3.5,1.4,1.1,2.1c-2.4,0.7-8.1,2.1-6.8,3.3
	c1.3,1.2,5.3,4.1,7.1,4.4c1.8,0.3,2.2-1.2,6.1-0.8c3.9,0.4,3,0.8,3.4-0.2c0.4-1.1,2.6-3.9,3-4.9c0.4-1,1.5-1.6,3.7-2.1
	c2.2-0.5,2.8-1.2,0.8-1.9c-2-0.7-4.3-1-4.1-1.6c0.2-0.6,1.5-2.2,0.6-3.1c-0.9-0.8-2.2-0.8-3.4-1.2c-1.1-0.4-2.4-2.5-3.8-3.4
	c-1.4-0.9-2.7-1-4.4-2.3c-1.7-1.3-4.5-4.6-7.9-4.4C216.1,27.6,215.1,29,212.9,31.8 M208.5,55.3c-0.9,0.4-3,0.5-1.4,1.8
	c1.6,1.3,1.2,1.4,3.2,0.6c2-0.8,5-2.7,5.2-3.2c0.3-0.6-2-1.6-3.6-2.1c-1.5-0.5-2.6-1.7-5.9-2.6C201.3,48.5,209.3,54.9,208.5,55.3
	 M314,13.5c-3.6-1-16.3-3.4-20.5-2.5c-4.1,1-3.9-2.1-9.7-1.4c-5.7,0.8-14.6,0.3-17.4,0.8c-2.8,0.4,1.4,1.6,2.9,2.6
	c1.5,1-7.1-1.1-13.7,0.8c-6.6,1.8-10.8,2.8-3.8,5.5c7,2.7,7.9,3.4,7.9,3.4s-9-1.6-12.8-3.1c-3.8-1.5-1.7-1.4-8.9,0.6
	c-7.1,2-14,3.1-13.7,5.3c0.3,2.1,5.8,5,9.3,5.8c3.6,0.8,10.9-1.1,11.5-1.3c0.6-0.2-2.9,2.9-2.9,2.9s3.7-0.8,7.8-1.8
	c4.1-1.1,7.4-2.3,11.3-3.6c3.9-1.4,4.6-1.8,4.6-1.8s-6.8,5.3-11.5,7.1c-4.7,1.8-10.8,3-13.7,3.1c-2.9,0.1-2.4,1.9,0.5,3.4
	c2.9,1.5,5.1,4.7,6.6,5.8c1.5,1.1,1.7,2.8,1.7,2.8s-4.5-3.5-9.4,0c-4.9,3.5-4.3,5.4-3,5.8c1.3,0.4,5.6,0.9,6.4,2.4
	c0.8,1.5,6.6-1.4,6.6-1.4s-2.9,3.6-5.6,3.6c-2.8,0-2.6-2.4-6.7-1.9c-4,0.4-3.8,1.4-2.1,2.8c1.7,1.4,3.1,1.8,0.1,3.2
	c-3,1.4-4.4,1.8-4.5,3.5c-0.1,1.7,3.9,1.7,6.4,1.7c2.5,0,4.9-0.2,9.5-0.3c4.6-0.1,4-1.6,5.7-1.6c1.7,0,3.4,0.5,2.8,2.3
	c-0.7,1.7,0.7,0.6,5.7-1.2c5.1-1.8,2.8-4.6,2.4-5.6c-0.3-1-2.2-1.3-3.3-1.8c-1.2-0.5,3.4-5.3,2.8-6.9c-0.7-1.6,5.6-0.3,8.5-4.1
	c2.9-3.8,1.8-6.5-0.2-7.2c-2.1-0.6,3.8-0.2,5.6-1.3c1.8-1.1,5.9-2.4,7.5-4.4c1.6-2,2.2-2.8-1.7-2.4c-3.9,0.4,5.6-1.7,10.2-4.7
	c4.6-3,9.9-6.5,11-7.4c1.2-0.9,2.2-0.4-3.2-0.1c-5.4,0.3-11.8-0.4-8.3-0.9c3.6-0.4,14.1-1.7,16.9-3.8C312.7,14.1,314,13.5,314,13.5
	 M249.6,87.9c-5.8-0.5-14.1-1.9-15.9,3c-1.7,4.9-4.4,15.9-4.6,17.9c-0.2,2,6.9,5,11.8,5.3c4.9,0.2,13,0.5,11.4-0.6
	c-1.6-1.2-0.2-1.8,4.4-1.6c4.6,0.2,5.1-1,5.1-1.9c0-1,0.8,1.2,4,2.9c3.2,1.7,6,6.5,8.9,9.3c2.9,2.8,9.3,6.5,8.1,8.7
	c-1.3,2.1,1.4,9.6-8.5,11.4c-9.9,1.7-10.5,0.5-10.3,2.8c0.1,2.3,0.6,3.2,4.5,3.2c3.9,0,9.3-3.2,11.2-0.9c1.8,2.4,4.4,3.2,6,3.8
	c1.6,0.5-2,1.5-2.9,1.8c-0.9,0.3,2,0.6,7.6,3.3c5.6,2.7,12.4,3,9.1,1.1c-3.3-1.9-4.9-5.5-6.4-6.6c-1.5-1.2-0.1-0.2,2.5,0.4
	c2.6,0.6,5.1,2.8,6.2,3.8c1.1,1,1.7-0.3,2.5-4.1c0.8-3.8-0.3-3.8-4.8-6.8c-4.5-3-5.9-5.4-6.3-7.5c-0.5-2.1,2.3-2.6,3.5-4.1
	c1.1-1.5,4.4,2.7,6.6,5.1c2.2,2.5,4,6.8,5.7,3.6c1.7-3.1,3.3-10.1,3.3-11.7c0-1.6-1.7,0.1-9.1-3.5c-7.4-3.6-11.2-5-11.8-5
	c-0.7,0,2-1.4,5.2-3c3.2-1.6,4.6-1.4-2.3-7.9c-6.9-6.5-8.9-7.9-13.3-8.4c-4.5-0.4-5.7-5.1-9-6.8c-3.2-1.6-10.7,1.9-12.9,2.5
	c-2.2,0.5-1.5,1.4-4.3-2.6C251.8,90.8,249.6,87.9,249.6,87.9 M254.7,87.9c-2.9,0.3,1.7,5.6,5.4,5.8c3.7,0.2,6.8-1.6,7.6-1.8
	C268.5,91.6,259.2,87.4,254.7,87.9 M241.8,141.1c-0.5,1.2-1.6,4.4-1.8,6.6c-0.2,2.2-0.5,2.5-0.9,3.9c-0.4,1.4,1.4-0.2,2.6,1.8
	c1.2,2,0.7,2.6,2.8,0.2c2.2-2.3,4.6-3.1,7.6-2.2c3,1,5.4,1.4,4.3-0.5c-1-1.9-2.4-1.7-4.5-4.2c-2.1-2.5-3.6-3.1-6.2-4.1
	C243.1,141.6,242.9,138.6,241.8,141.1 M263.5,328.9c-0.9-1.9-2.2-4.9-7.8-5.9c-5.6-1-7.5,1-9.5,1.7c-2.1,0.7,1.9,1,4.6,0
	c2.7-1,4.7-0.2,5.1,0.3c0.4,0.5-0.9,0.8-1.4,0.3c-0.5-0.5-0.5,1.2,2.5,2.3c3,1.1,3.7,1.6,4,2.9c0.3,1.3,0.3,2,1,3.1
	c0.7,1.1,0.9,1.5-0.3,2c-1.3,0.5-0.8,0.4,0.1,1c0.9,0.6,2.8,1.5,5.4,1.8c2.6,0.2,3.5,0.7,1.7-1.7C267,334.2,263.8,329.5,263.5,328.9
	 M271.9,340.7c1.5,1.5,1,3.1,0.9,4c-0.1,0.9-1.7,0.2-4.6-0.6c-2.9-0.8-2.4-0.4,0.1,1c2.5,1.4,4.1,1,4,2.8c-0.1,1.8,2.3,0.2,3.4-0.9
	c1.1-1,1-0.1,5.5,0.6c4.5,0.7,5.4,1.5,4.7-0.5c-0.7-2,2-1.8-1.9-3.7C280,341.6,270.2,339,271.9,340.7 M259.2,341.8
	c-1.7-1.9-3.8-2.1-3.8-0.5c0,1.6,0.6,1.5,2.1,1.9C259.1,343.6,260.3,343,259.2,341.8 M291.6,349.9c-1.8-0.6-2.2,0.7-1,1.9
	c1.2,1.1,3.1,0.8,4.9,0.7C297.3,352.4,294.8,351,291.6,349.9 M270.6,125.5c-2.4,1-3.8,1.7-1.7,4.5c2.1,2.8,3.4,4.5,4.2,2.5
	C273.9,130.5,274.7,123.8,270.6,125.5 M251.2,155.3c-3.6,0.6-4.8,0.7-4.3,2.7c0.6,2,1.6,1.7,4,0.5
	C253.5,157.3,255.2,154.6,251.2,155.3 M258.8,158.4c-0.6,0.2-0.8,1.6,0,2.9c0.8,1.3,2.4-0.4,3-2
	C262.6,157.7,261.1,157.7,258.8,158.4 M219,59.4c-3.4,0.1-8.6,1.3-5.7,1.4c2.9,0.1,5.2,0.6,9.9,0.4c4.7-0.3,5.1-0.6,5.2-2.8
	C228.5,56.1,225.4,59.2,219,59.4 M197.5,40.5c-3.5,1.1-2.6,1.8,1.5,3.6c4.1,1.8,4.3,1,3.8-2.5C202.3,38.3,199.5,39.9,197.5,40.5
	 M443.2,130.2c-4.4,1.2-5.8,0.5-6.6,2.7c-0.8,2.2-2.5,1-3.5,1.3c-1,0.3-2.4,6.4-3.1,5.5c-0.7-0.9-0.9-1.4-1.9-3.5
	c-1-2.1,0.3-1.7-1.6-4c-1.9-2.2-5.7-2-6-1.1s2.6,1.7,1.6,2.7c-1,1-3.3,2.3-4.2,3.1c-0.9,0.7,1.7,0.4,3.3,0c1.6-0.4,2.7,1.2,3.4,2.4
	c0.7,1.1-0.7,2.3-1.5,2.8c-0.7,0.6,2.4,0.4,3.6,0.6c1.2,0.2,1.9,1.3,1,2.7c-0.8,1.4,3.7,0.2,6.1,0.1c2.5-0.1,3.1,1.7,6.9,0.5
	c3.8-1.2,5.6-1.1,9-3.6c3.4-2.5,3.2-1.9,5.4-3.6c2.3-1.6,1.7-2.1,1.8-4c0.1-1.8,1.5,0.5,1-2.2c-0.5-2.7-3.3-2-5.3-2.2
	c-2-0.2-1.9-1.8-2.9-2.2C449,127.7,447.7,129,443.2,130.2 M734.3,366.4c-0.2,0.7-0.5,1.4-0.5,2.8c0,1.4-0.2,3-0.1,4.5
	c0.1,1.4,0.2,2.5,1,2.8c0.8,0.3,1.4,0.6,2.7,0c1.3-0.6,2.6-1.7,1.9-3.4c-0.7-1.7-1.9-3.9-2.6-5.2
	C736.1,366.7,734.7,365.2,734.3,366.4 M733.3,364.4c0.1,0.6,0.3,0.5,0.6,0.9c0.3,0.4,0.6,0.1,0.2-0.5c-0.4-0.6-0.4-0.6-0.4-0.6
	s-0.5-0.2-0.5,0.3 M857.4,450c0,0.1-0.1,0.1-0.1,0.2c-2.4,2.4-4.5,1.7-8.6,3c-4.1,1.3-11.3,5.5-11.8,7.3c-0.5,1.9,0,2.1-0.5,1.9
	c-0.5-0.2-1.4-1.4-1.4-1.4s-1.1,2.3-0.9,4.3c0.3,2,1.2,3.2,1.1,5.8c-0.1,2.6-1,4.1-0.9,5.9c0.1,1.8,3,5.1,3.8,7.2
	c0.8,2.1,1.3,1.5,1.7,5.3c0.4,3.8,2.4,5.9,0.4,7.9c-2,2-3.4,1.6-1,3.7c2.4,2.1,4.4,3.5,8.3,2.1c3.9-1.4,2.8-2.6,5.9-3.2
	c3-0.6,3.6-1.3,6.2-1.4c2.6-0.2,4.4,0.1,5.4-1.8c0.9-1.9,0.3-1.8,2.8-3.1c2.6-1.3,2.3-1.6,4.1-1.9c1.7-0.3,2.8,0.9,5.2-1
	c2.3-1.8,0.6-2,5.8-2c5.2,0,7.3,0.7,9.2,1.4c1.9,0.6,5,2.3,5.8,3.5c0.8,1.2,1.8,2.7,2.2,2.7c0.3,0,0.8,0.1,2-1.1
	c1.2-1.2,4.7-3.6,4.7-3.6s-0.2,2.6-0.9,3.5c-0.8,1-0.8,2.3-0.8,2.8c0,0.5,2-1.5,2.2-1.6c0.3-0.1,0.5,3.5,0.8,3.9
	c0.3,0.3,1,0.2,1.8,1.2c0.8,1,1.8,1.9,2.6,3.9c0.8,2,4.1,4,6.1,4.3c2.1,0.3,3.9,0.2,5.4-0.1c1.6-0.2,1.6-2.1,3.3-1.4
	c1.6,0.7-0.1,2.3,3.8,1.9c3.9-0.3,4.9-1.6,6.5-2.7c1.5-1,1.7,1.4,3.7-1.3c2-2.7,2.3-2.1,2.7-5.4c0.3-3.3,0.3-3.9,2.2-7.1
	c1.9-3.1,2.3-1.6,3.6-6.2c1.3-4.6,2.9-8.9,2.8-12.7c-0.2-3.8,0.1-1.3-0.8-5.5c-0.9-4.3-0.3-3.8-3-5.5c-2.8-1.8-3.4-1.3-4.1-3.8
	c-0.7-2.5,0.2-3.2-1.1-3.2c-1.3,0-2.4,0.6-3.2-1.1c-0.8-1.7-0.7-2.3-2.2-3.9c-1.5-1.6-2.8-1.3-5.5-2.5c-2.7-1.2-1.3-1.5-1.3-3.6
	c0-2.1,0.2-4.3-2-5.3c-2.1-1-0.9,0.5-0.9-2.9c0-3.4,0-2.9-1.7-3.5c-1.7-0.6-2.3-0.5-3.4-2.6c-1.1-2.1-2.5-5.5-3-6.9
	c-0.5-1.4-1.1,0.2-1.8,1.2c-0.7,1-1.7,3.3-1.7,5.4s0.9,3.3,0.9,6.1c0,2.8-2,5.6-3.2,7.2c-1.2,1.6-2.2,0.2-3.2-0.3
	c-1-0.4-1.3-2-3.4-3.1c-2.2-1.1-6.2-2-8-3.7c-1.8-1.7-0.6-1.7,0-3.4c0.6-1.7,1.4-3.1,2.8-4.2c1.4-1.1,1-1.6-0.7-2.5
	c-1.7-1-4.1-1-7.1-1c-2.9,0-4.7-0.2-4.5,1.4c0.2,1.7,1.9,2.3-0.6,1.8c-2.5-0.5-4.6-0.7-5.7,0.5c-1.1,1.2-1.3,1.9-2,4.4
	c-0.6,2.5,0.2,2.7-0.9,2.7s-5.1-2-6.5-2.6c-1.4-0.6-2.1-0.5-3.7,1c-1.6,1.5-7.2,6.4-9.3,7.6C859.4,443.7,859.5,443.4,857.4,450
	 M780.7,377.5c-1.2-0.2-1.9-0.5-0.4,1.4c1.5,1.9,1.9,2.3,3.3,3.6c1.4,1.3,2-1,3,1.6c1.1,2.6,0.7,2.6,1.8,3.6c1.1,1,2,1.2,2.3,2.2
	c0.3,1,0.6,2.5,1.9,3.5c1.3,1.1,1.3,0.9,2,3c0.7,2.1,1.9,3.6,2.5,5.4c0.6,1.8,3.9,3.4,5.5,5.6c1.7,2.1,4.5,5.3,5,4.4s1.7,0,2.5-0.3
	c0.9-0.3,1.1-1.6,1.7-4.6c0.6-3-0.5-4.4-1.3-5.1c-0.8-0.7-2.3-0.9-2.7-1.5c-0.4-0.6-1.1-2.8-2.1-3.5c-1-0.7-1.2,0-1.2-1.7
	c0-1.7,1.1-1.6-0.3-2.5c-1.4-1-1.6-1.7-2.1-2.1c-0.5-0.5-3.6-1.2-4.4-2.1c-0.8-0.9-4.2-2.4-5.8-4c-1.6-1.6-3.4-2.9-3.9-4.1
	C787.6,379.2,786,378.2,780.7,377.5 M814.2,412.1c-1.4,0-2.1-0.8-3,0.9c-0.9,1.7-0.8,1.7,0.6,1.7s1.1,0.8,1.1,1
	c-0.1,0.2-0.7-0.2,2.2,1c2.9,1.2,5,0.7,5.8,0.3c0.8-0.4,1.1,1.1,5.1,1.7c4,0.6,6.1-0.4,8.7,0.3c2.6,0.6,2-0.3,0.1-1.7
	c-1.8-1.4-1.7-0.6-3.5-2c-1.8-1.3-4.4-1.4-5.6-1.6c-1.2-0.2,1,1.3-2.6,0.8c-3.7-0.5-2.4,0.3-4.3-0.9c-1.9-1.2-1.9-1.4-3.2-1.7
	C814.5,411.6,814.2,412.1,814.2,412.1 M843.4,418c-1,0.3-3.2,0.9-2.2,1.3c1,0.4,0.2,0.7,3.3,0.4c3-0.3,5.7-0.6,6.1-1.3
	c0.4-0.6-0.5-0.2-1.8-0.6c-1.3-0.4-1.1,0.3-2.9,0.5C844.2,418.6,843.4,418,843.4,418 M854.1,417.8c-2,0.2-1.8,0.7-0.2,1.2
	c1.6,0.5,3.1,0.7,4.3,0.4c1.2-0.3,1.4-0.6,3.6-1c2.2-0.4,3-0.3,4.8-0.5l1.8-0.2c0,0-0.2-0.4-1.4-0.3s-2.1,0.1-3.3,0.1
	s-3.3,1.1-4.1,1c-0.9-0.1-2.5-0.6-2.9-0.3C856.3,418.3,856.3,417.5,854.1,417.8 M865.6,420.4C865.5,420.4,865.5,420.4,865.6,420.4
	c-1.5,1-1.6,1.3-1.4,2.1c0.1,0.8-0.2,1.1-0.2,1.1s2.1-0.1,3.7-1.7c1.6-1.6,1.7-1.6,3.3-2.2c1.6-0.6,3.5-2.4,3.5-2.4
	s-1.3,0.3-2.7,0.2c-1.4-0.1-2.8,0.7-3.3,1.1C868,419,868.9,419.1,865.6,420.4 M853.6,421.3c-1.5-1.1-3-0.9-3.1-0.3
	c-0.1,0.7-1.3,0.6,0.8,1.4c2.1,0.8,4.1,1.8,4,0.7C855.1,422.1,854.2,421.7,853.6,421.3 M839.8,376.6c-0.9,1.2,0.8,0.9-0.5,2
	c-1.3,1.1-2.2,0.6-3.5,2.2c-1.3,1.6-3.2,2.7-4,3.3c-0.8,0.6-3.4,1.3-4.5,2.8c-1.1,1.6,0.4,2.4,0.4,2.4s-0.7,0.3-2.5-0.4
	c-1.8-0.7-2-1.6-2-1.6s-1.3-0.1-2.1,1.9c-0.8,2-1.2,2.2,0.2,3.4c1.3,1.2-0.9,1.2-0.6,2c0.3,0.8,0.3,2.3,1.1,2.5c0.8,0.2,1-0.8,2,0.5
	c1,1.2,0.2,4.7,1.4,4.9c1.3,0.2,2.2-0.4,3.3,0.1c1.1,0.5,1.9,0.9,3.3,0.4c1.4-0.5,3,0,3.7,0.4c0.7,0.4,3.4,1.3,4.8,1.2
	c1.3-0.1,1.5,0.2,1.8-1.7c0.2-1.9,0.1-3.6,1.7-5.1c1.6-1.5,1.7-1.5,1.8-2.8c0.1-1.3,0.1-2.7,1.1-4.1c1-1.4,1.6,0.8,2.1-0.3
	c0.5-1.1,1-1.1,0.7-1.6c-0.3-0.5-1.8-0.5-2.4-1.6c-0.6-1,0.2-1.6-0.5-3.6c-0.7-2.1-1.1-1.3-0.1-2.5c1-1.2,1.8-1.4,1.9-2.3
	c0.1-0.9,0.5-1,1.7-1.8c1.2-0.9-0.2-0.5-1.3-1.3c-1.1-0.9-3.3-4.1-4.6-4C843.4,372.1,840.7,375.3,839.8,376.6 M1009.7,490.4
	c-0.6-0.4-1-0.1,0.2,1.4c1.3,1.5,1.4,1.1,2.2,1.1c0.8,0.1,1.5,3,1.9,3.8c0.5,0.8,1.3,1.7,1.3,1.7s0.5,3.2,0.1,4.7
	c-0.4,1.4-1.3,2.1-1.5,3.4c-0.3,1.3,1.3,1,2.4,1.4c1,0.4,0.9,0.4,0.5,1.6c-0.4,1.2-1.6,1.7-1.6,1.9s2.4,1.6,3.6,0.1
	c1.2-1.4,3.1-3.6,3.6-5.1c0.5-1.6-0.9-0.9,0.7-2c1.7-1.1,1.4-0.6,2.3-2c0.9-1.4,1.8-2.8,0.8-3.6c-1-0.8-2.1,0.9-2.9,1.2
	c-0.9,0.3-1.5,0.4-2.8-0.2c-1.2-0.6-1.4-0.6-1.9-1.7c-0.5-1.1-1-1.7-1-1.7s-0.3,1.8-1.2,1.2c-0.9-0.6-0.6-1.2-1.3-2.3
	c-0.6-1-0.6-1.3-1-2.1c-0.4-0.7-0.1-2.2-2.1-2.4C1010,490.7,1010.2,490.7,1009.7,490.4 M1010.1,509.8c0,0-1.6,1.4-3,3.4
	c-1.4,2-1.7,2.7-2.1,3.8c-0.5,1.1-2.1,2.4-4.9,3.8c-2.8,1.4-3.8,2-4.7,3.4c-0.9,1.3-4.2,5.5-4.6,6c-0.4,0.5,1.5,1,3.6,1
	c2,0,5.2,1.8,6.9-0.1c1.7-1.9,3.5-6.3,4.5-7.9c1.1-1.6,2.1-2.2,3.9-3.8c1.7-1.6,4.6-4.4,4.6-5.6c0-1.1-0.7-3-0.7-3s-0.6,1.2-2.1,1.1
	C1009.8,511.8,1010.1,509.8,1010.1,509.8 M996.5,530.4c-2-1.1-2.4,0.9-2.7,3c-0.3,2,0.9,0.3,2.6-0.6
	C998.2,531.8,997.3,530.8,996.5,530.4 M928.1,516.4c-2.3-0.8-1.9,1.4-1.6,3s0.8,2.9,1.7,4.2c0.9,1.3,4.1,1.8,5.4,1.2
	c1.3-0.6,2.2-2.6,3.4-4.5c1.3-1.9,1.8-4,1.6-5.1c-0.2-1.1-1.8,1-2.9,1.5c-1,0.5-2.4,1.7-4.4,1.2
	C929.5,517.4,928.9,516.6,928.1,516.4 M899.5,401.3c-1.8,0.4-2.8-1.2-4.3-4.3c-1.5-3.1-2.6-3.5-6.4-2.1c-3.8,1.4-3.2,1.1-0.7,2
	c2.5,1,2.9,1.3,3.2,1.3c0.3,0,4,0.5,3.2,1.1c-0.8,0.5-4.3,1.1-2.1,2.6c2.2,1.5,1.3,0.4,7,3.3c5.7,2.9,6.7,0.8,8.5,4.5
	c1.8,3.8,1.8,3.1,0.3,4.1c-1.5,1-3.5,1.9-2.6,2c0.8,0.1,2.3,0.4,6.2,0.6c3.9,0.2,0.2,2.5,4.6,2.5c4.4,0,5.5-1.4,7.2-3.4
	c1.7-2,2.1-1,5.7-0.1c3.7,0.9,5,4.1,9.5,5.4c4.6,1.3,6.6,3,3.7,0.3c-2.9-2.7-3.9-4.6-7.8-7.7c-3.9-3.1-4.1-3.4-5.3-5.8
	c-1.2-2.4-5.2-5.1-9.7-7c-4.5-1.8-7.1-2.1-12.3-3.5C902.3,395.5,901.3,400.8,899.5,401.3 M869.2,390.6c-1.7,1.2-1.9,0.5-3.2-0.3
	c-1.3-0.8-0.9,1.7-3.8,0.3c-2.9-1.3-3.9-2-7,0.3c-3.1,2.3-1.1,3.2-1.2,4.8c-0.1,1.6-2.6,6.1-3.5,7.8c-0.9,1.7-0.9,2.3-0.2,3.3
	c0.7,1.1,1.7,0.7,2.2,1.2c0.4,0.5,0,4.7-0.5,6.1c-0.5,1.4,1.2,1.7,3,1.3c1.8-0.4,0.2-0.5,0.2-2s0.9-2.1,0.9-4.9v-4
	c0,0,0.5-0.3,1.1,0.7c0.6,0.9,1.6,3.5,2.4,4.9c0.8,1.3,1.6,2.3,2.8,1.4c1.2-0.9,2.4-2,2.4-2s-2.4-0.7-2.4-1.5c0-0.8,1-1.5-0.6-4.1
	c-1.6-2.7-2.5-2.8-0.4-2.9c2.1-0.1,2-2.2,3.2-2.8c1.2-0.6,2.9-0.4,2.9-0.4s-1.2-1.3-3.1-0.7c-1.9,0.5-3.5,0.8-5.1,1.7
	c-1.6,0.9-2.9,1.4-3.2-0.2c-0.3-1.6-0.5-2-0.3-4.2c0.2-2.2,2.7-0.5,4.6-1.1c1.9-0.5,1.9-0.4,5.9-0.1c4.1,0.3,4.4-0.7,5.6-2.3
	c1.2-1.7,1.9-3.6,1.9-3.6S871,389.3,869.2,390.6 M878.9,384.7c0.4-0.7-3,2.3-3.6,2.9c-0.6,0.6,0,1.4,0.5,2.3
	c0.5,0.9,0.3,3.8,0.5,4.4c0.2,0.6,1.9,1.2,1.9,1.2s-0.1-2,0.6-2.9c0.6-0.9,0-2,0-3.7C878.7,387.3,877.8,386.7,878.9,384.7
	 M872.3,402.3c-2.6-1-3.6-0.3-3.6,1c0,1.4-0.3,2.1,2.5,2.1S877.2,404.2,872.3,402.3 M877.6,401.4c-0.6,0.2-1.3,2.3-1,3.5
	c0.4,1.2,0.8,0.4,2.3,0.1c1.5-0.3,1.3-1.4,3.1-1.6c1.9-0.1,5.7,1.3,5.7,1.3s0.8-1-2.1-2.8C882.6,400.1,881.3,400.2,877.6,401.4
	 M825,333.2c0,0-2.6,0.1-3.1,0.1c-0.4,0-1.3,1-2,1.4c-0.7,0.4-0.7,1-0.2,2c0.5,1,1.2,1.1,2.5,1.4c1.3,0.3,0.8-0.6,1.8-0.9
	c0.9-0.3,1.2-1.2,1.4-2c0.2-0.8,0.8-1.1,1.1-1.4c0.2-0.3-0.7-1.2-0.7-1.3C825.8,332.6,825,333.2,825,333.2 M856.1,336.9
	c-1-0.8-1.6,1.9-1.9,3.3c-0.3,1.4-0.6,2.3-0.1,3.3c0.5,1,0.3,1.3,0.3,1.3l-1.5-1.1c0,0-0.4,1.3-0.4,2.4c0,1.1-0.5,1.6,1.3,2.4
	c1.7,0.8,2.3,0.4,2.5,1.6c0.2,1.2,0.2,1.8,1.4,2c1.1,0.2,2.5,0.7,2.9,1.4c0.5,0.8,0.2-2,1-1.8c0.8,0.2,1.7,1.2,2.3,2.1
	c0.6,0.9,1.4,1,1.4,1s-1.3-2.2-0.7-2.5c0.6-0.3,0.7-0.5-0.8-1.4c-1.5-0.9-2.7-0.7-3.8-0.9c-1.1-0.2-1.1,0.8-2-1.4
	c-0.9-2.3-0.2-3.6-0.2-4.1c0-0.5,0.6,0.8,1.3-0.8c0.7-1.6,0.9-2.8,0.7-4.3c-0.1-1.5,1-2.1,0.2-2.1
	C859.2,337.3,856.7,337.4,856.1,336.9 M869.8,365.8c0.2,1.1-1-0.3-1.5,0.3c-0.5,0.6-0.7,0.5-1.4,0.8c-0.7,0.3-2.5,1.9-2.5,1.9
	s0-1.1,0-1.3c0-0.2-0.5-1.5-1.1-0.6c-0.5,0.8-1.1,1.4-2.3,2c-1.2,0.6-2,1.5-2.1,2.6c-0.2,1.1,0.7,1,0.7,1s0.5-0.4,1.3-1.6
	c0.8-1.2,0.9-1.2,2.4-1.4c1.4-0.2,1.3-0.2,1.8,0.6c0.5,0.8,0.1,2,0.1,2.8c0,0.9,0,1.9,1.4,2.4c1.5,0.5,0.8,0,2.1-0.1
	c1.4-0.1,1.3-0.1,1.1-0.8c-0.2-0.7-0.6-1.3-0.7-2.1c-0.1-0.8,0.8-1.1,1.1-1.3c0.3-0.2,0.5,0.8,0.9,1.8c0.4,1,0.6,1,0.8,0.2
	c0.2-0.8,0.6-2.6,0.5-3.5c-0.2-1-0.3-1.7-0.3-2.5c0-0.8-0.7-1.8-1.1-2c-0.4-0.3-1.7-1.5-1.7-1.5S869.6,364.7,869.8,365.8
	 M863.2,359.2c0,0,0-0.7-1.2-1.9c-1.3-1.2-1.3-1.6-3.2-1.9c-1.9-0.3-3.8,0.2-3,2.2c0.8,2,1,2.3,2.7,2.6c1.6,0.2,2.6-0.6,2.6-0.6
	s0.1,0.3-1.4,1.3c-1.5,1-1.7,2.8-0.5,3.5c1.2,0.7,1.2,1.8,1.8,1.3c0.7-0.5,1.2-2.4,2.6-3.7c1.4-1.3,1.5-1.5,1.7-2.9
	c0.2-1.4,0-2.5,0-2.5L863.2,359.2z M866.4,355.3c-0.2,0.1-1.2-0.1-0.1,0.9c1,1,2,1.2,1.9,2c-0.1,0.7,0,0.9-0.6,0.8
	c-0.6-0.1-0.8-0.2-1-0.2c-0.3,0-0.3,0.5-0.1,0.9c0.2,0.5,0.1-0.1,0.6,0.7c0.5,0.8,0.4,1,0.5,2c0.2,0.9,0.5,0.5,0.5,0.5
	s-0.1-2.2-0.1-2.6c0.1-0.4-0.2-1.5,0.6-1.2c0.7,0.3,0.5,1.6,1,0.4c0.4-1.2,0.2-2.3,0-3.2c-0.2-1-1-1-1.9-1
	C866.8,355.2,866.4,355.3,866.4,355.3 M851.5,359c-0.4,0.1-0.7,0.5-1,2c-0.3,1.5-1.1,2.2-2,3.1c-0.9,0.9-3.3,3.2-3.4,3.6
	c-0.1,0.5-0.2,0.2,1.6-0.7c1.8-0.8,3.2-2,3.4-3.1c0.2-1.1-0.2-0.4,1.4-1.2c1.6-0.7,0.8-1,0.8-2.2C852.5,359.4,852.3,358.8,851.5,359
	 M946.7,402.9c-0.2,1.5,0.4,1.9-1,3c-1.4,1.1-2.9,1.1-4.4,1.3c-1.5,0.2-0.4-0.2-2.2-0.3c-1.8-0.1-2.3,0.1-1.4,1
	c0.8,0.9,0.6,1.8,3.3,1.7c2.7-0.1,4.9-1.6,6.6-2.1c1.7-0.5,1.6-1.9,1.7-2.6C949.5,404.3,946.9,401.3,946.7,402.9 M954.2,406.1
	c0.7,1,0.5,0.9,1.4,2.3c1,1.4,2.4,1.6,3.6,2c1.1,0.4,0-0.4-0.8-1.5c-0.8-1.1-0.9-1.7-2.1-2.9C955,404.9,952.9,404.2,954.2,406.1
	 M857.1,316c-3.7,2.3-5.3,2.2-3.9,5.2c1.5,3,2.4,4.2,2.6,4.8c0.2,0.6,0.9-0.4,1.9-2.7c1-2.4,1.1-5.4,1.5-6.4
	C859.7,315.8,858.4,315.2,857.1,316 M920.2,200.3c0.4,1.6,0.8,4-0.1,4.2c-0.9,0.3-1.6,2-1.8,3.8c-0.2,1.8-0.7,4,0.3,5.4
	c1,1.4,0.3,1.5,0.3,2.7c0,1.2,0.3,4.2-0.2,6c-0.6,1.8-0.9,2.2-0.7,4.1c0.2,1.9,0,2.3,0,4.9c0,2.7-0.2,4.8-0.1,5.9
	c0.1,1.1,0.7-0.5,1.1-0.9c0.4-0.4,2-0.6,2.8,0.3l0.9,0.9c0,0,1.4,0.6-0.5-3.5c-1.9-4.1-2.2-3.2-1.7-6.9c0.5-3.7,0.8-3.8,2.8-4.1
	c2-0.4,3,2.3,3.2,2.6c0.2,0.3-0.2-0.9-0.9-3c-0.7-2.1-1.3-2.8-1.6-5.4c-0.2-2.6-1-4.8-2.1-5.6c-1-0.8-0.5-2-0.1-3
	c0.5-1,0.6-2.6,0.4-4.3c-0.2-1.8-0.8-4.2-1-5.2c-0.3-1-1.4,0.6-1.4,0.6L920.2,200.3z M918.5,241.4c0.1,1.2,0.2,2.2-0.6,3.6
	c-0.8,1.3-0.2,1.7-0.7,3.5c-0.5,1.9-2.7,0-2.7,0.4c0,0.4-0.3,1.7-0.9,2.2c-0.6,0.5-2.5,0.6-2,2.5c0.6,1.9,1.6,3.9,1.6,3.9
	s1.1-1.1,1.5-1.2c0.3-0.1,1.3-0.4,1.3-0.4s-0.2-0.5-1.4-1.1c-1.3-0.6-1.2-1.8-1-2.2c0.2-0.4,1.8,0.1,2.8,0c1-0.1,1.9-0.6,3.2,0.4
	c1.3,1,3.1,1.4,3.1,1.4s0.2-1.5,0.8-2.6c0.6-1.1,2.2-0.6,3.9-1.1c1.7-0.5,2.9-0.8,2.4-1.4c-0.6-0.7-0.5-2.3-0.9-3.4
	c-0.3-1.2-1.4-0.1-2.3,0.4c-0.9,0.4-2,0.1-3.1-0.6c-1.1-0.8-3.2-3.6-4-4.7C919.5,240.8,918.4,240.2,918.5,241.4 M913.3,259
	c-0.5,0.3-1.2,1.7-1.1,3.3c0.1,1.6,1.5-0.1-0.3,4.7c-1.7,4.8-2.6,5.9-4.3,7.2c-1.7,1.2-3.2,1.2-3.9,0.9c-0.6-0.3,0.2-1.4,0.6-1.7
	c0.5-0.3-1.5-0.4-2.3-0.3c-0.8,0.1,0,1-0.1,1.8c-0.1,0.8-1.7,2.8-1.5,3.7c0.2,0.9,0.2,1.2-0.9,1.5c-1,0.3-1.7-0.8-2-0.9
	c-0.3-0.2-1.9,0.3-3.9,0.6c-2,0.3-2.5,1-3.4,2.5c-0.9,1.5-2.9,1.7-4.4,2.3c-1.5,0.6-0.9,2.7-2.5,3.4c-1.6,0.7-1.6,2.1-1.7,3.1
	c-0.1,1.1,1,0.3,1.2,0.2c0.2-0.1,0.2-1.5,1.2-1.4c1,0.2,1.1,0.2,0.6,1.3c-0.5,1.1-0.8,1.7-1.3,2.7c-0.5,1,0.2,1.4,0.9,2.4
	c0.8,1,1.5-0.3,3.1-2c1.6-1.7,1.8-2.1,1.6-4.1c-0.1-2-0.8-2-2-2.6c-1.2-0.6-1.5,0-0.1-1.5c1.3-1.5,1.9,0,2.8-0.7
	c0.9-0.7,3.1-0.6,5.2-1.2c2.1-0.5,4.1-1.2,4.2-0.5c0.1,0.7,0.7,3,0.8,3.5c0.1,0.5,1.5-0.7,2.9-1.2c1.4-0.5,0.1-0.8,0-1.7
	c-0.1-0.9,0.6-1.4,0.6-1.4s0.7,1.5,3,0.4c2.3-1.1,2.5-1.5,3.1-1.4c0.6,0.2,1,0.8,1.9,0.2c1-0.6,1.1,0,1,0.4
	c-0.2,0.5,2.8-0.9,3.4-1.4c0.6-0.4,0.3,0,0-1.7c-0.3-1.7-1.1-1.8-0.6-4c0.5-2.2,0.3-2.4,0.5-3.7c0.1-1.4,0.6-1.6,1-1.6
	c0.3-0.1,0.3-1.9,1.1-2.9c0.7-1,0.6-1.4,0.6-3.6s-1.2-1.8-1.3-3.4c-0.1-1.6,0.3-3.1,0.3-3.1s-2.5,0.9-2.7,1.5l-0.3,0.6
	C914.5,259,914.1,258.5,913.3,259 M897.2,283.1c-2.5,0.4-4.3,0.7-5.9,1.2c-1.5,0.5-1.8,1.2-1.6,2.7c0.2,1.5,0.8,3,1,3.8
	c0.2,0.8,1,0,2.5-0.8c1.4-0.8,1.3-3,2.7-3c1.4,0,0.9,1.6,2.7-0.6c1.8-2.2,0.4-2.4,0.5-3.5C899.2,281.8,897.2,283.1,897.2,283.1
	 M1058.4,164c-2.7-0.5-3.5-1.1-3.8-0.1c-0.3,1-0.6,1.3,1.2,1.9c1.7,0.6,2.6-0.5,4.2,0.8c1.6,1.2,2.1,1.1,3.3,1
	c1.2-0.2,1.7-0.8,1.7-0.8S1060.4,164.4,1058.4,164 M1027.2,121.1c-1,0.3-1.8-0.7-1.6,1.8c0.3,2.4,0.8,2.7,4,2.3
	c3.2-0.4,0.8-0.1,5.1-0.4c4.3-0.3,5.2-0.9,5.2-0.9s-0.6-1.2-2.1-2.3c-1.5-1.1-3.4,0.8-6.7,0.2
	C1027.8,121.1,1027.2,121.1,1027.2,121.1 M930.1,84.9c0,0.9,4.3,3.6,5.9,4.3c1.6,0.8,2.8,0.4,6,0.1c3.3-0.4,3.5-1.8,3.9-2.6
	c0.4-0.8-1.5-0.5-3.7-1c-2.2-0.4-4,0.4-4.8,0c-0.8-0.4,1.2-0.8-0.8-1.5c-1.9-0.7-2.4,0.2-2.8-0.1c-0.4-0.3-0.5-1-1.5-1.1
	C931.3,83,930,84,930.1,84.9 M913.2,90.4c-1.5,0.6-1.4,1.1,0.3,2.5c1.7,1.4,1.1,1.1,0.4,2.1c-0.7,1,0,0,2.4,1
	c2.4,1.1,3.4,3.1,4.9,3.5c1.5,0.4,2.5-0.1,2.5-0.1s-0.5-1.6-1.9-3.5c-1.4-1.9-4.5-2.5-5.1-4.2C916.2,90,915.3,89.5,913.2,90.4
	 M928.5,82.5c0,0-2.2-1.3-5.5-3.4c-3.3-2.1-4.6-2.7-5.7-2.8c-1.1-0.2-0.9,1.2-1.4,2.2c-0.4,1-0.7,0.8-2.5,0
	c-1.7-0.8-3.4-2.1-5.2-2.5c-1.8-0.4-2.8,1-4.9,3.1c-2,2-0.9,2.6,1.6,5.6c2.5,3,3.5,3.1,5.5,2c2-1.2,1.4-1.9,2.8-1.4
	c1.4,0.6,6.3-0.6,6.5-0.6c0.2,0-0.3,2.7,1.9,2c2.2-0.7,4.1-1.1,5.1-2.2C927.9,83.3,928.5,82.5,928.5,82.5 M779.2,25.1
	c-0.6,0.5-4.3,0.2-6.2,3.2c-1.9,3-3.2,0.9-4.2,2.7c-1,1.8-1.8,4-1.8,4s1.7,2,3.6,1.9c1.8-0.2,5.1,0.6,6.8,3.1s3.1,2.5,7.4,3.2
	c4.3,0.7,2.4,1.3,4.6,1.1c2.2-0.2,5.3,0.3,4.7-0.9c-0.7-1.1-1.2-1.8-0.9-4c0.3-2.2,2.3-2.1-0.1-3.5c-2.4-1.4-4-0.3-3.9-0.5
	c0.1-0.3,2.1-1.1,1.3-1.1c-0.8-0.1-4.8-0.3-5.2-2.5c-0.5-2.3,1.1-2.4,1.9-2.6c0.8-0.2,0.6-0.4-1.7-2.1c-2.3-1.7-5.4-3.4-5.4-3.4
	C778.6,24.4,779.8,24.5,779.2,25.1 M800.8,41.3c-1.7,0.3-3,2-4,3.4c-1,1.4-2.9,3.6-4.1,4.6c-1.2,1-0.9,1.2,1.1,1.9
	c2,0.7,5.4-1.2,6.4-1.3c1-0.1,1.7,1.4,4.8,1.1c3.1-0.4,7.8-1,5.5-2.6c-2.3-1.7-1.5-0.9-4-2.9c-2.5-2-5.8-2.2-5.8-2.2s5.2-1.8,4-1.9
	C803.4,41.4,800.8,41.3,800.8,41.3 M667.9,14.9c-3,1.1-2,1.6-3.9,3.2c-1.9,1.6-0.6,2,3.6,1c4.2-1,4.4-1.4,7.1-2.7
	C677.4,15.1,672.4,13.3,667.9,14.9 M674.6,22.4c-2.8,1.3-2.1,2.6-1.3,3.6c0.7,1.1,2.8-0.6,3.4,0.5c0.6,1.2,0.8,0.7,3.4-1.1
	s1.7-1.2,0.6-3.1C679.6,20.6,679.4,20.3,674.6,22.4 M658.9,21.7c-1.8,0.9-1.8,0.8-0.1,1.6c1.7,0.8,5.9,1.4,8.1,0
	c2.2-1.4,2-1.1-0.7-1.5C663.4,21.3,660.9,20.7,658.9,21.7 M632.2,24.9c2.8-0.2,5.4-0.4,7.6-0.1c2.2,0.2,1.4,2.2-2.7,2.6
	c-4.1,0.4,0.4,1.1,3.3,1c2.9-0.1,1-2.5,3.5-3.4c2.4-0.8,4-0.3,6.9-1.4c2.9-1-1.7-2-5.1-2c-3.4,0.1-4.5,0.3-7.4,0.1
	c-2.9-0.2-5.2,1.1-8.2,1.6C624.1,24.4,629.4,25.2,632.2,24.9 M654.2,25.7c-2.5,0-8.4,1.4-3.4,1.9c5,0.5,4.6,0.8,6.7,0
	C659.6,26.8,656.8,25.7,654.2,25.7 M671.6,26.7c-3.5-1.2-3.6-0.7-6.3-0.6c-2.7,0.1-3.8,1.8-2,2.5c1.8,0.7,3,0.4,4.4,0.2
	c1.5-0.2,1.4-0.7,0.4-1C667.2,27.5,673.7,27.4,671.6,26.7 M686.4,22.4c-2.7,0.3-2.8,0.8-3.1,1.7c-0.3,0.9,0.4,0.7,3.2,0.3
	c2.8-0.4,4.2-0.8,6-1.8c1.9-1-0.4-3.5-0.4-3.9c0-0.4-2.6,1.3-3.4,2C688.1,21.3,689.6,22,686.4,22.4 M475.2,176.6
	c-1.4,3.7-3.6,5.5-1,4.4c2.6-1,5.3-4.3,5.2-1.5c-0.1,2.8-2.7,2.4-1.9,5.1c0.8,2.7,0.2,2.5,4.6,3.5c4.4,1,0.8,0.6,1.9,3.2
	c1.1,2.6,1.8,3.4,0.7,4.2c-1.2,0.8-4.5-2.4-4.7-1c-0.2,1.3,0.5,2.3,1.3,4.2c0.8,1.8-0.5,2.9-3.1,4.1c-2.6,1.2-0.3,2,1.6,1.9
	c2-0.1,6.9-1,6.1,0.7c-0.8,1.7-3.2-0.3-4.9,2.6c-1.7,2.9-7.9,5.4-4.7,5.2c3.3-0.2,2.8-1,12.5-2.4c9.7-1.4,3-0.1,9.4-2.1
	c6.4-2,4.3-2.5,0.8-1.9c-3.5,0.6,2.3-3.5,1.5-7.2c-0.8-3.8-3.1-0.2-4.6-2.5c-1.5-2.4-1.3-3.1,1.6-2.2c2.8,0.9,2.6-0.6-2.9-4.1
	c-5.5-3.5-2.1-2.8-4.6-5.8c-2.5-2.9-6.8-2.6-6.8-2.6s1.8-1.1,2.9-3.2c1.1-2.1,1.3-2,2.4-4.6c1.2-2.6-1.2-2.4-4.1-1.7
	c-2.9,0.6-3.9,0.9-3.3-0.2c0.6-1.2,1-1.6,2.4-3.1c1.4-1.4,1.6-2.2-0.9-1.6c-2.5,0.6-2.9,0.5-5,1.5
	C474.3,170.8,476.6,172.9,475.2,176.6 M468.3,185.4c-4.4,1.7-3.2,2.9-2.4,3.5c0.7,0.6,2.1-0.6-2,1.8c-4.1,2.4-4.2,5-2,5.5
	c2.2,0.5,1.9-1.3-0.4,3.1c-2.3,4.3-3.9,7.3,0.8,6.2c4.7-1.1,6-3.5,8.2-3.8c2.2-0.3,2.6-2.1,2.6-4.8c0-2.7-1.5-2.8,0.3-5
	c1.8-2.2,1.9-4.6-1.6-5.7C468.3,185,471.1,184.3,468.3,185.4 M524.1,246c-0.2,0.6,0.3,2.3-1.5,3.4c-1.8,1.1,0.9,2.1,1.4,3.2
	c0.6,1.1,1.3-3.6,1.1-5.9C525,244.4,524.8,244,524.1,246 M523.2,254.9c-2.9,1.4-3.1,2.4-3.5,4.6c-0.3,2.2,2.4,0.4,1.7,2.4
	c-0.7,1.9-0.1,3,3,1.1c3-1.8,1.3-3.5,1.8-5.8C526.6,254.9,527,253.1,523.2,254.9 M568.3,278.6c-2.6-0.3-3.7,1.4,0.7,1.9
	c4.4,0.5,6.4,0.6,8,0.2c1.6-0.4,0.3-0.1-1.9-1.5C572.9,277.6,571.5,278.9,568.3,278.6 M592.8,279.9c-3.5-0.8-2.6,3.5,1,2.9
	c3.6-0.6,2.2,0.2,3.9-2.4C599.3,277.8,596.5,280.7,592.8,279.9 M504.7,260c-2.9,0.4-3.1,1.3-0.9,1.9c2.2,0.6,2-0.1,3.2-1
	C508.3,260,505.9,259.8,504.7,260 M330.5,207.5c-1.8,1.4-3.8,3.5-6.3,8c-2.5,4.5-2.2,4-4.7,6.5c-2.4,2.5-1.2,1.9,6.3,3.4
	c7.5,1.4,6.9,2.6,8.6,2.1c1.7-0.5,2.1,1,2.1,2.5c0,1.5,1.6,0.6,2.4-1.8c0.8-2.4-0.8-6.8-2.3-9.2c-1.6-2.5-1.9-2.5-4.3-1.9
	c-2.4,0.6-1.6-0.6-2.5-2.5c-0.9-1.9-2.2-0.4-0.2-3.3C331.7,208.4,332.2,206.1,330.5,207.5 M100.9,202.3c0,2.4,2.5,6.5,4.4,7.8
	c1.9,1.3,1.5,0.6,0.6-2.3c-0.9-2.8-0.2-2.8-0.6-4.7C105,201.4,100.9,201.5,100.9,202.3 M113.5,215.4c0.5,0.5,2,2.7,4.7,4.5
	c2.6,1.8,3.3,2,6.1,2.8c2.8,0.8,4-0.3,2.2-1.9c-1.8-1.6-0.3-1.4-3.5-2.2c-3.2-0.8-3.9-0.5-5.5-1.5
	C115.8,216.1,112.4,214.3,113.5,215.4 M43.4,188.8c-2.1-0.5-2.9-0.6-4.3,0.6c-1.4,1.1-1.8,2.1-1,3.3c0.8,1.2,0.3,0.6,2.1-0.7
	c1.8-1.2,1-1.4,3.2-2c2.3-0.6,1.8-1.3,1.8-1.3S44.7,189,43.4,188.8 M42.7,186c-1.4,0.8-1.9,1.5-0.3,1.2c1.6-0.3,1.3-1.2,2.3-1
	c1,0.2,1.3-0.2,1.3-0.2S44.2,185.1,42.7,186 M2.9,179.6c-1.9,0.9-3.7-0.2-2.5,0.5c1.2,0.7,2.8,1.4,4,1.2c1.3-0.1,2.1-0.2,1.6-0.8
	c-0.5-0.6-0.6-0.8-0.6-1.4C5.4,178.4,4.8,178.7,2.9,179.6 M639.4,441.6c-2.2,4.8-6.8,2.5-10.5,6c-3.7,3.5-3.1,2.5-0.3,7.4
	c2.8,4.9-2.3,4.4-3.6,10.2c-1.3,5.8,1.5,4.7,3,9.6c1.5,4.9,2.2,3.4,4.9,2.8c2.8-0.6,4.7-1.9,4.7-1.9s0.5-4.3,2.3-10.6
	c1.8-6.3,3.1-10.9,3.5-15.1c0.3-4.2,0.7-7.2,1.6-5.9c0.9,1.3,1,1.3,1-0.8c0-2-1.1-7.8-2.9-9.1C640.1,431.8,641.6,436.8,639.4,441.6
	 M642.6,111.8c-3,0.7-4.4,2.5-2.2,3.3c2.2,0.7,2,0.3,5.6-1C649.6,112.8,645.6,111.1,642.6,111.8 M699,57c-1-1.6-1.9,0.5-12.5,5.1
	c-10.6,4.6-10.5,0.6-20.4,8.5c-9.9,7.8-7.7,6.9-8.3,11.6c-0.6,4.7-2.9,2.7-3.8,7c-0.9,4.3-6,4.5-3.4,8c2.5,3.5,5.9,5.6,11.2,7.1
	c5.3,1.5,6.8-0.1,5.6-0.6c-1.2-0.5-5.2-6.9-4.4-14c0.8-7.2,3.5-6.1,5.7-8.8c2.3-2.7,8.3-9.7,12.2-12c3.8-2.3,13.9-5.5,19-7.2
	c0.1-0.1,0.3,0,0.4-0.1C704.4,56.9,700,58.6,699,57 M670.4,105.2c-1.3,0.2-1.8,0.2,0.5,2.5c2.3,2.3,4.3,4,3.6,1
	C673.7,105.6,671.6,105.1,670.4,105.2 M708.2,83.4c-1.7-0.8-2.6-1.6-3-0.3c-0.4,1.3,1.9,3,4.1,3.4C711.6,86.9,709.8,84.1,708.2,83.4
	 M312.3,218.3c-2.6-1.3-5.1-2.3-6.7-2.3c-1.7,0,0.3,1.8,3,3.2C311.3,220.7,313.8,219.1,312.3,218.3 M306.3,229.1
	c0.1-2.1-1.4,2.4,0.5,3.5c1.9,1,2.9,1.3,4.1,0.1c1.2-1.2,0.2-0.5-1.4-0.8C307.7,231.6,306.1,230.9,306.3,229.1 M1059.6,155.2
	c-3.1,0.3-5.4-0.6-5.4-0.6s-0.2,2.5-1.1,3.7c-1,1.2-0.3,2.5-0.3,2.5s-3.1-1.4-4.9-2c-1.8-0.6-3.5-0.1-4.5-2.8
	c-1-2.7-4.1-2.3-6.5-2.3c-2.4,0-1.7-3.1-1.7-3.1l-1.5,0.1c-1.5,0.1-1.2,3.6-3.1,4.7c-1.9,1.1-7.9,1.9-7.9,1.9s3.8,2.7,4.6,5
	c0.8,2.3,2.2,4.4,2.2,4.4s-0.3,1-4.9,0.2c-4.6-0.9-4.3,0.9-9.2,2.9c-4.9,2-10.5,5.1-11.9,6.2c-1.4,1.1-1.5,0.5-5.8-0.6
	c-4.3-1-5.2,1.2-6.3,1.8c-1.1,0.6-0.7-2.6-0.7-2.6s-1.6,0-3.5,1c-19.7,10-6.1,9.5-6.7,11.5c0,0-2.1,7.8-2.1,7.8
	c-2.9,8.6-4.9,4.1-7.3,10.9c-7.8,21.7-12.2-3.3-12.2-9.1c0-3.5-0.8-8.1,1.5-9.2c19.3-9,1.8-1.3,19.9-13.7c5.9-4,2.7-6.4,4-7.6
	c1.3-1.1,3.4-1.4,3.4-1.4l-3.2-0.3c-3.2-0.3-3.3,0.4-5.8,3.1c-2.5,2.7-4.5,3.2-4,1.1c0.5-2.1,0.6-4.3-1.3-3.1
	c-1.9,1.1-2.7,1-6.2,1.7c-3.5,0.7-7.3,2.4-10.5,6.4c-3.2,4-1.4,3.5-0.3,4.5c1,1-5.1,0.7-8,0.5c-2.9-0.2-1.4-0.8,0.3-1.4
	c1.7-0.6-2.6-1-6.4-1.8c-3.8-0.8-2.3,0.6-4.6,1.5c-2.2,0.9-2.2-0.8-3.3-1c-1.1-0.2-6.1-0.6-9.7-1c-3.5-0.4-3.3,0.2-4.2,1.4
	c-1,1.2-7.5,7-10.4,10.3c-2.8,3.3-6.4,4-9.6,7.1c-3.2,3.1-3.7,2.9-1.1,3.4c2.6,0.5,2.9,0.2,3.4,2.7c0.4,2.4,1.6,3.2,4.4,3.2
	c2.8,0,2,0.7,2.5-1.4c0.5-2.1-0.7-4.5,1.6-2.7c2.3,1.9,4.2,3.2,4.9,5.9c0.7,2.7-0.2,4.6-1.4,9c-1.2,4.4-1.6,10.8-3.3,14
	c-1.6,3.2-2.9,5.6-4.7,9.2c-1.8,3.5-10.6,12.5-12.6,13.3c-2,0.8-3.3,0.9-4.2-0.9c-0.9-1.8-1.6-1.4-3.9,0.6c-2.2,2-3.3,3.2-4.1,6.4
	c-0.9,3.2-2.8,3.2-4.7,5.6c-2,2.4-2.5,1.9-1,4.6c1.5,2.7,3.9,5.6,4.1,8.3c0.3,2.7-1.2,6.5-2.2,8.2c-1,1.7-5.4,2.5-5.4,1.7
	c0.1-0.8,0.2-4.8,0-7.2c-0.2-2.3-1.9-2.3-1.3-3.1c0.6-0.7,3.1-1.9,1.3-3.6c-1.8-1.7-3.1-0.2-3.9-2.3c-0.8-2,0.3-3.6-0.1-4.3
	c-0.4-0.7-1.7-1.5-4.4-1.8c-2.7-0.2-3.3,2.4-3.9,0.1c-0.6-2.3,0.3-2.6-0.9-3.5c-1.2-1-2.2-0.3-5.3,2.3c-3.1,2.7-3.7,2.1-6.3,3.2
	c-2.6,1.1-2.6,1.8-2,2.7c0.6,0.9,2.8,4.7,4.6,5.1c1.8,0.4,3.1-0.8,5.9-0.8c2.8,0,3.3,0.4,2.6,1.4c-0.7,1-2.6,2.1-6,5.5
	c-3.4,3.4-2.3,2.7-1.2,4.1c1.1,1.4,2.8,3.1,4,5.7c1.2,2.7,0,3.6-0.2,5.1c-0.2,1.5-0.4,3.9,1.8,6.3c2.2,2.4,0.7,1.6,0.4,2.5
	c-0.3,0.9-4.1,7.8-5.8,11.3c-1.7,3.5-1.7,3.8-7.3,7.7c-5.6,3.9-8.1,4.3-11.1,4.9c-3,0.6-5.6,1.4-7.2,2.1c-1.6,0.6-1,1.9-1.1,2.7
	c-0.2,0.8-1.6,0.1-1.4-1.1c0.3-1.2,0.1-2.1-0.7-2.4c-0.8-0.3-3.2-1.3-5.7,1.1c-2.5,2.4-5.5,2.6-6.6,5.6c-1,3.1-0.9,2,0.3,3.3
	c1.1,1.3,6.6,6.5,7.8,9.3c1.3,2.8,1.6,4.9,1.6,8c0.1,3.1-6.2,8.7-9,10.5c-2.8,1.8-3.4,3.6-2.9,0.7c0.4-2.9-1.2-4.6-3.2-6.8
	c-2-2.2-8-3.9-9.1-4.2c-1.1-0.2,0.4-2-0.3-1.9c-0.8,0.1-2.6-0.4-2.3,2.4c0.3,2.8-1.8,1.9-2.2,4.7c-0.4,2.8-1,5.7,0.9,5.5
	c1.8-0.2,1.5,2.5,2.8,5.5c1.4,3.1,0.9,1.4,4.3,4.2c3.5,2.8,2.6,2.3,3.4,5.1c0.8,2.8,0.5,4.4,2.2,7c1.7,2.6,1.8,3.1-1,1.7
	c-2.8-1.4-5.2-3.2-6.3-5c-1.1-1.8-1.8-6.3-2.5-8.5c-0.7-2.3-5.3-4.9-6.9-6.5c-1.6-1.6-0.6-2.9,0.2-6.6c0.8-3.7-0.3-7.2-0.6-9.5
	c-0.3-2.3-2.1-8.6-2.9-10.7c-0.9-2.1-0.5-1.8-1.9,0c-1.3,1.9-2.4,3-3.7,3c-1.3,0-3.2-0.2-3-1c0.2-0.8,1.5-4.1,1.1-5.3
	c-0.4-1.2-1.6-5.1-3.4-6.4c-1.8-1.4-3.9-3.3-5-6.4c-1.2-3.2-1.5-2.2-3.7-0.6c-2.2,1.6-7.4,1.9-9.8,2c-2.5,0.2-0.4,1.4-1,2.6
	c-0.6,1.2-3.5,2.8-9.3,8.8c-5.8,6.1-6.7,6.3-8.2,6.9c-1.5,0.6-2.4,0.4-2.4,2.9c0,2.5,0.3,3.8,0,6.1c-0.3,2.2-0.9,3.1-1.6,4.6
	c-0.6,1.4-1.3,4-1.5,5.3c-0.2,1.3-1.5,2.9-3.4,4.3c-1.9,1.4-1.9,1.1-2.8-0.9c-0.9-2-5.3-9.7-9-17c-3.6-7.2-2.8-8.5-3.1-10.6
	c-0.3-2.1-0.4-14.6-0.3-15.6c0.1-0.5-1.8,1.5-2.3,2.5c-0.5,1-0.5,2.3-2.6,2.4c-2.1,0.2-2.5,0.2-4.5-1.7c-2-2-2.9-3.1-2.5-3
	c0.3,0.1,2.6-0.2,3.9-0.9c1.3-0.6,0.9-1.3,0.9-1.3s-1.4,0.2-3.1,0.2c-1.7,0.1-0.9-0.4-3.1-1.3c-2.2-0.9-2.7-1-3.1-2
	c-0.4-1-0.9-2.4-1.2-3.1c-0.3-0.7-0.6-0.8-0.9-1.7c-0.4-0.9-1.4,0.2-3.8,0.2c-2.4,0.1-1.8,0.2-4.7,1.3c-2.9,1.1-3.3,0.7-6.6,0.6
	c-3.2-0.1-5.5-1.5-7.2-2.1c-1.6-0.6-1.9-0.3-4.3-0.7c-2.4-0.3-1.9-1.6-2.5-2.6c-0.6-1-1.6-1.3-4.8-1c-3.2,0.2-3.3,0.1-5.1-0.4
	c-1.8-0.5-1.9-1.1-3.4-2.6c-1.5-1.5-1-0.3-2-1.1c-1-0.8-1.9-1.8-2.7-3.9c-0.8-2.1-0.6-2.5-1.5-3.5c-0.9-1-0.8-0.7-3.6-0.7
	c-2.8,0-1.5,0.2-1.9,0.4c-0.3,0.2-1.2,1.4-2,2.4c-0.8,1,0.6,2.3,1.8,3.6c1.1,1.3,0.1,1.2,1.9,3.2c1.8,2,1.2,1.8,2.4,4.6
	c1.3,2.8,2.1,3.5,2.4,4.3c0.3,0.8,0.6-0.3,0.8-1.1c0.3-0.8-0.1-3.4-0.1-3.4s0.5,1.1,1,3.1c0.5,2,0.1,2,0.5,3.3
	c0.3,1.3,0,1.1,2.2,1.1c2.2,0,3.5,0.1,5.9-0.5c2.4-0.6,3.4-2.7,4.5-3.4c1.1-0.6,1.1-2.9,1.9-2.7c0.7,0.2,0,2.7,0.7,4.2
	c0.7,1.6,0.9,1,2.5,1.7c1.7,0.7,2.1,1.1,3.8,1.7c1.7,0.6,0.5,0.7,1.5,2.4c0.9,1.7,0.9,0.8,1.8,1.3c0.9,0.6,0.5,0.2-0.1,2.2
	c-0.6,2-0.7,2-2.2,3.7c-1.5,1.6-1.5,1.1-1.7,1.1c-0.2-0.1-0.7-1.2-0.7-1.2s-1,2-1.1,4.2c-0.1,2.3,0.7,1.4-2,2.5
	c-2.7,1.1-4.4,1.6-5.4,2.5c-1.1,0.9-1.1,2.1-1.7,2.7c-0.6,0.6-1.4,0.1-3.3,0.7c-1.8,0.6-1.3,0.5-2.9,1.7c-1.5,1.2-0.2,1.1-2.2,1.8
	c-2,0.8-5.6,2.5-7.4,2.7c-1.8,0.2-1.4,0.7-1.9,1.3c-0.5,0.7-0.5,1-2.8,1.4c-2.3,0.3-5.2,0.7-6.6,1.4c-1.4,0.7-3.5,2.2-5,2
	c-1.5-0.3-1.1-0.3-1.6-1.7c-0.5-1.3-0.7-2.3-1-4.5c-0.2-2.2-1-5.6-2.3-7.7c-1.3-2.1-1.2-2.3-2.6-4.5c-1.4-2.2-2.3-4.1-3.5-5
	c-1.2-0.9-1.8-0.9-2.4-1.6c-0.6-0.6-0.2-2.8-0.8-4.7c-0.6-1.9-1-3.7-1.9-4.7c-0.9-1-2.3-2.3-3.5-4.5c-1.2-2.2-1.3-2.5-3.1-5.9
	c-1.8-3.4-2.4-3.9-3.6-6.2c-1.2-2.3-0.4-1.9-0.8-3.2c-0.4-1.4-1.6,2.2-2.4,2.9c-0.9,0.7-1.4,0.3-2.1-1.7c-0.7-2-1.3-3.8-1.9-3
	c-0.5,0.8-1,1.6-0.2,3.8c0.7,2.2,1.1,1.7,2.1,3.8c1,2.1,3.6,7.2,4.7,9.4c1.1,2.1,0.7,1.1,1.7,4.3c1,3.2,1.6,3.6,2.9,5
	c1.4,1.3,1.1,0.6,1.7,2.8c0.6,2.2,0.4,4.8,0.5,6.1c0.1,1.3,0.8,2,2.4,3.4c1.6,1.3,0.8,0.9,1.5,2.3c0.7,1.4,1.5,3.4,1.9,4.8
	c0.4,1.4,0.9,2.4,2.2,3c1.3,0.6,1.6,0.7,2.9,1.2c1.3,0.5,0.8,0.8,1.7,1.9c0.9,1.1,2.5,1.9,3.6,3.7c1,1.7,0.3,1.2,0.3,2.9
	c-0.1,1.7-0.6,0.9,0.1,1.8c0.7,0.9,2,1.6,4.2,3.1c2.2,1.4,0.4,0.4,2.4,0.4c2-0.1,2.4-0.6,4.5-1c2.1-0.5,4.8-1.2,7.4-1.9
	c2.6-0.6,5.1-1,6.4-1.4c1.3-0.4,1.4,1,0.3,3.3c-1,2.3-1.5,4.1-2.4,6c-0.9,1.8-1.2,2-1.8,3.5c-0.6,1.5-4.9,7.5-5.8,9.4
	c-0.9,1.9-2,3.4-3.2,5c-1.3,1.6-5.4,4.4-7.2,6c-1.9,1.5-1.4,1.5-2.8,3.3s-5.7,6.8-6.8,8.5c-1.1,1.8-1.8,2.4-2.7,4.2
	c-0.9,1.7-3.3,4.2-3.5,5.5c-0.1,1.3-1.5,1.4-0.5,2.5c1,1.1,1.6,1.3,2,2.7c0.4,1.4-1.2,3-0.2,5.5c1,2.5,0.3,0.7,1.8,2.8
	c1.5,2,1.4,3.3,1.5,6.3c0.1,3,0.3,5.9-0.2,7.9c-0.5,1.9-1.1,3.2-1.8,4.9c-0.7,1.7-4.3,2.9-6.4,3.9c-2.1,0.9-2,0.6-3,1.7
	c-1,1.2-3.8,3.6-4.7,5.5c-1,1.8-1.7,1.6-1.3,2.8c0.4,1.2,1.2,2.7,2.2,4.8c1,2.1,0.3,2,0.1,3.8c-0.2,1.9-0.2,1.6-0.5,3.8
	c-0.3,2.3-2.9,2.3-5.9,3.5c-3,1.2-1.9,0.6-2.3,2.2c-0.3,1.6-0.1,4.9-0.3,6.8c-0.1,1.9-1,1.2-2.7,3.5c-1.6,2.4-2.3,3.5-4.1,6.4
	c-1.8,2.9-1.6,2.5-3.8,4.3c-2.2,1.8-4,2.3-4.9,4.3c-1,2.1-2.1,0.7-6.8,2.2c-4.7,1.5-1.3,0.8-5.8,1.3c-4.5,0.5-6.1,0.9-8.5,1.3
	c-2.4,0.4-2.1-0.1-3.5-1.7c-1.5-1.6-1.7-1.5-2.3-2.8c-0.7-1.3-0.2-1.7-0.4-4.1c-0.2-2.4-0.4-2.5-1.3-4c-0.9-1.5-0.8-1.7-1.8-4.1
	c-1-2.4-1.4-3.1-2.5-4.7c-1.1-1.6-1.4-1.1-2.4-2.1c-1-1-1-2-1.3-3.4c-0.2-1.5-0.6-5-1.1-8.6c-0.5-3.7-0.1-1.7-0.6-3.3
	c-0.6-1.6-1.3-3.4-2.2-5.5c-1-2.1-0.6-1.5-2.1-4.1c-1.5-2.5-1.4-2.2-2.3-4.4c-0.9-2.2-1.1-1.2-1.1-2.1s0.5-2.4,0.5-3.9
	c0.1-1.5,0.5-3.2,0.9-5.5c0.4-2.3-0.5-2.3,0.5-3.9c1-1.6,2-3,2.6-4.8c0.6-1.8,0.5-1.9,0.5-4.2c0-2.3-0.2-2.1-0.9-4
	c-0.7-1.9-1-4.1-1.8-7.2c-0.8-3.1-0.8-2.9-0.9-4.1c-0.1-1.2-0.7-3.8-1.3-5.4c-0.6-1.6-0.9-1-2.1-2c-1.3-1-0.4-0.6-1.5-1.7
	c-1.1-1.2-0.9-1.5-2-2.8c-1.1-1.3-1.2-1.3-2.1-2.7c-0.9-1.4-0.4-0.6-0.3-3c0.1-2.4,0.8-6.9,1.2-9.6c0.4-2.6,0.5-2.5-0.5-3.6
	c-1-1.1-1.7-2.7-2.5-3c-0.8-0.3-2.6,0.3-5.4,0.2c-2.7-0.1-2.6-0.7-3.8-2c-1.2-1.4-2.7-3.3-3.3-3.8c-0.5-0.5-1.5-0.5-6.1-0.1
	c-4.7,0.4-1.8,0.4-5,0.9c-3.1,0.5-4.3,2.1-6.7,2.9c-2.4,0.8-3.1,0.6-7.3-0.2c-4.2-0.8-6.3,1-8.4,1.9c-2.1,0.9-3.2,0.5-4.7-0.6
	c-1.5-1.1-2.5-2-4.9-3.1c-2.4-1.2-1.8-1.8-4.2-3c-2.4-1.1-1.6-1.2-3.5-3.1c-2-1.8-2.1-3.7-3.5-5.7c-1.3-1.9-2.5-4.6-4.3-6.7
	c-1.8-2-3.6-6.1-4.5-7.4c-0.9-1.2-1.6-1.3-1.6-1.9c0-0.6,1.8-4,2.5-5.8c0.7-1.8,0.9-1.6,1.2-2.7c0.3-1.1-0.4-4.4-1.1-6.1
	c-0.7-1.8-1.5-5.5-2-7.2c-0.6-1.7,0.3-1.8,0.9-2.8c0.7-1,2.2-3.1,3.9-6.1c1.6-3.1,2.6-4.6,3.4-6c0.9-1.4,2.8-5.8,4.1-7
	c1.3-1.2,4.6-3.5,6-4.3c1.4-0.7,2.6-1.1,2.8-1.8c0.2-0.6,0.8-5.9,1.2-8.2c0.4-2.2-0.1-3.5,1.5-4.3c1.6-0.9,4.2-2.5,5.6-3.2
	c1.3-0.8,1.5-1.9,2.2-3.5c0.7-1.6,1-3.7,2-4.4c1-0.7,0.7,0.3,2.1,1.2c1.3,0.9,1.6,1,2.2,1.1c0.6,0.2,1.2-0.5,2.8-0.5
	c1.6,0,1.8,0.2,2.7,0.7c0.9,0.5,0.4,0.5,3.1-1.2c2.7-1.7,4.9-2.7,8.4-4c3.5-1.3,5.9-2,7.6-2.2c1.6-0.2,0.8,0,2.6,0.8
	c1.8,0.7,1.9,1,2.3,0.5c0.4-0.5,1.6-2,2.4-2c0.8,0.1,1.7,0.4,3.6,0.7c2,0.3,2.8,0.2,3.6-0.3c0.8-0.4,1.8-1.3,2-1.3
	c0.2,0,1.9,0.6,3.3,1.1c1.4,0.5,1.4,0.6,1.1,0.9c-0.3,0.3-0.7,0.7-1.4,2.2c-0.7,1.5-0.3,0.7,0.3,2.3c0.6,1.6,1.1,1.5,0.8,2.7
	c-0.3,1.2-1.6,2.2-2.5,3.4c-0.9,1.1-0.7,1.3,1.6,2.6c2.3,1.3,1.8,1.1,4.4,2.3c2.6,1.2,2.7,0.8,5.8,1.7c3,0.9,2.7,1,3.7,2.3
	c1.1,1.2,1.1,2.4,3,3.1c1.8,0.6,3.8,0.6,4.9,1.3c1.1,0.7,1.9,1.6,3.4,1.9c1.4,0.3,1.4,0.5,2.1-0.6c0.7-1,1.3-2,1-2.5
	c-0.3-0.5-1-1.4-0.9-1.9c0.2-0.5,1.4-2.5,1.8-3.2c0.4-0.6,1.3-0.8,3.6-0.9c2.3-0.1,3.8-0.4,4.2,0.9c0.4,1.3,0.3,0.7,2,1.4
	c1.8,0.7,1.9,0.7,3.4,1.3c1.5,0.6,0.7,1.4,1.5,1.3c0.7-0.1,2-0.2,3.3,0.2c1.4,0.4,3.9,1.6,6.6,1.7c2.7,0.1,3.7-0.7,4.1-0.9
	c0.4-0.2,2.3-2.5,3.4-0.9c1.1,1.6,2.6,1.6,5.4,1.5c2.8-0.2,2.8-0.6,3.5-1.3c0.6-0.7,2.3-3.5,2.9-5.3c0.5-1.9,2-6,2.4-7.8
	c0.4-1.9,0-3.3-0.2-4.4c-0.1-1.1,0.1-1.9,0.5-3.1c0.4-1.2-1.4-0.5-2.1-0.2c-0.7,0.2-0.9-0.4-1.6-0.6c-0.7-0.2-1.4-0.3-1.8,0.9
	c-0.5,1.2-0.3,1.9-2.9,1.7c-2.6-0.1-2.2-0.3-3-1.2c-0.9-0.9-2.3-1.2-3.5-1.5c-1.2-0.3-1.3-0.3-1.4,0.5c-0.1,0.8-0.1,1.3-1,1.6
	c-0.9,0.3-2.8-0.1-4.5-0.8c-1.6-0.8-2.1-1.2-3.7-2.7c-1.6-1.6-1.4-1.6-2-4c-0.7-2.4-0.7-4.5-0.4-5.3c0.3-0.7,0.7-0.9-0.5-0.6
	c-1.2,0.4-2.1,0.6-1.2-1.3c0.8-1.9,1.6-1.9,2.5-2.2c0.9-0.2,2.2-0.3,3.8-0.4c1.6-0.1,2.9-0.9,3.5-1.2c0.6-0.2,1.8-0.6,1.2-0.8
	c-0.6-0.2-2.4-0.3-2.1-0.9c0.3-0.5,0.5-0.5,1.5-0.6c1-0.1,2.5-0.2,3.8-0.2c1.3-0.1,2.1,0.2,2.5-0.6c0.4-0.8,1-1.9,2-2.5
	c1-0.6,2.1-0.3,4.7-0.4c2.6-0.1,2.2,0.5,3.1,1.2c0.9,0.6,1.4,0.3,2.6,0.5c1.1,0.2,0.4,0.9,1.3,1.2c0.9,0.3,2.4,0.7,4.4,1.3
	c1.9,0.6,0.7,0.3,3,0.3c2.4,0,2.3,0,4.1-0.3c1.9-0.3,2.6-1,4-2c1.3-0.9,0.4-3-0.1-4.6c-0.5-1.6-2.6-2.6-3.5-3.3c-0.9-0.7-3-3-4.1-4
	c-1.1-0.9-2.4-1.2-3.6-1.9c-1.2-0.7-3.4-1.8-3.6-2.7c-0.2-0.9,0.5-0.9,2.2-1.3c1.8-0.4,1.2-0.8,1.5-1.7c0.3-0.9,0.5-0.9,2-1.4
	c1.5-0.5-1.7-1.7-2.1-2.3c-0.4-0.6,1-0.4,2.4-0.8c1.5-0.3,1.6-1,1.8-1.7c0.2-0.6,0.1-0.9-1.6-0.9c-1.7,0-3.9,0.8-6.8,1.5
	c-2.9,0.8-1.6,0.8-3.3,2.2c-1.8,1.4-1.9,0.8-1.6,1.5c0.2,0.8,0.3,1.5,2.1,2.4c1.8,0.9,1,1,1.5,1.1c0.5,0.1,1.7,0.3,1.1,0.5
	c-0.5,0.2-1,1-1.8,1c-0.8,0-1.2,0.8-2.5,1.6c-1.4,0.8-2,0.9-3,1c-1,0.2-1.7-0.2-1.6-1.9c0.2-1.7-0.5-0.6-1.6-1
	c-1.1-0.4-1.5-0.9-1.5-0.9s1.1-0.4,2.1-1c1.1-0.7,1.6-1.1,2.1-2.4c0.5-1.3-1.2-0.6-2.4-0.7c-1.2-0.2-0.9-0.3-2-0.4
	c-1.2-0.2-1.6-1.1-1.6-1.1s0.5,0.2,1.5,0.1c1-0.1,0.8-0.4,1.1-0.6c0.4-0.3,0.7-0.5,0.4-0.5c-0.3,0-1.5,0.1-2.4,0.1
	c-0.8-0.1-1.3-0.2-2.5,0c-1.2,0.2-0.7,0.6-1.6,1.2c-0.9,0.6-0.9,0.8-1.4,1.6c-0.5,0.8-0.6,0.7-0.9,1.2c-0.3,0.5-0.3,1.9-0.3,2.8
	c0,0.9-0.2,1.2-0.8,2c-0.5,0.8-0.5,0.4-1.5,0.9c-0.9,0.5-0.3,0.8-0.4,1.7c-0.1,0.9-0.4,1.3-0.5,2.4c-0.1,1.2-0.5,1.2-1.3,2.1
	c-0.7,0.8-1.1,0.8-1.2,1.7c-0.1,0.9-0.2,1.2,0,2.9c0.2,1.7,0.7,1.2,2,2.9c1.3,1.7,2,1,1.5,1.9c-0.5,0.9-0.4,0.5-2,0.3
	c-1.6-0.2-1.8,0.1-3,1.2c-1.1,1.1-1.4,1.7-2,2.1c-0.6,0.4-0.4-0.8-0.6-1.4c-0.2-0.6-2.9-0.8-4.7-1.3c-1.8-0.5-2.3-0.9-2.8-0.9
	c-0.5,0-1.2-0.1-3.1,0.9c-1.9,1-1.5,1.6-1.3,3c0.1,1.4,1.6,1.6,1.2,4.9c-0.4,3.2,1.6,1.7,2.5,3.7c0.9,2,0.1,1.8-0.4,2.1
	c-0.5,0.2-1,1.9-1.4,3.5c-0.4,1.6,0,1.8-0.4,1.7c-0.5-0.1-1,0.3-1.9-1c-0.9-1.3-1.6-0.1-1.8-0.8c-0.1-0.8-1.3-2.1-0.8-3.8
	c0.4-1.8,1.1-1.9-0.4-2.9c-1.6-0.9-1.2-1-1.9-2.9c-0.7-1.9-0.9-2.3-2.3-4c-1.4-1.7-1.3-1.2-0.9-3c0.4-1.7,0.7-4-0.2-5.2
	c-0.9-1.2-4.4-4.5-7.4-6.1c-2.9-1.6-3.5-0.4-4.8-2.9c-1.3-2.5-1.9-5.1-4-6.6c-2.2-1.5-1.1-1.6-3.1-0.9c-2.1,0.8-2.1,1.1-1.9,1.7
	c0.2,0.6,0.6,1.4,0.3,3.1c-0.3,1.6-0.7,1.1,1.4,2.4c2.2,1.3,1.3,1,2.3,3.4c1.1,2.4,1.3,2.8,2.1,3.8c0.9,1,1.2,1.8,3.3,2.3
	c2.2,0.5,1.8-0.1,2.4,0.4c0.6,0.5-1.5,0.7-1.1,1c0.4,0.2,0.9,0.9,2.7,2c1.8,1.1,3.7,2.3,4.1,3.2c0.5,0.9,2.1,4.2-0.3,1.8
	s-2.4-1.3-3,0.4c-0.6,1.7,0.6,3,0.5,4.2c-0.1,1.2-1.2,0.8-1.9,1.8c-0.7,1-1.1,2.2-2,2.9c-0.9,0.6-0.6-0.7-1.1-0.7
	c-0.5,0-0.6,0.6-1.3,1.8c-0.6,1.2,0,1.7,0.3,3.2c0.3,1.6,0.7,1.7-1,1.6c-1.7-0.1-1.3-1.6-2.8-2.7c-1.6-1-2.5-0.7-3.8-1.5
	c-1.3-0.8,0.6-1,3.8-1.4c3.2-0.4,3.6-0.7,4.6-1.5c1-0.8,0.6-1,1.7-2.5c1.1-1.5,0-2.1-0.7-4c-0.7-1.8-2.1-2.7-2.6-3.1
	c-0.5-0.4-1.6-1.4-2.5-2.5c-1-1-1.9-1.2-3.6-1.6c-1.6-0.4-1.3-1.9-2.2-2.3c-0.9-0.4-1.8-1.7-3.9-3.7c-2.1-1.9-1.3-3.4-2.2-5.1
	c-0.9-1.7-1.9-3-4-3c-2.1,0-3.6,1.4-5.7,3.5c-2.1,2-1.6,3-4,1.4c-2.4-1.5-3.3-1.4-5,0.1c-1.7,1.4-2.1,2.9-2.1,5.8
	c0,2.9-2.1,1.7-3.7,2.5s-3.1,2.8-5.6,7.6c-2.5,4.7,0.2,2.5-0.3,4.1s0.2,2.9-2.2,5c-2.3,2.1-1.3-0.2-2.7,1.4
	c-1.4,1.7-3.3,3.1-6.6,2.7c-3.3-0.4-2.3,0.9-4.4,1.4c-2.1,0.5-3.2,1.2-2.7-1.1c0.5-2.3,0.1-2-3.9-1.8c-4,0.2-5.4,1.2-5,0.6
	c0.3-0.6,0.5-1.5,1-3.8c0.4-2.3,1-3,0.4-3c-0.6,0-1.9,0.3-1-3.7c1-4,1.3-4.7,0.9-7.1c-0.4-2.3,0.2-5.5-0.3-6.8
	c-0.5-1.4,1-2.7,0.3-3.5c-0.7-0.7-1.5-1.7-0.9-1.7c0.5,0,2.7,0.1,5.4,0.6s5.6-0.4,7.2-0.2c1.6,0.2,5.1,0.9,8.5,1.4
	c3.4,0.6,3.4-0.5,3-5.6c-0.3-5.1,0.3-7.4-0.8-8.4c-1-1-2.2-1-3.3-2.3c-1.1-1.4-0.3-3.4-2.7-4.1c-2.4-0.7-5.1-0.2-3.8-0.6
	c1.3-0.5,1.8-0.6,0.4-1.7c-1.4-1-1.7-2.2-0.7-2.3c1-0.2,4-0.2,4-0.2s0.3,1.4,1.8,0.8c1.5-0.6,3.5-1.3,3.1-2.3c-0.4-1-1.2-2.3-1-2.3
	c0.3,0,0.9,1.4,4.1,1.4c3.3,0,3-0.5,2.8-1.9c-0.3-1.4,2.2-1.3,3.8-2.4c1.6-1.1-0.6-2.4-0.3-3.5c0.3-1,2.2-1.7,5.6-1.9
	c3.4-0.2,2.8-0.8,2.4-1.2c-0.3-0.4,0.1-2.1,0.3-4.3c0.3-2.2-0.3-2.9,1.5-3.9c1.7-1,1.2-0.6,4.7-1c3.5-0.3,1.4-1.1,2-1.3
	c0.6-0.2,4.8-1.2,5.6-1.5c0.8-0.3,0.7-0.2,0-1.8c-0.7-1.5-1.6-2.4-2.4-9.5c-0.8-7.1-0.6-7.1,3.7-8.4c4.3-1.3,3.4-0.9,3,3.1
	c-0.3,3.9-2.2,3.9-2.7,6.8c-0.4,2.9-0.1,4.7,1.7,7.7c1.8,3.1,1.6,1.5,5.5,1.5c3.9,0,3,1,5.6,1.9c2.6,0.9,1.7-1.6,4.2-2.5
	c2.5-0.9,2,0.6,7.8-0.3c2.2-0.3,3-0.4,3.2-0.4c-0.2,0-0.8,0-0.2-0.4c1.4-0.8,1.7-2.3,3.7-2.5c2-0.2,3.4,0.6,3.3-2.5
	c-0.1-3.1-1.2-2.6-0.9-4.9c0.3-2.3,0.4-1.3,0.6-3.1c0.2-1.9-0.3-2.2,2.2-2.8c2.5-0.6,0.8,2.3,3.8,2.9c3,0.6,2.6,1.1,3.1-1.2
	c0.5-2.3,2.2-5.4,0.7-5.2c-1.5,0.2-1.8-0.1-3.3-2.3c-1.5-2.2-2.3-2.7-1.4-2.7c0.9,0,4.1-0.9,8.7-0.7c4.6,0.2,5.9,0.6,6.1,0.1
	c0.3-0.5-0.8-1,0.8-1.9c1.6-1,6.6,0.5,5.9-0.4c-0.8-0.9-5.3-2.1-8.3-1.6c-3,0.5-10.4,1.4-11.5,1.3c-1.1-0.1-3.2-0.9-3.7-1.4
	c-0.5-0.6-2.2-1-2.2-3.6s1-3.7-0.6-6.3c-1.6-2.6,2.8-4.7,5.9-7.5c3-2.7,2.2-5,4-5.1c1.8-0.2,2.5-1.1,1.6-2c-0.9-0.9-4.1-3.9-5.6-4.3
	c-1.5-0.3-3.9-2.1-6.3,2.1c-2.4,4.2,0.2,4.6,0.6,6.8c0.4,2.2-3.4,3.8-6.2,5.8c-2.8,2-3.9,1.5-4.7,6.7c-0.9,5.1-1.7,5.3,1.5,7.1
	c3.2,1.8,3.8,2.7,2.3,4.2c-1.5,1.5-4.6,1.4-6.5,5.1c-1.9,3.6-1.1,5.4-1.9,7c-0.8,1.6-3.2,2.3-3.9,3.9c-0.7,1.6-0.7,4.7-3.6,4.2
	c-2.9-0.5-1.3-4.4-2.6-6.4c-1.3-2-2.3-3.7-3.9-6.2c-1.6-2.5-0.3-4.9-1.8-6.2c-1.5-1.3-1.8-3.9-1.8-3.9l-0.5,1.2
	c-0.5,1.2-0.3,1.9-3.2,5.5c-2.9,3.6-7.3,3.9-9.5,3c-2.2-0.9-1.8-3-1.8-5.6s-0.5-6.2-0.1-10.4c0.4-4.2,1.6-3.9,6.2-6.6
	c4.6-2.7,4.7-2.6,5.8-4.3c1.1-1.8,4.4-4.3,6.3-5.9c1.9-1.6,5.2-7.7,6.9-12.1c1.7-4.3,4.9-7,8-11.7c3.1-4.7,8.6-8.8,15.7-11.7
	c7.1-3,5.9-3.3,7.5-5.6c1.6-2.3,2.3-1,5.1-1.5c2.8-0.6,2.3,0-0.4,2.7c-2.8,2.7-4,5.6-1.6,3.5c2.3-2.2,4.1-4.7,7.8-4.6
	c3.6,0.2,2.2,0,5.7,1.6c3.5,1.6,4.1,1.8,2.2,3.1c-2,1.3-5.4,1-5.4,1s1.1,2.7,4.4,3.1c3.3,0.4,5.1-2.6,7.2-1.4
	c2.2,1.1,2.8,1.9-0.2,1.7c-2.9-0.2-3.8,1.6-0.2,2.9c3.6,1.3,4,1.4,8.7,2.1c4.7,0.6,6.8,4.1,10.4,5.6c3.6,1.5,7.9,0.2,6.6,3.5
	c-1.2,3.3,0.9,6.5-5.4,8c-6.3,1.5-6.1-0.5-11.4-2.1c-5.3-1.6-9-3.2-9-3.2s1.4,1.9,3.8,4.1c2.4,2.3,2.7,4.3,2.4,8.4
	c-0.3,4.1-1.4,5.2,2.8,7.2c4.1,2,3.5,1.4,4.8,1.1c1.3-0.3,3.5-0.7,2.9-1.4c-0.5-0.6-0.9-1.8-2.3-2.5c-1.4-0.6-1.5-2.2-0.1-2.9
	c1.4-0.7,2.7,0.6,5.7,0.5c3-0.2,0-1.1,1.5-2.7c1.5-1.5,1.6-4.1,5.1-5.5c3.5-1.4,7.3,0.6,8.3-0.9c0.9-1.5,2-3.3,0-5.6
	c-2-2.3-3.5-3.1-2.3-4.3c1.2-1.1,3.6-4.1,4.7-2.4c1.1,1.7,4,3.5,0.3,3.2c-3.6-0.3-1.1,5.4,2.2,5.1c3.3-0.3,3-1.4,5.7-2.7
	c2.7-1.3,7.9-5.5,11.6-6.8c3.7-1.3,4.5-1,6-0.3c1.5,0.6,1.5,1.8,5.5,1c4.1-0.8,5.3-1.8,9.1-2.4c3.8-0.6-0.3,1.4,1.5,1.9
	c1.7,0.6,1.9,1,3.2,0.2c1.3-0.9,5.4-2.3,3.5-3.8c-1.9-1.4-3.3-2.4-3.3-2.4s1.4-3.1,5-2.8c3.6,0.2,9.1,3.6,12.7,6
	c3.5,2.4,7.8,7.6,7.8,7.6s1.5-2.7,0.3-7.1c-1.3-4.4-4.6-3.4-4.6-7.6c0-4.2-3-3.1-2-6c1-3,4-4.1,4.7-7.9c0.8-3.8,1.5-6.9,4.1-6.9
	c2.7,0,8.5,0.8,8.5,0.8s0,3.5-2.2,8.6c-2.2,5.1,1.1,5.7,0.6,12c-0.5,6.3-0.6,7.1,0.9,8.5c1.5,1.4,4.2,3.2,3.2,5.9
	c-1,2.7-1.6,4.4-5.4,6c-3.9,1.5-8.8,0.6-7,1.9c1.8,1.2,4.1,2.3,6.7,2.7c2.6,0.4,1.3-0.2,3.4-1.9c2.1-1.7,6.7-5.1,6.6-6.7
	c-0.2-1.6-2.7-4.1-0.9-5.3c1.7-1.2,2.4-3.1,5.1-1.5c2.7,1.5,5.3,7.2,5.3,7c0-0.2-0.5-5.6-3.7-8.8c-3.2-3.2-8.5-0.2-8.5-3
	c0-2.8,1.5-6.7,1.1-9.7c-0.3-3.1-1.5-6.1,0.4-8.8c2-2.7,2.1-4.7,2.1-4.7s0.9,2.5,0.2,5.6c-0.7,3.1,0.3,5,1.8,5c1.5,0,8,0.1,4.5-1
	c-3.5-1-4.6-2-1-3.9c3.5-1.9,3.4-0.6,8.5,0.6c5.2,1.2,6.4,2.1,8.1,2c1.7-0.1,1.5-0.2,0.9-1.8c-0.6-1.5-1.4-2.6-3-3.6
	c-1.6-1-2.8,0.2-3.3-1.4c-0.5-1.6-1.5-5.6-1.9-7.2c-0.4-1.5,1.3-0.3,4.1-0.3c2.8,0,10.3-0.4,16-0.6c5.8-0.2,0.1-6.2-0.3-10.5
	c-0.4-4.3,10.7-4.4,16.1-5.2c5.4-0.8,11.7-0.6,21.9-3c10.2-2.4,3.6-2,5.1-4.9c1.5-2.9,4-3.4,7-3.4c3,0,5.8,0.6,4.7,1
	c-1.1,0.4-4.5,2.1,0.8,3.2c5.3,1.1,3.9,1,1.1,2c-2.8,1-0.4,2.7,4.9,2.7c5.3,0,2.2-0.5,1.3-2.3c-0.9-1.8,0.8-1.1,5.2-0.4
	c4.4,0.7,6.1,1.4,8.5,3.7c2.4,2.3,2.8,1.7,3.7,4.8c0.9,3.1-0.1,2.7-3.8,5.5c-3.7,2.9-5.9,2.9-11.3,6.3c-5.4,3.4-4.1,5.1-7,7.4
	c-2.9,2.3-2.2,1.6,4,0c6.2-1.6,9.6-2.7,12.8-2.3c3.2,0.3,4.7,1.5,7.2,1.5c2.4,0-0.2,0.4,7.4,0.4c7.6,0,6.5,0,3.7,2.2
	c-2.8,2.2,0.5,2.8,3.9,2.8c3.4,0,7.5,0.2,10.6-0.3c3.1-0.5,0.4-2.8,4.1-3c3.7-0.2,4.9-0.5,8.9-0.5c4,0,2.8,1.6,4.1,3.1
	c1.4,1.4,3.3,2.4,2,5.3c-1.3,2.9-2,3-1.2,6.9c0.8,3.9,2.8,4.5,5.2,5.2c2.4,0.7,2.4-3.5,4.7-5c2.3-1.4,2.8,2.9,5.5,2.3
	c2.7-0.6,5.7-0.3,8,0.4c2.3,0.7,4.3,1.1,7.6,0.4c3.3-0.7,2.2-2,1.1-4c-1.1-2-1.2-1.9,0.9-3.9c2.1-2.1,3.5-1,10.2,0.7
	c6.7,1.8,4.6,1.8,8.4,2.8c3.8,1,2.6,0.8,8.4,3.5c5.8,2.7,4.7,5.8,7.3,7.5c2.7,1.7,2.8,0,8.2-0.5c5.3-0.5,5.3,0.6,11.1,2.2
	c5.9,1.5,4.3,3.5,4.3,5.2c0,1.7-1.6,3,2,3.8c3.6,0.8,5.1,1.5,8.2,0.7c3.1-0.8,0.3,0.8,7.2,0.9c6.9,0.1,4.6-0.8,6.6,0.6
	c2.1,1.4,2.6,4.3,5.9,4c3.4-0.3,3.1-0.2,1.7-3.2c-1.4-3-2.2-3.5-0.3-3.4c2,0.1,6,1,13.5,2.2c7.5,1.2,7.8,2.6,13.9,6.4
	c6.1,3.9,7.8,4.2,12.3,7.6c1.7,1.3,2,1.7,2.1,1.8c0.1,0,0.6,0.1,2.3,0.9c4.8,2.3,4,1.5,8.1,3.5c4.1,2,7.7,4.8,7.7,4.8
	S1062.7,154.9,1059.6,155.2 M657.2,237c0,0-0.5,0.6,2-1.3c2.4-1.9-1.1-0.1-2.5-0.5c-1.4-0.4-1.8-1-1.4-2.8c0.4-1.8-0.2-1.8-1.6-4.1
	c0,0-0.8-0.5-2.4,0.5c-1.6,1-2.6-1-4.6-0.2c-2,0.7-4.1,0.4-5.4,3.4c-1.2,3-2.6,1-3,3.5c-0.4,2.4-4.1,3.7-4.1,3.7s1.5,1.4,2.6,2.8
	c1.1,1.4,0.3,0.5,1.5,5c1.1,4.5,1.9,4.1,3.5,4.7c1.6,0.6,4,2.2,4,2.2s-1.5-0.9-1.5,1.5c0,2.4-2.3,4.1-2.1,7.6
	c0.3,3.5-3.2,6.8-0.4,7.2c2.8,0.3,1.9,1.5,4.9,2.3c3,0.8,4.7,1.4,9.1,1.4c4.4,0,2-1.7,1.4-4.2c-0.6-2.5-0.9-4.1-1.1-6.8
	c-0.2-2.7-1.2-2-1.9-3.7c-0.7-1.7,0.3-2.7,2.4-2.7c2.1,0,2.3-0.1,1.2-1.9c-1.1-1.9-0.4-2.6-1.8-3.4c-1.4-0.8-2,2.7-2,2.7
	s-0.9-0.8-0.5-4.2c0.3-3.4,0.6-1.8-0.4-2.4c-1-0.6-1.6,0.2-3-2.1s-0.2-1.8-1.8-4.5c-1.6-2.7-0.8-1.3,1-1.3c1.8,0,0.9-0.4,0-1.3
	c-0.9-0.9-1.5-2.3,0.9-2.1c2.3,0.2,5.4,0.6,6.5,0.7C657.6,236.7,657.2,237,657.2,237 M335.5,113.1c-0.8,1.4,1.4,3.1,2.9,2.6
	c1.6-0.5,2.1,0.1,2.9-0.6c0.9-0.7,1-1.7-0.1-2.8c-1.1-1-0.6-1.6-0.8-1.7C338.4,109.3,336.3,111.7,335.5,113.1 M761.8,24.4
	c-2.3,0.1-4.9,0.2-2.8,0.9c2.2,0.7,1.3,4.3,5.4,2.3c4.1-2,3.3-2.2,6.1-3.4c2.8-1.2,1.2-0.6-2.2-1.5
	C766.2,22.2,764.1,24.3,761.8,24.4"/>
</svg>
