<?xml version="1.0" encoding="utf-8"?>
<!-- Generator: Adobe Illustrator 22.0.1, SVG Export Plug-In . SVG Version: 6.00 Build 0)  -->
<svg version="1.1" id="Capa_1" xmlns="http://www.w3.org/2000/svg" xmlns:xlink="http://www.w3.org/1999/xlink" x="0px" y="0px"
	 viewBox="0 0 32 32" style="enable-background:new 0 0 32 32;" xml:space="preserve">
<style type="text/css">
	.st0{fill:#4BA6DD;}
</style>
<g>
	<g>
		<path class="st0" d="M29.7,0H4.8C3.1,0,1.7,1.4,1.7,3.1v3.1c0,0.3,0.3,0.6,0.6,0.6s0.6-0.3,0.6-0.6V3.1c0-1,0.8-1.9,1.9-1.9h0.9
			v20.5c0,0.3,0.3,0.6,0.6,0.6s0.6-0.3,0.6-0.6V1.3h22.1v24.5H4.8c-0.7,0-1.4,0.2-1.9,0.6V11.9c0-0.3-0.3-0.6-0.6-0.6
			s-0.6,0.3-0.6,0.6v16.9c0,1.7,1.4,3.1,3.1,3.1h24.9c0.3,0,0.6-0.3,0.6-0.6V0.6C30.3,0.3,30,0,29.7,0z M29.1,28.3h-5.4
			c-0.3,0-0.6,0.3-0.6,0.6s0.3,0.6,0.6,0.6h5.4v1.3H4.8c-1,0-1.9-0.8-1.9-1.9S3.8,27,4.8,27h24.3V28.3z"/>
	</g>
</g>
<g>
	<g>
		<path class="st0" d="M2.8,8.9C2.6,8.8,2.5,8.7,2.3,8.7S2,8.8,1.9,8.9C1.8,9,1.7,9.1,1.7,9.3s0.1,0.3,0.2,0.4
			C2,9.9,2.1,9.9,2.3,9.9s0.3-0.1,0.4-0.2c0.1-0.1,0.2-0.3,0.2-0.4S2.9,9,2.8,8.9z"/>
	</g>
</g>
<g>
	<g>
		<path class="st0" d="M6.8,23.6c-0.1-0.1-0.3-0.2-0.4-0.2S6,23.4,5.9,23.6c-0.1,0.1-0.2,0.3-0.2,0.4c0,0.2,0.1,0.3,0.2,0.4
			c0.1,0.1,0.3,0.2,0.4,0.2s0.3-0.1,0.4-0.2s0.2-0.3,0.2-0.4C6.9,23.8,6.9,23.7,6.8,23.6z"/>
	</g>
</g>
<g>
	<g>
		<path class="st0" d="M27.2,11.2h-0.3c-0.6,0-1.1-0.3-1.3-0.9l0,0c-0.2-0.5-0.1-1.1,0.3-1.5l0.2-0.2c0.2-0.2,0.2-0.6,0-0.9
			l-2.3-2.3c-0.1-0.1-0.3-0.2-0.4-0.2S23,5.2,22.9,5.4l-0.2,0.2c-0.4,0.4-1,0.5-1.5,0.3l0,0c-0.5-0.2-0.9-0.7-0.9-1.3V4.3
			c0-0.3-0.3-0.6-0.6-0.6h-3.3c-0.3,0-0.6,0.3-0.6,0.6v0.3c0,0.6-0.3,1.1-0.9,1.3l0,0c-0.5,0.2-1.1,0.1-1.5-0.3l-0.2-0.2
			c-0.1-0.1-0.3-0.2-0.4-0.2s-0.3,0.1-0.4,0.2L9.9,7.7C9.7,7.8,9.7,8,9.7,8.1c0,0.2,0.1,0.3,0.2,0.4l0.2,0.2c0.4,0.4,0.5,1,0.3,1.5
			l0,0c-0.2,0.5-0.7,0.9-1.3,0.9H8.8c-0.3,0-0.6,0.3-0.6,0.6v3.3c0,0.3,0.3,0.6,0.6,0.6h0.3c0.6,0,1.1,0.3,1.3,0.9l0,0
			c0.2,0.5,0.1,1.1-0.3,1.5l-0.2,0.2c-0.1,0.1-0.2,0.3-0.2,0.4s0.1,0.3,0.2,0.4l2.3,2.3c0.1,0.1,0.3,0.2,0.4,0.2s0.3-0.1,0.4-0.2
			l0.2-0.2c0.4-0.4,1-0.5,1.5-0.3l0,0c0.5,0.2,0.9,0.7,0.9,1.3v0.3c0,0.3,0.3,0.6,0.6,0.6h3.3c0.3,0,0.6-0.3,0.6-0.6v-0.3
			c0-0.6,0.3-1.1,0.9-1.3l0,0c0.5-0.2,1.1-0.1,1.5,0.3l0.2,0.2c0.2,0.2,0.6,0.2,0.9,0l2.3-2.3c0.1-0.1,0.2-0.3,0.2-0.4
			s-0.1-0.3-0.2-0.4l-0.2-0.2c-0.4-0.4-0.5-1-0.3-1.5l0,0c0.2-0.5,0.7-0.9,1.3-0.9h0.3c0.3,0,0.6-0.3,0.6-0.6v-3.3
			C27.9,11.5,27.6,11.2,27.2,11.2z M13.7,19.8C13.7,19.8,13.7,19.8,13.7,19.8c-0.4,0.1-0.8,0.3-1.1,0.5l-1.5-1.5
			c0.2-0.3,0.4-0.6,0.5-1c0,0,0,0,0,0l2.5-2.5c0.2-0.2,0.2-0.4,0.2-0.6c-0.5-1.4-0.1-2.9,0.9-3.9c0.9-0.9,2.1-1.3,3.2-1.1l-1.8,1.8
			c-0.2,0.2-0.2,0.4-0.2,0.6l0.5,2c0.1,0.2,0.2,0.4,0.5,0.5l2,0.5c0.2,0.1,0.4,0,0.6-0.2l1.8-1.8c0.1,1.2-0.3,2.3-1.1,3.2
			c-1,1-2.5,1.4-3.9,0.9c-0.2-0.1-0.5,0-0.7,0.2L13.7,19.8z M26.6,14.5c-0.9,0.1-1.8,0.7-2.1,1.6l0,0c-0.4,0.9-0.2,1.9,0.4,2.7
			l-1.5,1.5c-0.7-0.6-1.8-0.7-2.7-0.4l0,0c-0.9,0.4-1.5,1.2-1.6,2.1H17c-0.1-0.9-0.7-1.8-1.6-2.1l1.5-1.5c1.7,0.4,3.5-0.1,4.8-1.4
			c1.5-1.5,1.9-3.6,1.1-5.5c-0.1-0.2-0.2-0.3-0.5-0.4c-0.2,0-0.4,0-0.6,0.2l-2.3,2.3l-1.3-0.3l-0.3-1.3l2.3-2.3
			c0.1-0.1,0.2-0.4,0.2-0.6c0-0.2-0.2-0.4-0.4-0.5C18,8,15.8,8.4,14.4,9.9c-1.3,1.3-1.8,3.1-1.4,4.8l-1.5,1.5c0,0,0,0,0,0l0,0
			c-0.4-0.9-1.2-1.5-2.1-1.6v-2.1c0.9-0.1,1.8-0.7,2.1-1.6l0,0c0.4-0.9,0.2-1.9-0.4-2.7l1.5-1.5c0.7,0.6,1.8,0.7,2.7,0.4l0,0
			c0.9-0.4,1.5-1.2,1.6-2.1H19c0.1,0.9,0.7,1.8,1.6,2.1l0,0c0.9,0.4,1.9,0.2,2.7-0.4l1.5,1.5c-0.6,0.7-0.7,1.8-0.4,2.7c0,0,0,0,0,0
			l0,0c0.4,0.9,1.2,1.5,2.1,1.6L26.6,14.5L26.6,14.5z"/>
	</g>
</g>
<g>
	<g>
		<path class="st0" d="M21.7,28.4c-0.1-0.1-0.3-0.2-0.4-0.2c-0.2,0-0.3,0.1-0.4,0.2c-0.1,0.1-0.2,0.3-0.2,0.4s0.1,0.3,0.2,0.4
			c0.1,0.1,0.3,0.2,0.4,0.2c0.2,0,0.3-0.1,0.4-0.2c0.1-0.1,0.2-0.3,0.2-0.4S21.8,28.5,21.7,28.4z"/>
	</g>
</g>
</svg>
