<?xml version="1.0" encoding="utf-8"?>
<!-- Generator: Adobe Illustrator 22.0.1, SVG Export Plug-In . SVG Version: 6.00 Build 0)  -->
<svg version="1.1" id="Capa_1" xmlns="http://www.w3.org/2000/svg" xmlns:xlink="http://www.w3.org/1999/xlink" x="0px" y="0px"
	 viewBox="0 0 32 32" style="enable-background:new 0 0 32 32;" xml:space="preserve">
<style type="text/css">
	.st0{fill:#4BA6DD;}
	.st1{fill:#FFFFFF;}
</style>
<g>
	<path class="st0" d="M12.4,12.9c0.1-0.9,0.2-1.5,0.5-2c0.5-1,1.4-1.5,2.7-1.5c1.1,0,1.8,0.3,2.3,0.9c0.5,0.6,0.7,1.2,0.7,2
		c0,0.5-0.2,1.1-0.5,1.6c-0.2,0.3-0.4,0.6-0.7,0.8l-0.9,0.9c-0.8,0.8-1.3,1.5-1.6,2.1c-0.2,0.5-0.3,1.3-0.3,2.1H16
		c0-0.8,0.1-1.5,0.3-1.9c0.2-0.5,0.7-1.1,1.4-1.8c0.9-0.9,1.6-1.6,1.9-2.1c0.3-0.4,0.4-1,0.4-1.7c0-1.2-0.4-2.2-1.2-2.9
		c-0.8-0.8-1.9-1.1-3.2-1.1c-1.5,0-2.6,0.5-3.4,1.3l0,0l0,0c-0.8,0.8-1.2,2-1.2,3.3H12.4z"/>
	<polygon points="12.2,9.5 12.2,9.5 12.2,9.5 12.2,9.5 	"/>
	<polygon class="st1" points="12,9.4 12,9.4 12,9.4 	"/>
	<path class="st0" d="M16,0C7.2,0,0,7.2,0,16s7.2,16,16,16s16-7.2,16-16S24.8,0,16,0z M16,31C7.7,31,1,24.3,1,16S7.7,1,16,1
		s15,6.7,15,15S24.3,31,16,31z"/>
	<rect x="14.6" y="22.1" class="st0" width="1.6" height="1.7"/>
</g>
</svg>
