<?xml version="1.0" encoding="utf-8"?>
<!-- Generator: Adobe Illustrator 22.0.1, SVG Export Plug-In . SVG Version: 6.00 Build 0)  -->
<svg version="1.1" id="Layer_1" xmlns="http://www.w3.org/2000/svg" xmlns:xlink="http://www.w3.org/1999/xlink" x="0px" y="0px"
	 viewBox="0 0 123.1 90" style="enable-background:new 0 0 123.1 90;" xml:space="preserve">
<style type="text/css">
	.st0{fill:#4CA6DC;}
</style>
<g>
	<path class="st0" d="M80.4,27.3h-1.2v-9.6C79.2,8,71.2,0,61.4,0S43.7,8,43.7,17.7c0,1,0.8,1.8,1.8,1.8c1,0,1.8-0.8,1.8-1.8
		c0-7.8,6.3-14.2,14.2-14.2c7.8,0,14.2,6.3,14.2,14.2v9.6H42.5c-3,0-5.5,2.5-5.5,5.5v24.9c0,3,2.5,5.5,5.5,5.5h37.8
		c3,0,5.5-2.5,5.5-5.5V32.8C85.8,29.7,83.4,27.3,80.4,27.3z M80.4,59.5H42.5c-1,0-1.9-0.8-1.9-1.9V32.7c0-1,0.8-1.9,1.9-1.9h37.8
		c1,0,1.9,0.8,1.9,1.9l0,24.9C82.2,58.7,81.4,59.5,80.4,59.5z"/>
	<path class="st0" d="M62,39.2L62,39.2c-0.2,0-0.4-0.1-0.6-0.1c-1.2,0-2.4,0.8-3,2c-0.6,1.4-0.2,3,1.1,4c0.5,0.4,0.6,0.7,0.6,1.2
		v4.9c0,0.5,0.3,0.9,0.7,1.2c0.4,0.3,1,0.3,1.5,0c0.4-0.2,0.7-0.7,0.6-1.2l0-4.9c0-0.4,0.1-0.8,0.6-1.2c0.9-0.7,1.3-1.5,1.3-2.6
		C64.7,40.8,63.6,39.5,62,39.2z"/>
	<path class="st0" d="M7.9,54.1c3.5,0,6.6-2.4,7.6-5.7l0.1-0.4h13.1c1,0,1.8-0.8,1.8-1.8c0-1-0.8-1.8-1.8-1.8H15.6L15.5,44
		c-1-3.4-4.1-5.7-7.6-5.7c-4.4,0-7.9,3.5-7.9,7.9C0,50.5,3.5,54.1,7.9,54.1z M7.9,41.9c2.4,0,4.3,1.9,4.3,4.3c0,2.4-1.9,4.3-4.3,4.3
		c-2.4,0-4.3-1.9-4.3-4.3C3.6,43.8,5.5,41.9,7.9,41.9z"/>
	<path class="st0" d="M5.7,17.8l0.4,0.1v7.9c0,4.8,3.9,8.6,8.6,8.6h14c1,0,1.8-0.8,1.8-1.8c0-1-0.8-1.8-1.8-1.8H14.8
		c-2.8,0-5.1-2.3-5.1-5.1v-7.9l0.4-0.1c3.4-1,5.7-4.1,5.7-7.6c0-4.4-3.5-7.9-7.9-7.9S0,5.9,0,10.3C0,13.8,2.4,16.9,5.7,17.8z M7.9,6
		c2.4,0,4.3,1.9,4.3,4.3s-1.9,4.3-4.3,4.3c-2.4,0-4.3-1.9-4.3-4.3S5.5,6,7.9,6z"/>
	<path class="st0" d="M28.7,57.9H14.8c-4.8,0-8.6,3.9-8.6,8.6v7.9l-0.4,0.1c-3.4,1-5.7,4.1-5.7,7.6C0,86.4,3.6,90,7.9,90
		s7.9-3.5,7.9-7.9c0-3.5-2.4-6.6-5.7-7.6l-0.4-0.1v-7.9c0-2.8,2.3-5.1,5.1-5.1h14c1,0,1.8-0.8,1.8-1.8
		C30.5,58.7,29.7,57.9,28.7,57.9z M12.2,82.1c0,2.4-1.9,4.3-4.3,4.3c-2.4,0-4.3-1.9-4.3-4.3c0-2.4,1.9-4.3,4.3-4.3
		C10.3,77.8,12.2,79.7,12.2,82.1z"/>
	<path class="st0" d="M94.2,48h13.1l0.1,0.4c1,3.4,4.1,5.7,7.6,5.7c4.4,0,7.9-3.5,7.9-7.9c0-4.4-3.5-7.9-7.9-7.9
		c-3.5,0-6.6,2.4-7.6,5.7l-0.1,0.4H94.2c-1,0-1.8,0.8-1.8,1.8C92.4,47.2,93.2,48,94.2,48z M115,41.9c2.4,0,4.3,1.9,4.3,4.3
		c0,1.1-0.4,2.2-1.2,3c-0.8,0.8-1.9,1.3-3.1,1.3c-2.4,0-4.3-1.9-4.3-4.3C110.7,43.8,112.6,41.9,115,41.9z"/>
	<path class="st0" d="M117.1,74.5l-0.4-0.1v-7.9c0-4.8-3.9-8.6-8.6-8.6h-14c-1,0-1.8,0.8-1.8,1.8c0,1,0.8,1.8,1.8,1.8h14
		c2.8,0,5.1,2.3,5.1,5.1v7.9l-0.4,0.1c-3.4,1-5.7,4.1-5.7,7.6c0,4.4,3.5,7.9,7.9,7.9s7.9-3.5,7.9-7.9
		C122.9,78.6,120.5,75.5,117.1,74.5z M118.1,85.1c-0.8,0.8-1.9,1.3-3.1,1.3c-2.4,0-4.3-1.9-4.3-4.3c0-2.4,1.9-4.3,4.3-4.3
		c2.4,0,4.3,1.9,4.3,4.3C119.3,83.2,118.9,84.3,118.1,85.1z"/>
	<path class="st0" d="M94.2,34.5h14c4.8,0,8.6-3.9,8.6-8.6v-7.9l0.4-0.1c3.4-1,5.7-4.1,5.7-7.6c0-4.4-3.5-7.9-7.9-7.9
		s-7.9,3.5-7.9,7.9c0,3.5,2.4,6.6,5.7,7.6l0.4,0.1v7.9c0,2.8-2.3,5.1-5.1,5.1h-14c-1,0-1.8,0.8-1.8,1.8
		C92.4,33.7,93.2,34.5,94.2,34.5z M110.7,10.3c0-2.4,1.9-4.3,4.3-4.3c2.4,0,4.3,1.9,4.3,4.3s-1.9,4.3-4.3,4.3
		C112.6,14.6,110.7,12.6,110.7,10.3z"/>
</g>
</svg>
