<?xml version="1.0" encoding="utf-8"?>
<!-- Generator: Adobe Illustrator 22.0.1, SVG Export Plug-In . SVG Version: 6.00 Build 0)  -->
<svg version="1.1" id="Layer_1" xmlns="http://www.w3.org/2000/svg" xmlns:xlink="http://www.w3.org/1999/xlink" x="0px" y="0px"
	 viewBox="0 0 300 90" style="enable-background:new 0 0 300 90;" xml:space="preserve">
<style type="text/css">
	.st0{fill:none;stroke:#000000;stroke-width:3;stroke-linecap:round;stroke-linejoin:round;stroke-miterlimit:10;}
</style>
<g>
	<line class="st0" x1="120.8" y1="44.9" x2="165.8" y2="44.9"/>
	<polyline class="st0" points="155.4,37.5 165.8,44.9 155.5,52.6 	"/>
</g>
<g>
	<path d="M258,43.3l-21.5-13.7c-0.6-0.4-1.4-0.4-2-0.1c-0.6,0.3-1,1-1,1.7v27.4c0,0.7,0.4,1.4,1,1.7c0.3,0.2,0.6,0.2,0.9,0.2
		c0.4,0,0.7-0.1,1.1-0.3L258,46.7c0.6-0.4,0.9-1,0.9-1.7S258.6,43.7,258,43.3z M237.4,55.1V34.9L253.3,45L237.4,55.1z"/>
	<path d="M298,0h-19.6H208h-19.6c-1.1,0-2,0.9-2,2v21.5V45v21.5V88c0,1.1,0.9,2,2,2H208h70.4H298c1.1,0,2-0.9,2-2V66.5V45V23.5V2
		C300,0.9,299.1,0,298,0z M206.1,43h-15.7V25.4h15.7V43z M190.4,47h15.7v17.6h-15.7V47z M210,66.5V45V23.5V3.9h66.5v19.6V45v21.5
		v19.6H210V66.5z M296.1,43h-15.7V25.4h15.7V43z M280.4,47h15.7v17.6h-15.7V47z M296.1,3.9v17.6h-15.7V3.9H296.1z M190.4,3.9h15.7
		v17.6h-15.7V3.9z M190.4,86.1V68.5h15.7v17.6H190.4z M296.1,86.1h-15.7V68.5h15.7V86.1z"/>
</g>
<g>
	<g>
		<path d="M36.7,50v10c0,3.7,3,6.7,6.7,6.7h10V64v-7.3v-3.3h-10v3.3H50v6.7h-6.7c-2,0-3.3-1.3-3.3-3.3V50c0-2,1.3-3.3,3.3-3.3h10
			v-3.3h-10C39.7,43.3,36.7,46.3,36.7,50z"/>
		<polygon points="56.7,46.7 60,46.7 60,63.3 56.7,63.3 56.7,66.7 66.7,66.7 66.7,63.3 63.3,63.3 63.3,46.7 66.7,46.7 66.7,43.3 
			56.7,43.3 		"/>
		<path d="M90,33.3H63.3v-10L43.3,0H6.7C3,0,0,3,0,6.7v76.7C0,87,3,90,6.7,90h50c3.7,0,6.7-3,6.7-6.7v-6.7H90c5.7,0,10-4.3,10-10
			V43.3C100,37.7,95.7,33.3,90,33.3z M43.3,5L59,23.3H46.7c-1.7,0-3.3-1.7-3.3-3.3V5z M60,83.3c0,1.7-1.3,3.3-3.3,3.3h-50
			c-1.7,0-3.3-1.3-3.3-3.3V6.7c0-1.7,1.3-3.3,3.3-3.3H40V20c0,3.7,3,6.7,6.7,6.7H60v6.7H33.3c-5.7,0-10,4.3-10,10v23.3
			c0,5.7,4.3,10,10,10H60V83.3z M96.7,66.7c0,3.7-3,6.7-6.7,6.7H33.3c-3.7,0-6.7-3-6.7-6.7V43.3c0-3.7,3-6.7,6.7-6.7H90
			c3.7,0,6.7,3,6.7,6.7V66.7z"/>
		<polygon points="70,66.7 73.3,66.7 73.3,56.7 83.3,56.7 83.3,53.3 73.3,53.3 73.3,46.7 86.7,46.7 86.7,43.3 70,43.3 		"/>
	</g>
</g>
</svg>
