<?xml version="1.0" encoding="utf-8"?>
<!-- Generator: Adobe Illustrator 22.0.1, SVG Export Plug-In . SVG Version: 6.00 Build 0)  -->
<svg version="1.1" id="Layer_1" xmlns="http://www.w3.org/2000/svg" xmlns:xlink="http://www.w3.org/1999/xlink" x="0px" y="0px"
	 viewBox="0 0 16.7 14.3" style="enable-background:new 0 0 16.7 14.3;" xml:space="preserve">
<style type="text/css">
	.st0{fill:#231F20;}
</style>
<g>
	<path class="st0" d="M14.2,11.3c0,1.6-1.3,2.9-2.9,2.9H2.9c-1.6,0-2.9-1.3-2.9-2.9V2.9C0,1.3,1.3,0,2.9,0h8.4
		c0.4,0,0.8,0.1,1.2,0.3c0.1,0,0.2,0.1,0.2,0.2c0,0.1,0,0.2-0.1,0.3L12,1.3c-0.1,0.1-0.2,0.1-0.2,0.1c0,0-0.1,0-0.1,0
		c-0.2,0-0.3-0.1-0.5-0.1H2.9C2,1.3,1.3,2,1.3,2.9v8.4c0,0.9,0.7,1.6,1.6,1.6h8.4c0.9,0,1.6-0.7,1.6-1.6V8.7c0-0.1,0-0.2,0.1-0.2
		l0.6-0.6c0.1-0.1,0.2-0.1,0.2-0.1c0,0,0.1,0,0.1,0c0.1,0.1,0.2,0.2,0.2,0.3V11.3z M8.3,11.3c-0.3,0.3-0.8,0.3-1.1,0L2.9,7
		c-0.3-0.3-0.3-0.8,0-1.1L4,4.8c0.3-0.3,0.8-0.3,1.1,0l2.6,2.6l6.5-6.5c0.3-0.3,0.8-0.3,1.1,0L16.5,2c0.3,0.3,0.3,0.8,0,1.1
		L8.3,11.3z"/>
</g>
</svg>
