<?xml version="1.0" encoding="utf-8"?>
<!-- Generator: Adobe Illustrator 22.0.1, SVG Export Plug-In . SVG Version: 6.00 Build 0)  -->
<svg version="1.1" id="Layer_1" xmlns="http://www.w3.org/2000/svg" xmlns:xlink="http://www.w3.org/1999/xlink" x="0px" y="0px"
	 viewBox="0 0 90 90" style="enable-background:new 0 0 90 90;" xml:space="preserve">
<style type="text/css">
	.st0{fill:#4BA6DD;}
</style>
<path class="st0" d="M82.7,21.8H72.6v-0.2c2.5-0.6,4.4-2.9,4.4-5.6c0-3.2-2.6-5.8-5.8-5.8c-2.1,0-3.9,1.1-4.9,2.7L42.1,6.1
	c0-0.1,0-0.2,0-0.3c0-3.2-2.6-5.8-5.8-5.8c-3.2,0-5.8,2.6-5.8,5.8c0,0.5,0.1,1,0.2,1.4l-8.6,5.4c-0.9-0.6-2-1-3.2-1
	c-3.2,0-5.8,2.6-5.8,5.8c0,1.7,0.8,3.3,2,4.4H7.3C3.3,21.8,0,25,0,29v43.5c0,4,3.3,7.3,7.3,7.3h17.4v7.3h-5.8V90h52.3v-2.9h-5.8
	v-7.3h17.4c4,0,7.3-3.3,7.3-7.3V29C90,25,86.7,21.8,82.7,21.8 M71.1,13.1c1.6,0,2.9,1.3,2.9,2.9s-1.3,2.9-2.9,2.9
	c-1.6,0-2.9-1.3-2.9-2.9S69.5,13.1,71.1,13.1 M74,46.5c0,1.6-1.3,2.9-2.9,2.9c-1.6,0-2.9-1.3-2.9-2.9s1.3-2.9,2.9-2.9
	C72.7,43.5,74,44.9,74,46.5 M66.9,19.9c0.7,0.8,1.7,1.3,2.8,1.6v19.3c-1.4,0.4-2.7,1.3-3.4,2.5l-11.1-3.1v-7.1
	c2.5-0.6,4.4-2.9,4.4-5.6c0-0.9-0.2-1.8-0.6-2.6L66.9,19.9z M24,45.3l8-5c1.1,1.1,2.5,1.8,4.2,1.8c2.1,0,3.9-1.1,4.9-2.7l11.1,3.1
	v10c-1.4,0.4-2.7,1.3-3.4,2.5l-24.2-6.7c0-0.1,0-0.2,0-0.3C24.7,47,24.4,46.1,24,45.3 M52.3,33.2v6.3l-10.2-2.8c0-0.1,0-0.2,0-0.3
	c0-2.7-1.9-5-4.4-5.6v-6.3l10.2,2.8c0,0.1,0,0.2,0,0.3C47.9,30.3,49.8,32.5,52.3,33.2 M50.8,27.6c0-1.6,1.3-2.9,2.9-2.9
	c1.6,0,2.9,1.3,2.9,2.9c0,1.6-1.3,2.9-2.9,2.9C52.1,30.5,50.8,29.2,50.8,27.6 M39.2,36.3c0,1.6-1.3,2.9-2.9,2.9
	c-1.6,0-2.9-1.3-2.9-2.9c0-1.6,1.3-2.9,2.9-2.9C37.9,33.4,39.2,34.7,39.2,36.3 M53.7,55.2c1.6,0,2.9,1.3,2.9,2.9S55.3,61,53.7,61
	c-1.6,0-2.9-1.3-2.9-2.9S52.1,55.2,53.7,55.2 M55.2,52.5v-9.2l10.2,2.8c0,0.1,0,0.2,0,0.3c0,0.5,0.1,1,0.2,1.4l-8.6,5.4
	C56.4,52.9,55.8,52.6,55.2,52.5 M41.2,8.9l24.2,6.7c0,0.1,0,0.2,0,0.3c0,0.5,0.1,1,0.2,1.4l-8.6,5.4c-0.9-0.6-2-1-3.2-1
	c-2.1,0-3.9,1.1-4.9,2.7l-11.1-3.1v-10C39.2,11,40.4,10.1,41.2,8.9 M36.3,2.9c1.6,0,2.9,1.3,2.9,2.9s-1.3,2.9-2.9,2.9
	c-1.6,0-2.9-1.3-2.9-2.9S34.7,2.9,36.3,2.9 M32.1,9.8c0.7,0.8,1.7,1.3,2.8,1.6v9.2l-10.2-2.8c0-0.1,0-0.2,0-0.3
	c0-0.9-0.2-1.8-0.6-2.6L32.1,9.8z M23.8,20.5l11.1,3.1v7.1c-2.5,0.6-4.4,2.9-4.4,5.6c0,0.5,0.1,1,0.2,1.4l-8.6,5.4
	c-0.5-0.4-1.1-0.6-1.8-0.8V23C21.8,22.6,23,21.7,23.8,20.5 M21.8,47.9c0,1.6-1.3,2.9-2.9,2.9S16,49.5,16,47.9c0-1.6,1.3-2.9,2.9-2.9
	S21.8,46.3,21.8,47.9 M18.9,14.5c1.6,0,2.9,1.3,2.9,2.9s-1.3,2.9-2.9,2.9S16,19,16,17.4S17.3,14.5,18.9,14.5 M62.4,87.1H27.6v-7.3
	h34.8V87.1z M87.1,72.6c0,2.4-2,4.4-4.4,4.4H7.3c-2.4,0-4.4-2-4.4-4.4v-2.9h84.2V72.6z M87.1,66.8H2.9V29c0-2.4,2-4.4,4.4-4.4h10.2
	v17.6c-2.5,0.6-4.4,2.9-4.4,5.6c0,3.2,2.6,5.8,5.8,5.8c2.1,0,3.9-1.1,4.9-2.7l24.2,6.7c0,0.1,0,0.2,0,0.3c0,3.2,2.6,5.8,5.8,5.8
	c3.2,0,5.8-2.6,5.8-5.8c0-0.9-0.2-1.8-0.6-2.6l8-5c1.1,1.1,2.5,1.8,4.2,1.8c3.2,0,5.8-2.6,5.8-5.8c0-2.7-1.9-5-4.4-5.6V24.7h10.2
	c2.4,0,4.4,2,4.4,4.4V66.8z"/>
<polygon class="st0" points="8.7,30.5 13.1,30.5 13.1,27.6 5.8,27.6 5.8,34.8 8.7,34.8 "/>
<polygon class="st0" points="81.3,61 76.9,61 76.9,63.9 84.2,63.9 84.2,56.6 81.3,56.6 "/>
<polygon class="st0" points="8.7,56.6 5.8,56.6 5.8,63.9 13.1,63.9 13.1,61 8.7,61 "/>
<polygon class="st0" points="76.9,30.5 81.3,30.5 81.3,34.8 84.2,34.8 84.2,27.6 76.9,27.6 "/>
</svg>
