<?xml version="1.0" encoding="utf-8"?>
<!-- Generator: Adobe Illustrator 22.0.1, SVG Export Plug-In . SVG Version: 6.00 Build 0)  -->
<svg version="1.1" id="Layer_1" xmlns="http://www.w3.org/2000/svg" xmlns:xlink="http://www.w3.org/1999/xlink" x="0px" y="0px"
	 viewBox="0 0 32 32" style="enable-background:new 0 0 32 32;" xml:space="preserve">
<style type="text/css">
	.st0{fill:#FFFFFF;}
</style>
<path class="st0" d="M28.7,9.5c0,0.3,0,0.6,0,0.9C28.7,19,22.1,29,10.1,29C6.4,29,2.9,27.9,0,26.1c0.5,0.1,1,0.1,1.6,0.1
	c3.1,0,5.9-1,8.1-2.8c-2.9-0.1-5.3-1.9-6.1-4.5c0.4,0.1,0.8,0.1,1.2,0.1c0.6,0,1.2-0.1,1.7-0.2c-3-0.6-5.3-3.2-5.3-6.4
	c0,0,0-0.1,0-0.1c0.9,0.5,1.9,0.8,3,0.8c-1.8-1.2-2.9-3.2-2.9-5.5c0-1.2,0.3-2.3,0.9-3.3c3.2,4,8.1,6.6,13.5,6.9
	c-0.1-0.5-0.2-1-0.2-1.5c0-3.6,2.9-6.6,6.6-6.6c1.9,0,3.6,0.8,4.8,2.1c1.5-0.3,2.9-0.8,4.2-1.6c-0.5,1.5-1.5,2.8-2.9,3.6
	c1.3-0.1,2.6-0.5,3.8-1C31.1,7.4,30,8.5,28.7,9.5z"/>
</svg>
