<?xml version="1.0" encoding="utf-8"?>
<!-- Generator: Adobe Illustrator 22.0.1, SVG Export Plug-In . SVG Version: 6.00 Build 0)  -->
<svg version="1.1" id="Layer_1" xmlns="http://www.w3.org/2000/svg" xmlns:xlink="http://www.w3.org/1999/xlink" x="0px" y="0px"
	 viewBox="0 0 77.8 90" style="enable-background:new 0 0 77.8 90;" xml:space="preserve">
<style type="text/css">
	.st0{fill:#fff;}
</style>
<path class="st0" d="M55.9,57.8H18.8c-0.4,0-0.8,0.2-1,0.4L0,76l2.1,2.1l17.4-17.4h34.8C54,62.5,53,65.2,50,65.2H33.7v3H50
	c5.9,0,7.4-5.8,7.4-8.9C57.4,58.5,56.7,57.8,55.9,57.8"/>
<path class="st0" d="M74.7,47.9c-0.6-0.6-1.5-0.6-2.1,0L59.3,61.2l2.1,2.1l12.2-12.2c2,2.7,1.6,6.4-0.9,8.6L55.3,77.1H24.8
	c-0.4,0-0.8,0.2-1,0.4L13.3,87.9l2.1,2.1l9.9-9.9h30.5c0.4,0,0.8-0.2,1-0.4l17.8-17.8C80.3,56.3,77.2,50.3,74.7,47.9"/>
<path class="st0" d="M66.3,20.8H61c-0.4-1.4-1-2.7-1.6-3.9l3.8-3.8c0.6-0.6,0.6-1.5,0-2.1l-6.3-6.3c-0.6-0.6-1.5-0.6-2.1,0l-3.8,3.8
	c-1.2-0.7-2.6-1.2-3.9-1.6V1.5C47,0.7,46.3,0,45.5,0h-8.9c-0.8,0-1.5,0.7-1.5,1.5v5.3c-1.4,0.4-2.7,1-3.9,1.6l-3.8-3.8
	c-0.6-0.6-1.5-0.6-2.1,0L19.1,11c-0.6,0.6-0.6,1.5,0,2.1l3.8,3.8c-0.7,1.2-1.2,2.6-1.6,3.9h-5.3c-0.8,0-1.5,0.7-1.5,1.5v8.9
	c0,0.8,0.7,1.5,1.5,1.5h5.3c0.4,1.4,1,2.7,1.6,3.9l-3.8,3.8c-0.6,0.6-0.6,1.5,0,2.1l6.3,6.3c0.6,0.6,1.5,0.6,2.1,0l3.8-3.8
	c1.2,0.7,2.6,1.2,3.9,1.6v5.3c0,0.8,0.7,1.5,1.5,1.5h8.9c0.8,0,1.5-0.7,1.5-1.5v-5.3c1.4-0.4,2.7-1,3.9-1.6l3.8,3.8
	c0.3,0.3,0.7,0.4,1,0.4c0.4,0,0.8-0.2,1-0.4l6.3-6.3c0.6-0.6,0.6-1.5,0-2.1l-3.8-3.8c0.7-1.2,1.2-2.6,1.6-3.9h5.3
	c0.8,0,1.5-0.7,1.5-1.5v-8.9C67.8,21.4,67.1,20.8,66.3,20.8 M64.8,29.7h-5c-0.7,0-1.3,0.5-1.4,1.1c-0.4,1.8-1.2,3.6-2.2,5.2
	c-0.4,0.6-0.3,1.3,0.2,1.8l3.5,3.5l-4.2,4.2L52.2,42c-0.5-0.5-1.2-0.6-1.8-0.2c-1.6,1-3.4,1.7-5.2,2.2c-0.7,0.2-1.1,0.8-1.1,1.4v5
	h-5.9v-5c0-0.7-0.5-1.3-1.1-1.4c-1.8-0.4-3.6-1.2-5.2-2.2c-0.6-0.4-1.3-0.3-1.8,0.2l-3.5,3.5l-4.2-4.2l3.5-3.5
	c0.5-0.5,0.6-1.2,0.2-1.8c-1-1.6-1.7-3.4-2.2-5.2c-0.2-0.7-0.8-1.1-1.4-1.1h-5v-5.9h5c0.7,0,1.3-0.5,1.4-1.1
	c0.4-1.8,1.2-3.6,2.2-5.2c0.4-0.6,0.3-1.3-0.2-1.8L22.2,12l4.2-4.2l3.5,3.5c0.5,0.5,1.2,0.6,1.8,0.2c1.6-1,3.4-1.7,5.2-2.2
	c0.7-0.2,1.1-0.8,1.1-1.4V3H44v5c0,0.7,0.5,1.3,1.1,1.4c1.8,0.4,3.6,1.2,5.2,2.2c0.6,0.4,1.3,0.3,1.8-0.2l3.5-3.5l4.2,4.2l-3.5,3.5
	c-0.5,0.5-0.6,1.2-0.2,1.8c1,1.6,1.7,3.4,2.2,5.2c0.2,0.7,0.8,1.1,1.4,1.1h5V29.7z"/>
<path class="st0" d="M41.1,17.8c-4.9,0-8.9,4-8.9,8.9c0,4.9,4,8.9,8.9,8.9c4.9,0,8.9-4,8.9-8.9C50,21.8,46,17.8,41.1,17.8
	 M41.1,32.6c-3.3,0-5.9-2.7-5.9-5.9c0-3.3,2.7-5.9,5.9-5.9c3.3,0,5.9,2.7,5.9,5.9C47,30,44.4,32.6,41.1,32.6"/>
</svg>
