<?xml version="1.0" encoding="utf-8"?>
<!-- Generator: Adobe Illustrator 22.0.1, SVG Export Plug-In . SVG Version: 6.00 Build 0)  -->
<svg version="1.1" id="Layer_1" xmlns="http://www.w3.org/2000/svg" xmlns:xlink="http://www.w3.org/1999/xlink" x="0px" y="0px"
	 viewBox="0 0 90 90" style="enable-background:new 0 0 90 90;" xml:space="preserve">
<style type="text/css">
	.st0{fill:#fff;}
</style>
<path class="st0" d="M80.2,0c-5.4,0-9.8,4.4-9.8,9.8c0,1.7,0.4,3.3,1.2,4.7L55.5,30.6c-2.2-1.7-5-2.8-8-2.8c-3,0-5.8,1-8,2.8
	L26.9,18c0.6-1,0.9-2.1,0.9-3.3c0-3.6-2.9-6.5-6.5-6.5s-6.5,2.9-6.5,6.5c0,3.6,2.9,6.5,6.5,6.5c1.2,0,2.3-0.4,3.3-0.9l12.5,12.5
	c-1.7,2.2-2.8,5-2.8,8c0,3,1,5.8,2.8,8L16.4,69.6c-1.7-1.6-4-2.6-6.6-2.6c-5.4,0-9.8,4.4-9.8,9.8c0,5.4,4.4,9.8,9.8,9.8
	s9.8-4.4,9.8-9.8c0-1.7-0.4-3.3-1.2-4.7l21-21c1.8,1.4,4,2.3,6.4,2.6v16.6c-4.6,0.8-8.2,4.8-8.2,9.7c0,5.4,4.4,9.8,9.8,9.8
	s9.8-4.4,9.8-9.8c0-4.9-3.5-8.9-8.2-9.7V53.9c2.4-0.3,4.6-1.2,6.4-2.6L68,63.8c-0.6,1-0.9,2.1-0.9,3.3c0,3.6,2.9,6.5,6.5,6.5
	s6.5-2.9,6.5-6.5c0-3.6-2.9-6.5-6.5-6.5c-1.2,0-2.3,0.4-3.3,0.9L57.8,48.9c1.7-2.2,2.8-5,2.8-8c0-3-1-5.8-2.8-8l15.8-15.8
	c1.7,1.6,4,2.6,6.6,2.6c5.4,0,9.8-4.4,9.8-9.8C90,4.4,85.6,0,80.2,0 M18,14.7c0-1.8,1.5-3.3,3.3-3.3c1.8,0,3.3,1.5,3.3,3.3
	c0,1.8-1.5,3.3-3.3,3.3C19.5,18,18,16.5,18,14.7 M9.8,83.5c-3.6,0-6.5-2.9-6.5-6.5c0-3.6,2.9-6.5,6.5-6.5s6.5,2.9,6.5,6.5
	C16.4,80.5,13.4,83.5,9.8,83.5 M54,80.2c0,3.6-2.9,6.5-6.5,6.5s-6.5-2.9-6.5-6.5c0-3.6,2.9-6.5,6.5-6.5S54,76.6,54,80.2 M47.5,50.7
	c-5.4,0-9.8-4.4-9.8-9.8s4.4-9.8,9.8-9.8s9.8,4.4,9.8,9.8S52.9,50.7,47.5,50.7 M76.9,67.1c0,1.8-1.5,3.3-3.3,3.3s-3.3-1.5-3.3-3.3
	c0-1.8,1.5-3.3,3.3-3.3S76.9,65.3,76.9,67.1 M80.2,16.4c-3.6,0-6.5-2.9-6.5-6.5c0-3.6,2.9-6.5,6.5-6.5s6.5,2.9,6.5,6.5
	C86.7,13.4,83.8,16.4,80.2,16.4"/>
</svg>
