<?xml version="1.0" encoding="utf-8"?>
<!-- Generator: Adobe Illustrator 22.0.1, SVG Export Plug-In . SVG Version: 6.00 Build 0)  -->
<svg version="1.1" id="Layer_1" xmlns="http://www.w3.org/2000/svg" xmlns:xlink="http://www.w3.org/1999/xlink" x="0px" y="0px"
	 viewBox="0 0 76.5 90" style="enable-background:new 0 0 76.5 90;" xml:space="preserve">
<style type="text/css">
	.st0{fill:#fff;}
</style>
<path class="st0" d="M38.4,90c-0.6,0-1.1-0.1-1.6-0.3C-0.6,76.8,0,46.3,0.4,24.1c0-2.3,0.1-4.5,0.1-6.6c0-2.7,2.2-5,5-5
	c12.3,0,21.7-3.5,29.5-11.1c1.9-1.9,5-1.9,6.9,0C49.7,9,59,12.5,71.4,12.5c2.7,0,5,2.2,5,5c0,2.1,0,4.3,0.1,6.6
	c0.4,22.2,1,52.7-36.4,65.6C39.5,89.9,39,90,38.4,90 M38.4,3.9c-0.3,0-0.5,0.1-0.7,0.3c-8.6,8.3-18.8,12.2-32.2,12.2
	c-0.6,0-1.1,0.5-1.1,1.1c0,2.1,0,4.3-0.1,6.7C3.9,45.2,3.3,74,38.1,86c0.2,0.1,0.5,0.1,0.7,0c34.7-12,34.2-40.8,33.8-61.9
	c0-2.3-0.1-4.5-0.1-6.7c0-0.6-0.5-1.1-1.1-1.1c-13.4,0-23.7-3.9-32.2-12.2C38.9,4,38.7,3.9,38.4,3.9"/>
<path class="st0" d="M34.2,55.4c-0.5,0-1-0.2-1.3-0.5l-9.5-9c-0.8-0.7-0.8-2-0.1-2.8c0.7-0.8,2-0.8,2.8-0.1l8.2,7.7l16.5-15.7
	c0.8-0.7,2-0.7,2.8,0.1c0.7,0.8,0.7,2-0.1,2.8l-17.9,17C35.2,55.3,34.7,55.4,34.2,55.4"/>
</svg>
