<?xml version="1.0" encoding="utf-8"?>
<!-- Generator: Adobe Illustrator 22.0.1, SVG Export Plug-In . SVG Version: 6.00 Build 0)  -->
<svg version="1.1" id="Layer_1" xmlns="http://www.w3.org/2000/svg" xmlns:xlink="http://www.w3.org/1999/xlink" x="0px" y="0px"
	 viewBox="0 0 90 90" style="enable-background:new 0 0 90 90;" xml:space="preserve">
<style type="text/css">
	.st0{fill:#4CA6DC;}
</style>
<g>
	<path class="st0" d="M12.6,22.5c5.7,0,10.3-4.2,11.1-9.6h62.8c0.9,0,1.6-0.7,1.6-1.6s-0.7-1.6-1.6-1.6H23.7C22.9,4.2,18.2,0,12.6,0
		C6.4,0,1.3,5,1.3,11.3S6.4,22.5,12.6,22.5z M12.6,3.2c4.4,0,8,3.6,8,8s-3.6,8-8,8s-8-3.6-8-8S8.2,3.2,12.6,3.2z"/>
	<path class="st0" d="M76.9,67.5c-5.7,0-10.3,4.2-11.1,9.6H2.9c-0.9,0-1.6,0.7-1.6,1.6s0.7,1.6,1.6,1.6h62.8
		c0.8,5.4,5.5,9.6,11.1,9.6c6.2,0,11.3-5,11.3-11.3S83.1,67.5,76.9,67.5z M76.9,86.8c-4.4,0-8-3.6-8-8s3.6-8,8-8s8,3.6,8,8
		S81.3,86.8,76.9,86.8z"/>
	<path class="st0" d="M86.5,43.4H56.6c-0.6-5.8-5.6-10.3-11.5-10.3s-10.9,4.5-11.5,10.3H2.9c-0.9,0-1.6,0.7-1.6,1.6s0.7,1.6,1.6,1.6
		h30.7c0.9,5.5,5.7,9.6,11.4,9.6s10.5-4.2,11.4-9.6h30c0.9,0,1.6-0.7,1.6-1.6S87.4,43.4,86.5,43.4z M45.1,53c-4.6,0-8.4-3.8-8.4-8.4
		s3.8-8.4,8.4-8.4s8.4,3.8,8.4,8.4S49.7,53,45.1,53z"/>
</g>
</svg>
