<?xml version="1.0" encoding="utf-8"?>
<!-- Generator: Adobe Illustrator 22.0.1, SVG Export Plug-In . SVG Version: 6.00 Build 0)  -->
<svg version="1.1" id="Layer_1" xmlns="http://www.w3.org/2000/svg" xmlns:xlink="http://www.w3.org/1999/xlink" x="0px" y="0px"
	 viewBox="0 0 90 90" style="enable-background:new 0 0 90 90;" xml:space="preserve">
<style type="text/css">
	.st0{fill:#4CA6DC;}
</style>
<g>
	<g>
		<path class="st0" d="M45,0C20.1,0,0,20.1,0,45s20.1,45,45,45s45-20.1,45-45C90,20.2,69.8,0,45,0z M45,87C21.8,87,3,68.2,3,45
			S21.8,3,45,3s42,18.8,42,42C87,68.2,68.2,87,45,87z"/>
	</g>
</g>
<g>
	<g>
		<path class="st0" d="M45,6C23.5,6,6,23.5,6,45s17.5,39,39,39s39-17.5,39-39C84,23.5,66.5,6,45,6z M45,81C25.1,81,9,64.9,9,45
			S25.1,9,45,9s36,16.1,36,36C81,64.9,64.9,81,45,81z"/>
	</g>
</g>
<g>
	<g>
		<rect x="10.5" y="43.5" class="st0" width="6" height="3"/>
	</g>
</g>
<g>
	<g>
		<rect x="73.5" y="43.5" class="st0" width="6" height="3"/>
	</g>
</g>
<g>
	<g>
		<rect x="14.7" y="59.3" transform="matrix(0.8661 -0.4999 0.4999 0.8661 -27.9973 16.9928)" class="st0" width="6" height="3"/>
	</g>
</g>
<g>
	<g>
		<rect x="69.3" y="27.8" transform="matrix(0.8661 -0.4999 0.4999 0.8661 -4.9425 40.0497)" class="st0" width="6" height="3"/>
	</g>
</g>
<g>
	<g>
		<rect x="16.2" y="26.2" transform="matrix(0.4999 -0.8661 0.8661 0.4999 -16.4706 29.9747)" class="st0" width="3" height="6"/>
	</g>
</g>
<g>
	<g>
		<rect x="70.8" y="57.7" transform="matrix(0.4999 -0.8661 0.8661 0.4999 -16.4596 92.9804)" class="st0" width="3" height="6"/>
	</g>
</g>
<g>
	<g>
		<rect x="27.7" y="14.7" transform="matrix(0.8661 -0.4999 0.4999 0.8661 -4.942 16.992)" class="st0" width="3" height="6"/>
	</g>
</g>
<g>
	<g>
		<rect x="43.5" y="10.5" class="st0" width="3" height="6"/>
	</g>
</g>
<g>
	<g>
		<rect x="57.7" y="16.2" transform="matrix(0.4999 -0.8661 0.8661 0.4999 15.0355 61.4745)" class="st0" width="6" height="3"/>
	</g>
</g>
<g>
	<g>
		<rect x="12.3" y="34.4" transform="matrix(0.2588 -0.9659 0.9659 0.2588 -25.139 40.5419)" class="st0" width="3" height="4.5"/>
	</g>
</g>
<g>
	<g>
		<rect x="74.6" y="51.1" transform="matrix(0.2588 -0.9659 0.9659 0.2588 4.9085 113.0848)" class="st0" width="3" height="4.5"/>
	</g>
</g>
<g>
	<g>
		<rect x="20.7" y="19.9" transform="matrix(0.7071 -0.7071 0.7071 0.7071 -9.1934 22.1959)" class="st0" width="3" height="4.5"/>
	</g>
</g>
<g>
	<g>
		<rect x="35.1" y="11.6" transform="matrix(0.9659 -0.2588 0.2588 0.9659 -2.336 9.9562)" class="st0" width="3" height="4.5"/>
	</g>
</g>
<g>
	<g>
		<rect x="51.1" y="12.4" transform="matrix(0.2588 -0.9659 0.9659 0.2588 26.1523 61.798)" class="st0" width="4.5" height="3"/>
	</g>
</g>
<g>
	<g>
		<rect x="65.6" y="20.7" transform="matrix(0.7071 -0.7071 0.7071 0.7071 4.1617 54.4468)" class="st0" width="4.5" height="3"/>
	</g>
</g>
<g>
	<g>
		<rect x="73.9" y="35.2" transform="matrix(0.9659 -0.2588 0.2588 0.9659 -6.891 20.9591)" class="st0" width="4.5" height="3"/>
	</g>
</g>
<g>
	<g>
		<rect x="11.6" y="51.8" transform="matrix(0.9659 -0.2588 0.2588 0.9659 -13.3346 5.4015)" class="st0" width="4.5" height="3"/>
	</g>
</g>
<g>
	<g>
		<path class="st0" d="M51.4,20.3C37.7,16.8,23.8,25,20.3,38.7c-1.7,6.5-0.7,13.3,2.6,19.1c0.4,0.7,1.4,0.9,2.1,0.5
			c0.7-0.4,0.9-1.3,0.5-2c-6.2-10.8-2.5-24.5,8.3-30.7s24.5-2.5,30.7,8.3c2.9,5.1,3.8,11.2,2.3,16.9c-0.2,0.8,0.3,1.6,1.1,1.8
			c0.8,0.2,1.6-0.3,1.8-1.1v0C73.2,37.7,65,23.8,51.4,20.3z"/>
	</g>
</g>
<g>
	<g>
		<path class="st0" d="M66.9,55.8L50.4,42.3c0,0-0.1-0.1-0.1-0.1c-1.5-2.9-5.1-4.1-8.1-2.6c-2.9,1.5-4.1,5.1-2.6,8.1
			c1,1.9,2.9,3.1,5,3.2l20.9,7.4c0.2,0.1,0.3,0.1,0.5,0.1c0.8,0,1.5-0.7,1.5-1.5C67.5,56.5,67.3,56.1,66.9,55.8z M45,48
			c-1.7,0-3-1.3-3-3s1.3-3,3-3s3,1.3,3,3S46.7,48,45,48z M49.1,49.4c0.8-0.8,1.4-1.8,1.7-2.9l7.6,6.2L49.1,49.4z"/>
	</g>
</g>
<g>
	<g>
		<path class="st0" d="M51,60H39c-4.1,0-7.5,3.4-7.5,7.5S34.9,75,39,75h12c4.1,0,7.5-3.4,7.5-7.5S55.1,60,51,60z M51,72H39
			c-2.5,0-4.5-2-4.5-4.5s2-4.5,4.5-4.5h12c2.5,0,4.5,2,4.5,4.5S53.5,72,51,72z"/>
	</g>
</g>
<g>
	<g>
		<path class="st0" d="M42,66h-3c-0.8,0-1.5,0.7-1.5,1.5S38.2,69,39,69h3c0.8,0,1.5-0.7,1.5-1.5S42.8,66,42,66z"/>
	</g>
</g>
<g>
	<g>
		<path class="st0" d="M51,66h-3c-0.8,0-1.5,0.7-1.5,1.5S47.2,69,48,69h3c0.8,0,1.5-0.7,1.5-1.5S51.8,66,51,66z"/>
	</g>
</g>
</svg>
