<?xml version="1.0" encoding="utf-8"?>
<!-- Generator: Adobe Illustrator 22.0.1, SVG Export Plug-In . SVG Version: 6.00 Build 0)  -->
<svg version="1.1" id="Capa_1" xmlns="http://www.w3.org/2000/svg" xmlns:xlink="http://www.w3.org/1999/xlink" x="0px" y="0px"
	 viewBox="0 0 32 32" style="enable-background:new 0 0 32 32;" xml:space="preserve">
<g>
	<path d="M23.2,11.7H9.8c-0.3,0-0.5,0.2-0.5,0.5c0,0.3,0.2,0.5,0.5,0.5h13.3c0.3,0,0.5-0.2,0.5-0.5C23.7,12,23.5,11.7,23.2,11.7z"/>
	<path d="M9.8,8.5h5.3c0.3,0,0.5-0.2,0.5-0.5c0-0.3-0.2-0.5-0.5-0.5H9.8C9.5,7.5,9.3,7.7,9.3,8C9.3,8.3,9.5,8.5,9.8,8.5z"/>
	<path d="M23.2,16H9.8c-0.3,0-0.5,0.2-0.5,0.5s0.2,0.5,0.5,0.5h13.3c0.3,0,0.5-0.2,0.5-0.5S23.5,16,23.2,16z"/>
	<path d="M23.2,20.3H9.8c-0.3,0-0.5,0.2-0.5,0.5c0,0.3,0.2,0.5,0.5,0.5h13.3c0.3,0,0.5-0.2,0.5-0.5C23.7,20.5,23.5,20.3,23.2,20.3z"
		/>
	<path d="M23.2,24.5H9.8c-0.3,0-0.5,0.2-0.5,0.5c0,0.3,0.2,0.5,0.5,0.5h13.3c0.3,0,0.5-0.2,0.5-0.5C23.7,24.8,23.5,24.5,23.2,24.5z"
		/>
	<path d="M21.3,0H4v32H29V7.8L21.3,0z M21.6,1.8l5.6,5.6h-5.6V1.8z M5,30.9V1.1h15.5v7.5H28v22.4H5z"/>
</g>
</svg>
