<?xml version="1.0" encoding="utf-8"?>
<!-- Generator: Adobe Illustrator 22.0.1, SVG Export Plug-In . SVG Version: 6.00 Build 0)  -->
<svg version="1.1" id="Layer_1" xmlns="http://www.w3.org/2000/svg" xmlns:xlink="http://www.w3.org/1999/xlink" x="0px" y="0px"
	 viewBox="0 0 32 32" style="enable-background:new 0 0 32 32;" xml:space="preserve">
<style type="text/css">
	.st0{fill:#4BA6DD;}
</style>
<g>
	<g>
		<path class="st0" d="M32,6C32,6,32,5.9,32,6c0-0.1,0-0.1,0-0.2l0,0c0-0.1,0-0.1-0.1-0.2l0,0l0,0l0,0l0,0l-0.1-0.1l0,0
			c0,0-0.1,0-0.1-0.1c0,0,0,0-0.1,0h-0.1c0,0,0,0-0.1,0l0,0l-31,6.3C0.2,11.8,0,12,0,12.2s0.1,0.4,0.3,0.5l8.9,4.7l1.6,8.6l0,0v0.1
			c0,0,0,0,0,0.1c0,0,0,0.1,0.1,0.1l0,0l0,0l0,0l0.1,0.1l0,0l0,0c0,0,0.1,0,0.1,0.1l0,0h0.1l0,0l0,0l0,0c0.1,0,0.3-0.1,0.4-0.2
			l5.9-3.9l6.2,4c0.1,0.1,0.2,0.1,0.3,0.1c0.1,0,0.1,0,0.2,0c0.2,0,0.3-0.2,0.3-0.3L32,6L32,6L32,6L32,6L32,6z M25.8,9.4L13,18.8
			c0,0,0,0-0.1,0.1l0,0l0,0l0,0V19l0,0l0,0l-1.5,4.8l-1.2-6.4L25.8,9.4z M12.2,24.8l1.5-4.8l2.3,1.5l0.6,0.4l-2.2,1.5L12.2,24.8z
			 M27.7,7.2L9.6,16.5l-7.5-4L27.7,7.2z M23.7,25.3L15.5,20l-1.2-0.8L30.4,7.4L23.7,25.3z"/>
	</g>
</g>
</svg>
