<?xml version="1.0" encoding="utf-8"?>
<!-- Generator: Adobe Illustrator 22.0.1, SVG Export Plug-In . SVG Version: 6.00 Build 0)  -->
<svg version="1.1" id="Layer_1" xmlns="http://www.w3.org/2000/svg" xmlns:xlink="http://www.w3.org/1999/xlink" x="0px" y="0px"
	 viewBox="0 0 300 90" style="enable-background:new 0 0 300 90;" xml:space="preserve">
<style type="text/css">
	.st0{clip-path:url(#SVGID_2_);}
	.st1{fill:none;stroke:#000000;stroke-width:3;stroke-linecap:round;stroke-linejoin:round;stroke-miterlimit:10;}
</style>
<g>
	<g>
		<defs>
			<rect id="SVGID_1_" y="0.1" width="86.5" height="90"/>
		</defs>
		<clipPath id="SVGID_2_">
			<use xlink:href="#SVGID_1_"  style="overflow:visible;"/>
		</clipPath>
		<path class="st0" d="M22.5,41.8c5.3,0,9.6-4.3,9.6-9.6c0-5.3-4.3-9.6-9.6-9.6s-9.6,4.3-9.6,9.6S17.2,41.8,22.5,41.8 M22.5,26
			c3.4,0,6.2,2.8,6.2,6.2c0,3.4-2.8,6.2-6.2,6.2s-6.2-2.8-6.2-6.2C16.3,28.8,19.1,26,22.5,26"/>
		<path class="st0" d="M0,0.1v69.2v20.8h86.5V69.3V0.1H0z M3.5,3.5h79.6v46.3L65.2,33.4c-0.3-0.3-0.8-0.5-1.2-0.5
			c-0.5,0-0.9,0.2-1.2,0.6l-17,18.6l-8.2-8.2c-0.6-0.6-1.7-0.7-2.4-0.1l-29,25.5H3.5V3.5z M83.1,86.6H3.5V72.8h79.6V86.6z
			 M11.5,69.3l24.8-21.8l17.8,17.8c0.7,0.7,1.8,0.7,2.4,0c0.7-0.7,0.7-1.8,0-2.4l-8.3-8.3l15.9-17.4l18.9,17.4v14.8H11.5z"/>
	</g>
</g>
<g>
	<line class="st1" x1="120.8" y1="44.9" x2="165.8" y2="44.9"/>
	<polyline class="st1" points="155.4,37.5 165.8,44.9 155.5,52.6 	"/>
</g>
<path d="M296.1,31.5V7.1c0-3.9-3.2-7.1-7.1-7.1h-82.2c-3.9,0-7.1,3.2-7.1,7.1v49.7c0,3.9,3.2,7.1,7.1,7.1h23.3l-2.7,2.9h-4
	c-0.9,0-1.6,0.7-1.6,1.6c0,0.9,0.7,1.6,1.6,1.6h22.9v15.9c0,2.3,1.9,4.2,4.2,4.2h17.7c2.3,0,4.2-1.9,4.2-4.2v-3.3h22.1
	c3.1,0,5.6-2.5,5.6-5.6v-40C300.1,34.4,298.4,32.2,296.1,31.5L296.1,31.5z M296.8,36.9v0.4H259v-0.4c0-1.3,1.1-2.3,2.3-2.3h33.1
	C295.8,34.6,296.8,35.6,296.8,36.9z M268.2,50.8H259V40.7h37.8v32.5h-24.5V55C272.4,52.7,270.5,50.8,268.2,50.8L268.2,50.8z
	 M269.1,57.1h-19.4V55c0-0.5,0.4-0.9,0.9-0.9h17.7c0.5,0,0.9,0.4,0.9,0.9L269.1,57.1L269.1,57.1z M292.9,8.8v22.5h-31.5
	c-3.1,0-5.6,2.5-5.6,5.6v13.9h-5.2c-2.3,0-4.2,1.9-4.2,4.1h-43.3V8.8L292.9,8.8L292.9,8.8z M249.7,60.4h19.4v20.1h-19.4V60.4z
	 M206.9,3.4h82.2c1.5,0,2.8,0.9,3.4,2.1h-89C204.1,4.2,205.4,3.4,206.9,3.4L206.9,3.4z M203.4,58.2h43v2.4h-39.5
	C205.3,60.6,203.9,59.6,203.4,58.2z M232,66.8l2.7-2.9h11.7v2.9H232z M268.2,86.8h-17.7c-0.5,0-0.9-0.4-0.9-0.9v-2.2h19.4v2.2
	C269.1,86.4,268.7,86.8,268.2,86.8z M294.5,79.3h-22.1v-2.8h24.5v0.4C296.8,78.2,295.8,79.3,294.5,79.3z"/>
<path d="M296.1,31.5V7.1c0-3.9-3.2-7.1-7.1-7.1h-82.2c-3.9,0-7.1,3.2-7.1,7.1v49.7c0,3.9,3.2,7.1,7.1,7.1h23.3l-2.7,2.9h-4
	c-0.9,0-1.6,0.7-1.6,1.6c0,0.9,0.7,1.6,1.6,1.6h22.9v15.9c0,2.3,1.9,4.2,4.2,4.2h17.7c2.3,0,4.2-1.9,4.2-4.2v-3.3h22.1
	c3.1,0,5.6-2.5,5.6-5.6v-40C300.1,34.4,298.4,32.2,296.1,31.5L296.1,31.5z M296.8,36.9v0.4H259v-0.4c0-1.3,1.1-2.3,2.3-2.3h33.1
	C295.8,34.6,296.8,35.6,296.8,36.9z M268.2,50.8H259V40.7h37.8v32.5h-24.5V55C272.4,52.7,270.5,50.8,268.2,50.8L268.2,50.8z
	 M269.1,57.1h-19.4V55c0-0.5,0.4-0.9,0.9-0.9h17.7c0.5,0,0.9,0.4,0.9,0.9L269.1,57.1L269.1,57.1z M292.9,8.8v22.5h-31.5
	c-3.1,0-5.6,2.5-5.6,5.6v13.9h-5.2c-2.3,0-4.2,1.9-4.2,4.1h-43.3V8.8L292.9,8.8L292.9,8.8z M249.7,60.4h19.4v20.1h-19.4V60.4z
	 M206.9,3.4h82.2c1.5,0,2.8,0.9,3.4,2.1h-89C204.1,4.2,205.4,3.4,206.9,3.4L206.9,3.4z M203.4,58.2h43v2.4h-39.5
	C205.3,60.6,203.9,59.6,203.4,58.2z M232,66.8l2.7-2.9h11.7v2.9H232z M268.2,86.8h-17.7c-0.5,0-0.9-0.4-0.9-0.9v-2.2h19.4v2.2
	C269.1,86.4,268.7,86.8,268.2,86.8z M294.5,79.3h-22.1v-2.8h24.5v0.4C296.8,78.2,295.8,79.3,294.5,79.3z"/>
<path d="M288.3,56c-0.3,0-0.5,0.1-0.7,0.3l-9.3,10.2l-4.5-4.5c-0.4-0.4-0.9-0.4-1.3,0l-3.3,3h2.9l1-1l9.8,9.8c0.4,0.4,1,0.4,1.3,0
	c0.4-0.4,0.4-1,0-1.3l-4.6-4.6l8.8-9.6l10.4,9.6v-2.6l-9.9-9C288.8,56,288.5,56,288.3,56z"/>
<path d="M263.6,72.2c-0.1,0-0.3,0.1-0.3,0.2l-4.8,5.3l-2.3-2.3c-0.2-0.2-0.5-0.2-0.7,0l-6,5.3h1.5l4.8-4.3l5.1,5.1
	c0.2,0.2,0.5,0.2,0.7,0c0.2-0.2,0.2-0.5,0-0.7l-2.4-2.4l4.5-5l5.4,4.9V77l-5.1-4.7C263.9,72.3,263.8,72.2,263.6,72.2z"/>
<path d="M218,32.8c5.4,0,9.8-4.4,9.8-9.8c0-5.4-4.4-9.9-9.8-9.9c-5.4,0-9.8,4.4-9.8,9.8S212.6,32.8,218,32.8z M218,16.6
	c3.5,0,6.3,2.8,6.3,6.3s-2.8,6.3-6.3,6.3s-6.3-2.8-6.3-6.3S214.5,16.6,218,16.6z"/>
<path d="M254.6,72c1.5,0,2.7-1.2,2.7-2.7c0-1.5-1.2-2.7-2.7-2.7s-2.7,1.2-2.7,2.7C251.8,70.8,253.1,72,254.6,72z M254.6,67.5
	c1,0,1.7,0.8,1.7,1.7c0,1-0.8,1.7-1.7,1.7s-1.7-0.8-1.7-1.7C252.8,68.3,253.6,67.5,254.6,67.5z"/>
<path d="M272.4,55.5c2.7,0,4.9-2.2,4.9-4.9c0-2.7-2.2-4.9-4.9-4.9c-2.7,0-4.9,2.2-4.9,4.9S269.7,55.5,272.4,55.5z M272.4,47.5
	c1.7,0,3.2,1.4,3.2,3.2s-1.4,3.2-3.2,3.2s-3.2-1.4-3.2-3.2S270.6,47.5,272.4,47.5z"/>
<path d="M263.2,20.2c-0.5,0-0.9,0.2-1.2,0.6l-17.3,19l-8.4-8.4c-0.7-0.7-1.7-0.7-2.4-0.1l-29.6,26.1h5.4L235,35l18.2,18.2
	c0.7,0.7,1.8,0.7,2.5,0c0.7-0.7,0.7-1.8,0-2.5l-8.5-8.5l16.2-17.8l11.1,10.1l1.9-3.1l-11.9-10.8C264.1,20.4,263.7,20.2,263.2,20.2z"
	/>
</svg>
