<?xml version="1.0" encoding="utf-8"?>
<!-- Generator: Adobe Illustrator 22.0.1, SVG Export Plug-In . SVG Version: 6.00 Build 0)  -->
<svg version="1.1" id="Layer_1" xmlns="http://www.w3.org/2000/svg" xmlns:xlink="http://www.w3.org/1999/xlink" x="0px" y="0px"
	 viewBox="0 0 32 32" style="enable-background:new 0 0 32 32;" xml:space="preserve">
<style type="text/css">
	.st0{fill:#231F20;}
</style>
<g>
	<path class="st0" d="M29.5,32c-0.7,0-1.3-0.3-1.7-0.7l-6.6-6.6c-2.2,1.6-4.9,2.4-7.7,2.4C6.1,27.1,0,21,0,13.5C0,6.1,6.1,0,13.5,0
		s13.5,6.1,13.5,13.5c0,2.7-0.8,5.4-2.4,7.7l6.6,6.6c0.4,0.4,0.7,1.1,0.7,1.7C32,30.9,30.9,32,29.5,32z M13.5,4.9
		c-4.8,0-8.6,3.9-8.6,8.6s3.9,8.6,8.6,8.6s8.6-3.9,8.6-8.6S18.3,4.9,13.5,4.9z"/>
</g>
</svg>
