<?xml version="1.0" encoding="utf-8"?>
<!-- Generator: Adobe Illustrator 22.0.1, SVG Export Plug-In . SVG Version: 6.00 Build 0)  -->
<svg version="1.1" id="Layer_1" xmlns="http://www.w3.org/2000/svg" xmlns:xlink="http://www.w3.org/1999/xlink" x="0px" y="0px"
	 viewBox="0 0 32 32" style="enable-background:new 0 0 32 32;" xml:space="preserve">
<style type="text/css">
	.st0{fill:#FFFFFF;}
</style>
<path class="st0" d="M24,32c-1.8,0-3.5-0.6-4.9-1.7c-1,0.2-2.1,0.3-3.1,0.3C7.9,30.7,1.3,24.1,1.3,16c0-1.1,0.1-2.1,0.3-3.1
	C0.6,11.5,0,9.8,0,8c0-4.4,3.6-8,8-8c1.8,0,3.5,0.6,4.9,1.7c1-0.2,2.1-0.3,3.1-0.3c8.1,0,14.7,6.6,14.7,14.7c0,1.1-0.1,2.1-0.3,3.1
	c1,1.4,1.7,3,1.7,4.9C32,28.4,28.4,32,24,32z M18,13.9l-2.2-0.5c-1.6-0.4-2.8-0.6-2.8-1.9c0-1.1,1.2-1.6,3-1.6
	c3.3,0,3.3,2.4,5.4,2.4c1.4,0,2.2-1.1,2.2-2.3c0-2.4-4-4-7.9-4c-3.6,0-7.8,1.6-7.8,5.8c0,3.5,2.3,4.7,5.4,5.5l3,0.8
	c1.9,0.5,3,0.7,3,2c0,1.1-1.2,1.9-3,1.9c-3.9,0-4.1-3.2-6.3-3.2c-1.5,0-2.1,1-2.1,2.2c0,2.6,3.9,4.6,8.6,4.6c3.9,0,8-2,8-6.2
	C24.4,15.9,20.9,14.6,18,13.9z"/>
</svg>
