<?xml version="1.0" encoding="utf-8"?>
<!-- Generator: Adobe Illustrator 22.0.1, SVG Export Plug-In . SVG Version: 6.00 Build 0)  -->
<svg version="1.1" id="Layer_1" xmlns="http://www.w3.org/2000/svg" xmlns:xlink="http://www.w3.org/1999/xlink" x="0px" y="0px"
	 viewBox="0 0 32 32" style="enable-background:new 0 0 32 32;" xml:space="preserve">
<style type="text/css">
	.st0{fill:#FFFFFF;}
</style>
<path class="st0" d="M28.8,29c-0.3,1.4-1.5,2.4-2.9,2.6C22.6,32,19.3,32,16,32s-6.6,0-9.9-0.4c-1.4-0.1-2.5-1.2-2.9-2.6
	c-0.5-2-0.5-4.2-0.5-6.3c0-2.1,0-4.2,0.5-6.2c0.3-1.4,1.5-2.4,2.9-2.6c3.3-0.4,6.6-0.4,9.9-0.4s6.6,0,9.9,0.4
	c1.4,0.2,2.5,1.2,2.9,2.6c0.5,2,0.5,4.2,0.5,6.2C29.2,24.8,29.2,27,28.8,29z M10.3,18.3v-1.7H4.7v1.7h1.9v10.2h1.8V18.3H10.3z
	 M13.2,0l-2.2,7.1V12H9.3V7.1C9.1,6.2,8.8,5,8.2,3.3C7.8,2.2,7.4,1.1,7,0h1.9l1.3,4.7L11.4,0H13.2z M15.1,28.5v-8.8h-1.6v6.8
	c-0.4,0.5-0.7,0.7-1,0.7c-0.2,0-0.3-0.1-0.4-0.4c0-0.1,0-0.2,0-0.6v-6.5h-1.6v7c0,0.6,0.1,1,0.1,1.3c0.1,0.4,0.5,0.7,1,0.7
	c0.6,0,1.2-0.4,1.8-1.1v1H15.1z M18,9.1c0,0.9-0.2,1.7-0.5,2.1c-0.4,0.6-1.1,0.9-1.9,0.9c-0.8,0-1.4-0.3-1.9-0.9
	c-0.3-0.5-0.5-1.2-0.5-2.1V5.9c0-0.9,0.2-1.6,0.5-2.1c0.4-0.6,1.1-0.9,1.9-0.9c0.8,0,1.4,0.3,1.9,0.9C17.9,4.3,18,5,18,5.9V9.1z
	 M16.4,5.6c0-0.8-0.2-1.2-0.8-1.2c-0.5,0-0.8,0.4-0.8,1.2v3.8c0,0.8,0.2,1.2,0.8,1.2c0.5,0,0.8-0.4,0.8-1.2V5.6z M21.2,22.3
	c0-0.8,0-1.4-0.2-1.8c-0.2-0.7-0.6-1-1.3-1c-0.6,0-1.1,0.3-1.7,1v-3.9h-1.6v11.8h1.6v-0.9c0.5,0.7,1.1,1,1.7,1c0.6,0,1.1-0.3,1.3-1
	c0.1-0.4,0.2-1,0.2-1.8V22.3z M19.6,26c0,0.8-0.2,1.2-0.7,1.2c-0.3,0-0.5-0.1-0.8-0.4v-5.4c0.3-0.3,0.5-0.4,0.8-0.4
	c0.5,0,0.7,0.4,0.7,1.2V26z M24,12h-1.6v-1c-0.6,0.7-1.3,1.1-1.8,1.1c-0.5,0-0.9-0.2-1.1-0.7c-0.1-0.3-0.1-0.7-0.1-1.3v-7H21v6.6
	c0,0.4,0,0.6,0,0.6c0,0.2,0.2,0.4,0.4,0.4c0.3,0,0.7-0.2,1-0.8V3.1H24V12z M27.3,25.4h-1.6c0,0.6,0,1,0,1.1
	c-0.1,0.4-0.3,0.6-0.7,0.6c-0.6,0-0.8-0.4-0.8-1.2v-1.6h3.2v-1.8c0-0.9-0.2-1.6-0.5-2.1c-0.5-0.6-1.1-0.9-1.9-0.9
	c-0.8,0-1.4,0.3-1.9,0.9c-0.3,0.4-0.5,1.1-0.5,2.1v3.1c0,0.9,0.2,1.6,0.5,2.1c0.5,0.6,1.1,0.9,1.9,0.9c0.8,0,1.5-0.3,1.9-0.9
	c0.2-0.3,0.3-0.6,0.4-1c0-0.2,0-0.5,0-1V25.4z M25.7,23.1h-1.6v-0.8c0-0.8,0.3-1.2,0.8-1.2c0.5,0,0.8,0.4,0.8,1.2V23.1z"/>
</svg>
